<svg xmlns="http://www.w3.org/2000/svg" viewBox="0 0 144 44">
  <path d="M4 0h136a4 4 0 0 1 4 4v36a4 4 0 0 1-4 4H4a4 4 0 0 1-4-4V4a4 4 0 0 1 4-4z"/>
  <path fill="#FFF" d="M51.05 13.4h.78l-.08 2h-.69V14h-4.1v1.4h-.66l-.11-2h.49c.2-.23.38-.56.55-1s.25-1.04.27-1.79l.13-2.3h3.42v5.08zm-2.77-2.79c-.03.62-.1 1.17-.24 1.64s-.3.85-.5 1.14h2.74V8.92h-1.91l-.1 1.7zm8.69 1.05c0 .7-.22 1.28-.65 1.73s-.99.7-1.68.7c-.66 0-1.2-.24-1.61-.7s-.63-1.03-.63-1.73v-1c0-.7.21-1.28.63-1.74s.95-.69 1.61-.69c.7 0 1.25.23 1.68.69s.65 1.04.65 1.73v1.01zm-.77-1.02c0-.52-.14-.94-.42-1.28s-.66-.5-1.14-.5c-.44 0-.8.17-1.07.5s-.4.76-.4 1.28v1.02c0 .53.14.96.4 1.3s.63.5 1.07.5c.48 0 .86-.17 1.14-.5s.42-.77.42-1.3v-1.02zm5.94 1.54v.02c.01.53-.17.98-.56 1.34s-.9.54-1.53.54c-.64 0-1.16-.23-1.57-.68s-.6-1.04-.6-1.74v-1c0-.7.2-1.29.6-1.74s.93-.69 1.57-.69 1.16.17 1.54.51.56.8.55 1.37v.02h-.74c0-.4-.12-.71-.35-.95s-.57-.34-1-.34c-.43 0-.77.17-1.02.52a2.1 2.1 0 0 0-.39 1.28v1.02c0 .52.13.95.39 1.3.25.34.6.52 1.02.52.43 0 .76-.12 1-.35s.35-.55.35-.95h.74zm4.78-3.26H65.1V14h-.77V8.92H62.5v-.6h4.42v.6zm2.43 2.05.29.74h.02l1.28-3.4h.9l-2 4.76c-.15.34-.31.6-.5.76s-.46.25-.86.25a2.65 2.65 0 0 1-.4-.03l.03-.59.17.01h.2c.18 0 .31-.04.39-.13.08-.1.17-.25.27-.45l.15-.33-1.9-4.25h.86l1.1 2.66zM77.1 14h-.77V8.92h-2.77V14h-.76V8.31h4.3V14zm5.71 0h-.77v-2.51h-2.76V14h-.77V8.31h.77v2.57h2.76V8.31h.77V14zm5.71-2.34c0 .7-.21 1.28-.64 1.73s-1 .7-1.68.7c-.67 0-1.2-.24-1.62-.7s-.62-1.03-.62-1.73v-1c0-.7.2-1.28.62-1.74s.95-.69 1.62-.69c.68 0 1.24.23 1.68.69s.64 1.04.64 1.73v1.01zm-.77-1.02c0-.52-.14-.94-.42-1.28s-.66-.5-1.13-.5c-.45 0-.8.17-1.07.5s-.4.76-.4 1.28v1.02c0 .53.13.96.4 1.3s.62.5 1.07.5c.47 0 .85-.17 1.13-.5s.42-.77.42-1.3v-1.02zm3.9 3.36V8.31h1.86c.6 0 1.06.13 1.4.39s.5.64.5 1.15c0 .25-.08.48-.24.68s-.37.35-.64.44c.35.08.62.24.81.5s.3.58.3.92c0 .53-.17.92-.5 1.2s-.8.41-1.38.41h-2.1zm.78-3.27h1.24c.3 0 .52-.08.7-.24s.27-.37.27-.65c0-.31-.1-.54-.29-.7s-.47-.22-.84-.22h-1.08v1.81zm0 .6v2.06h1.33c.35 0 .62-.08.82-.25s.29-.42.29-.74c0-.33-.08-.6-.24-.78s-.42-.28-.76-.28h-1.44zm-36.7 20.13c-.3.43-.8.82-1.49 1.18-.69.35-1.58.52-2.66.52a4.5 4.5 0 0 1-4.71-4.66v-2.38c0-1.37.42-2.5 1.25-3.36s1.92-1.3 3.24-1.3c1.34 0 2.38.33 3.12.99s1.12 1.52 1.14 2.57l-.02.05h-1.8a2.2 2.2 0 0 0-.66-1.51c-.4-.38-.99-.58-1.76-.58-.78 0-1.42.3-1.9.89a3.42 3.42 0 0 0-.72 2.24v2.39c0 .91.26 1.66.79 2.25s1.2.9 2.03.9c.6 0 1.08-.08 1.45-.22.37-.13.63-.3.8-.48v-2.3h-2.26v-1.43h4.16v4.24zm1.73-2.76a4.6 4.6 0 0 1 1.03-3.1c.7-.8 1.65-1.21 2.84-1.21 1.21 0 2.16.4 2.85 1.21.7.8 1.04 1.83 1.04 3.1v.16c0 1.27-.35 2.3-1.04 3.1-.69.8-1.63 1.2-2.83 1.2-1.21 0-2.16-.4-2.86-1.2a4.6 4.6 0 0 1-1.03-3.1v-.16zm1.9.16c0 .82.16 1.49.49 2 .31.52.81.78 1.5.78.66 0 1.15-.26 1.48-.77.33-.52.5-1.2.5-2.01v-.17c0-.8-.17-1.47-.5-1.99a1.65 1.65 0 0 0-1.5-.79c-.66 0-1.16.27-1.48.8a3.74 3.74 0 0 0-.49 1.98v.17zm7.17-.16a4.6 4.6 0 0 1 1.03-3.1c.7-.8 1.64-1.21 2.83-1.21 1.22 0 2.17.4 2.85 1.21.7.8 1.04 1.83 1.04 3.1v.16c0 1.27-.34 2.3-1.04 3.1-.68.8-1.63 1.2-2.83 1.2-1.21 0-2.16-.4-2.85-1.2a4.6 4.6 0 0 1-1.03-3.1v-.16zm1.9.16c0 .82.16 1.49.48 2 .32.52.82.78 1.5.78.66 0 1.15-.26 1.48-.77.34-.52.5-1.2.5-2.01v-.17c0-.8-.16-1.47-.5-1.99a1.65 1.65 0 0 0-1.5-.79c-.66 0-1.15.27-1.48.8a3.74 3.74 0 0 0-.49 1.98v.17zm7.17.03c0-1.34.29-2.43.88-3.26a2.84 2.84 0 0 1 2.45-1.24c.5 0 .95.1 1.33.32s.71.53.98.94l.18-1.1H83V33c0 1.09-.33 1.93-1 2.52s-1.63.9-2.86.9a6.29 6.29 0 0 1-2.63-.64l.4-1.5a4.6 4.6 0 0 0 2.21.52c.69 0 1.19-.15 1.5-.44.32-.3.48-.75.48-1.36v-.87a2.66 2.66 0 0 1-2.18 1.03 2.92 2.92 0 0 1-2.44-1.13 4.7 4.7 0 0 1-.88-2.98v-.16zm1.9.16c0 .78.15 1.4.46 1.87.3.46.79.7 1.44.7.4 0 .75-.09 1.03-.26s.5-.41.67-.73v-3.7a1.85 1.85 0 0 0-1.69-.98c-.65 0-1.13.27-1.44.82a4.22 4.22 0 0 0-.48 2.12v.16zM87.01 33h-1.9V20.81h1.9V33zm5.75.16c-1.2 0-2.16-.39-2.87-1.17s-1.06-1.8-1.06-3.02v-.31c0-1.23.35-2.25 1.05-3.06a3.35 3.35 0 0 1 2.66-1.2c1.14 0 2.01.34 2.62 1.03.6.69.9 1.61.9 2.77v1.12H90.8l-.01.04c.03.67.23 1.22.59 1.64.36.43.86.64 1.5.64.51 0 .95-.06 1.32-.19.36-.12.71-.3 1.05-.54l.6 1.25c-.3.28-.73.52-1.26.71-.52.2-1.13.3-1.82.3zm-.22-7.25c-.47 0-.86.2-1.16.56-.3.37-.49.85-.56 1.42l.01.04h3.36v-.2c0-.53-.14-.97-.41-1.3s-.7-.52-1.24-.52zm11.18 2.78V33h-1.9V21.62h4.45c1.26 0 2.24.33 2.95.98s1.07 1.5 1.07 2.56-.36 1.92-1.07 2.56-1.7.97-2.95.97h-2.55zm0-1.53h2.55c.7 0 1.23-.18 1.59-.56.35-.37.53-.85.53-1.43s-.18-1.06-.53-1.44c-.36-.39-.89-.58-1.59-.58h-2.55v4.01zM113.95 33h-1.9V20.81h1.9V33zm7.21 0a6.77 6.77 0 0 1-.25-1.23c-.26.4-.6.72-1.03 1-.43.26-.9.4-1.43.4-.88 0-1.55-.23-2.02-.69a2.47 2.47 0 0 1-.71-1.86c0-.82.32-1.46.97-1.91a4.67 4.67 0 0 1 2.72-.69h1.48v-.74c0-.44-.13-.79-.39-1.04s-.63-.37-1.12-.37c-.43 0-.77.1-1.03.31a.99.99 0 0 0-.38.8h-1.83v-.04c-.04-.67.25-1.26.89-1.78s1.45-.77 2.47-.77c.98 0 1.78.25 2.38.75.6.5.9 1.22.9 2.16v3.75a5.83 5.83 0 0 0 .3 1.95h-1.92zm-2.32-1.36c.47 0 .9-.12 1.29-.36s.64-.51.76-.82v-1.25h-1.5c-.56 0-1 .14-1.3.41s-.47.6-.47.97c0 .32.1.57.31.77s.52.28.9.28zm8.62-2.03.19.84h.05l1.85-5.9h2.07l-3.5 9.73c-.22.59-.53 1.1-.94 1.5s-.98.63-1.73.63a6.42 6.42 0 0 1-1.02-.16l.21-1.46.29.02.28.02c.34 0 .62-.12.83-.35.2-.24.37-.5.5-.82l.31-.76-3.07-8.35h2.07l1.61 5.06z"/>
  <linearGradient id="a" gradientUnits="userSpaceOnUse" x1="24.83" y1="35.29" x2="8.04" y2="18.51" gradientTransform="matrix(1 0 0 -1 0 46)">
    <stop offset="0" stop-color="#00A0FF"/>
    <stop offset=".01" stop-color="#00A1FF"/>
    <stop offset=".26" stop-color="#00BEFF"/>
    <stop offset=".51" stop-color="#00D2FF"/>
    <stop offset=".76" stop-color="#00DFFF"/>
    <stop offset="1" stop-color="#00E3FF"/>
  </linearGradient>
  <path fill="url(#a)" d="M13.46 9.54a2 2 0 0 0-.46 1.4v22.12a2 2 0 0 0 .46 1.4l.08.08 12.39-12.4v-.29L13.53 9.46l-.07.08z"/>
  <linearGradient id="b" gradientUnits="userSpaceOnUse" x1="36.86" y1="24" x2="12.66" y2="24" gradientTransform="matrix(1 0 0 -1 0 46)">
    <stop offset="0" stop-color="#FFE000"/>
    <stop offset=".41" stop-color="#FFBD00"/>
    <stop offset=".78" stop-color="orange"/>
    <stop offset="1" stop-color="#FF9C00"/>
  </linearGradient>
  <path fill="url(#b)" d="m30.06 26.28-4.13-4.13v-.3l4.13-4.13.09.06 4.9 2.78c1.39.8 1.39 2.09 0 2.88l-4.9 2.78-.1.06z"/>
  <linearGradient id="c" gradientUnits="userSpaceOnUse" x1="27.85" y1="21.7" x2="5.1" y2="-1.05" gradientTransform="matrix(1 0 0 -1 0 46)">
    <stop offset="0" stop-color="#FF3A44"/>
    <stop offset="1" stop-color="#C31162"/>
  </linearGradient>
  <path fill="url(#c)" d="M30.15 26.22 25.93 22 13.46 34.46c.46.5 1.22.55 2.08.06l14.6-8.3"/>
  <linearGradient id="d" gradientUnits="userSpaceOnUse" x1="10.32" y1="43.82" x2="20.49" y2="33.66" gradientTransform="matrix(1 0 0 -1 0 46)">
    <stop offset="0" stop-color="#32A071"/>
    <stop offset=".07" stop-color="#2DA771"/>
    <stop offset=".48" stop-color="#15CF74"/>
    <stop offset=".8" stop-color="#06E775"/>
    <stop offset="1" stop-color="#00F076"/>
  </linearGradient>
  <path fill="url(#d)" d="m30.15 17.78-14.6-8.3c-.87-.5-1.63-.43-2.09.06L25.93 22l4.22-4.22z"/>
  <path opacity=".2" d="m30.06 26.13-14.52 8.25c-.81.46-1.54.43-2 0l-.08.08.08.08c.46.42 1.19.45 2-.02l14.6-8.3-.08-.09z"/>
  <path opacity=".12" d="M13.46 34.32a2 2 0 0 1-.46-1.4v.14a2 2 0 0 0 .46 1.4l.08-.07-.08-.07zM35.04 23.3l-4.98 2.83.09.1 4.9-2.79c.7-.4 1.04-.92 1.04-1.44-.06.47-.41.94-1.05 1.3z"/>
  <path opacity=".25" fill="#FFF" d="m15.54 9.62 19.5 11.08c.64.36 1 .83 1.05 1.3 0-.52-.35-1.05-1.05-1.44L15.54 9.48c-1.4-.8-2.54-.14-2.54 1.46v.15c0-1.6 1.14-2.26 2.54-1.47z"/>
</svg>
