<svg xmlns="http://www.w3.org/2000/svg" viewBox="0 0 144 44">
  <path d="M4 0h136a4 4 0 0 1 4 4v36a4 4 0 0 1-4 4H4a4 4 0 0 1-4-4V4a4 4 0 0 1 4-4z"/>
  <path fill="#FFF" d="M30.17 11.18a5.88 5.88 0 0 0 1.33-4.14 5.6 5.6 0 0 0-3.75 1.98 5.4 5.4 0 0 0-1.34 4c1.4.1 2.85-.73 3.76-1.84m3.74 12.01-.02-.04a5.92 5.92 0 0 1-.43-3.16v-.04a5.36 5.36 0 0 1 1.72-3.27l.03-.02c.16-.18.6-.54.89-.75a5.75 5.75 0 0 0-4.7-2.55c-1.84-.16-3.75 1.18-4.78 1.15-1 .03-2.5-1.17-4.08-1.1h-.02l-.32.02a5.98 5.98 0 0 0-5.02 3.22c-.43.68-.93 2.29-1 3.3v.06c-.1.64 0 2.36.1 3.18l.01.04c.1.83.5 2.42.81 3.2.3.86 1.12 2.47 1.66 3.3 1.08 1.57 2.35 3.34 4.02 3.26 1.62-.06 2.21-1.09 4.16-1.07 1.94-.02 2.48 1.02 4.19 1.03 1.73-.07 2.81-1.65 3.89-3.22a17.3 17.3 0 0 0 1.65-3.3l.12-.36c-1.15-.33-2.43-1.86-2.88-2.88M52.12 9.53c0 .47-.15.85-.44 1.14s-.71.48-1.24.56v.04c.6.08 1.05.27 1.36.56s.46.68.46 1.15c0 .67-.25 1.19-.75 1.56-.5.37-1.2.56-2.1.56-.84 0-1.52-.13-2.05-.39v-.77a4.76 4.76 0 0 0 2.06.47c.65 0 1.13-.12 1.46-.37s.5-.6.5-1.05c0-.44-.18-.77-.55-1s-.91-.33-1.64-.33h-1.06v-.7h1.02c.67 0 1.18-.12 1.55-.36.36-.24.55-.57.55-1 0-.35-.13-.63-.4-.83s-.62-.32-1.06-.32c-.36 0-.68.04-.97.12s-.63.25-1.01.49l-.41-.56c.33-.24.7-.43 1.1-.55.42-.13.84-.2 1.28-.2.73 0 1.3.17 1.72.49.41.32.62.75.62 1.3zM56.96 15l-.16-.76h-.04c-.27.33-.53.56-.8.68-.26.12-.6.18-1 .18-.52 0-.94-.14-1.24-.41s-.45-.66-.45-1.17c0-1.08.86-1.65 2.6-1.7l.9-.03v-.33c0-.42-.09-.73-.27-.93-.18-.2-.47-.3-.87-.3-.44 0-.95.14-1.51.4l-.25-.61a3.77 3.77 0 0 1 1.81-.46c.64 0 1.11.14 1.42.42s.46.74.46 1.37V15h-.6zm-1.83-.57c.5 0 .9-.14 1.19-.42s.43-.66.43-1.16v-.48l-.81.03c-.65.03-1.1.13-1.4.3-.28.18-.42.46-.42.83 0 .3.09.52.27.67s.42.23.74.23zm7.32-4.09h-2.4V15h-.82V9.65h3.22v.7zM66 15.1c-.34 0-.66-.07-.95-.2a1.79 1.79 0 0 1-.73-.59h-.05c.03.32.05.61.05.9v2.2h-.8V9.64h.65l.11.73h.04c.21-.3.45-.5.73-.64s.6-.19.95-.19c.71 0 1.26.24 1.65.73s.57 1.16.57 2.04c0 .88-.2 1.56-.58 2.05-.4.48-.94.73-1.64.73zm-.11-4.86c-.55 0-.95.15-1.19.45s-.37.79-.38 1.45v.18c0 .75.13 1.29.38 1.61.25.33.65.49 1.2.49.47 0 .83-.19 1.1-.56s.38-.9.38-1.55c0-.67-.13-1.18-.39-1.54a1.3 1.3 0 0 0-1.1-.53zm2.9-.6h.87l1.17 3.06c.26.7.42 1.2.48 1.5h.04a275.14 275.14 0 0 1 1.6-4.56h.86l-2.3 6.1c-.23.6-.5 1.03-.8 1.28-.3.26-.67.38-1.12.38-.25 0-.49-.02-.73-.08v-.65c.18.04.38.06.6.06.56 0 .96-.31 1.2-.94l.3-.76-2.17-5.38zm6.91 2.23c1.01 0 1.52-.28 1.52-.84 0-.53-.41-.8-1.23-.8-.25 0-.48.03-.68.08s-.48.13-.81.27l-.29-.66a4.4 4.4 0 0 1 1.81-.37c.62 0 1.1.13 1.46.38.35.25.53.6.53 1.03 0 .6-.33 1-1 1.18v.04c.41.12.7.29.9.51.19.23.28.5.28.84 0 .5-.2.88-.6 1.15-.4.28-.95.42-1.65.42-.77 0-1.37-.12-1.79-.35v-.74c.6.28 1.2.42 1.81.42.47 0 .82-.08 1.06-.24.24-.17.36-.4.36-.7 0-.62-.5-.93-1.52-.93h-.74v-.69h.58zm4.57-2.22v3.4l-.03.88-.02.28 2.9-4.56h1V15h-.75v-3.27l.02-.65.02-.63L80.52 15h-1.01V9.65h.76zm9.19.7h-1.74V15h-.81v-4.66h-1.72v-.7h4.27v.7zm3.32 4.75c-.8 0-1.42-.24-1.88-.72a2.8 2.8 0 0 1-.68-2.01c0-.86.2-1.55.63-2.06.43-.5 1-.76 1.72-.76.67 0 1.2.22 1.59.66.39.44.58 1.02.58 1.75v.51h-3.68c.01.63.17 1.1.47 1.43.3.33.73.49 1.27.49a4.3 4.3 0 0 0 1.71-.36v.72c-.28.12-.55.21-.8.27-.26.05-.57.08-.93.08zm-.22-4.87c-.43 0-.78.14-1.03.42-.26.28-.4.67-.45 1.16h2.8c0-.51-.12-.9-.35-1.17a1.2 1.2 0 0 0-.97-.41zm10.5.76c0 .35-.1.61-.3.8-.2.18-.48.3-.84.36v.04c.46.06.79.2 1 .4.21.2.31.49.31.85 0 .5-.18.88-.55 1.15-.36.28-.9.4-1.6.4h-2.36V9.66h2.35c1.33 0 2 .45 2 1.34zm-.79.08c0-.26-.1-.45-.3-.55-.2-.11-.5-.17-.9-.17h-1.54v1.51h1.38c.5 0 .85-.06 1.06-.19s.3-.32.3-.6zm.16 2.32c0-.3-.12-.5-.33-.63-.22-.13-.59-.2-1.1-.2h-1.47v1.76h1.5c.93 0 1.4-.3 1.4-.93zM56.83 35l-1.6-4.09H50.1L48.51 35H47l5.08-12.9h1.26L58.39 35h-1.55zm-2.06-5.43-1.5-3.98c-.19-.5-.39-1.13-.6-1.86-.12.57-.3 1.18-.55 1.86l-1.51 3.98h4.16zm9.64 5.6c-.63 0-1.2-.11-1.72-.34a3.21 3.21 0 0 1-1.3-1.07h-.1c.06.56.1 1.1.1 1.6v3.96h-1.46V25.37h1.18l.2 1.31h.08a3.4 3.4 0 0 1 3.02-1.49c1.28 0 2.26.44 2.96 1.31s1.04 2.1 1.04 3.67c0 1.59-.35 2.82-1.06 3.7a3.57 3.57 0 0 1-2.94 1.3zm-.21-8.74c-.98 0-1.7.27-2.14.82s-.66 1.41-.67 2.6v.32c0 1.36.22 2.33.67 2.91s1.18.87 2.17.87c.84 0 1.49-.33 1.96-1s.7-1.61.7-2.8c0-1.2-.23-2.12-.7-2.76a2.33 2.33 0 0 0-2-.96zm11.24 8.75c-.63 0-1.2-.12-1.72-.35a3.22 3.22 0 0 1-1.3-1.07h-.1c.06.56.1 1.1.1 1.6v3.96h-1.46V25.37h1.18l.2 1.31h.08a3.4 3.4 0 0 1 3.02-1.49c1.28 0 2.26.44 2.96 1.31.7.87 1.04 2.1 1.04 3.67 0 1.59-.36 2.82-1.06 3.7a3.56 3.56 0 0 1-2.94 1.3zm-.21-8.75c-.98 0-1.7.27-2.14.82s-.66 1.41-.67 2.6v.32c0 1.36.22 2.33.67 2.91s1.18.87 2.17.87c.84 0 1.49-.33 1.96-1 .47-.68.7-1.61.7-2.8 0-1.2-.23-2.12-.7-2.76a2.33 2.33 0 0 0-2-.96zm18.9 5.15c0 1.13-.4 2.01-1.22 2.65s-1.94.95-3.34.95c-1.53 0-2.7-.2-3.52-.6v-1.43a9.23 9.23 0 0 0 3.57.72c1 0 1.74-.2 2.25-.57.5-.38.75-.9.75-1.58 0-.44-.09-.8-.26-1.1a2.52 2.52 0 0 0-.9-.78c-.42-.24-1.06-.51-1.91-.82a6.12 6.12 0 0 1-2.57-1.52 3.36 3.36 0 0 1-.76-2.3c0-.98.37-1.77 1.11-2.36s1.73-.87 2.95-.87a8.7 8.7 0 0 1 3.53.7l-.47 1.3a7.97 7.97 0 0 0-3.1-.67c-.78 0-1.4.17-1.84.51s-.67.81-.67 1.42c0 .44.08.8.24 1.1.17.28.44.54.83.77.4.24.99.5 1.8.79 1.34.48 2.27 1 2.77 1.55.51.55.76 1.26.76 2.14zm5.52 2.4a4.65 4.65 0 0 0 1.32-.18v1.11c-.16.08-.39.14-.7.2-.3.04-.58.06-.83.06-1.86 0-2.8-.98-2.8-2.94V26.5h-1.37v-.7l1.38-.6.61-2.07h.85v2.24h2.8v1.13h-2.8v5.67c0 .58.13 1.02.41 1.34s.65.46 1.13.46zm11.56-3.8c0 1.56-.4 2.8-1.18 3.67s-1.89 1.33-3.28 1.33c-.86 0-1.63-.2-2.3-.61s-1.18-.98-1.54-1.74-.55-1.64-.55-2.65c0-1.57.4-2.8 1.18-3.67s1.87-1.32 3.27-1.32c1.35 0 2.42.45 3.21 1.35.8.9 1.2 2.1 1.2 3.63zm-7.34 0c0 1.22.25 2.16.74 2.8s1.22.97 2.17.97 1.68-.32 2.18-.96c.5-.64.74-1.58.74-2.81s-.25-2.16-.74-2.8c-.5-.63-1.23-.95-2.2-.95-.95 0-1.67.31-2.16.94s-.73 1.56-.73 2.8zm14.3-4.99c.42 0 .8.04 1.14.1l-.2 1.36c-.4-.09-.75-.13-1.05-.13-.78 0-1.45.31-2 .95a3.46 3.46 0 0 0-.83 2.36V35h-1.46v-9.63h1.2l.17 1.78h.07c.36-.63.79-1.1 1.3-1.45s1.05-.5 1.65-.5zm7.02 9.99a4.42 4.42 0 0 1-3.37-1.3 5.03 5.03 0 0 1-1.24-3.62c0-1.55.38-2.78 1.15-3.7a3.8 3.8 0 0 1 3.08-1.37c1.2 0 2.16.4 2.86 1.2s1.06 1.83 1.06 3.13v.93h-6.64c.03 1.13.32 1.99.86 2.57.54.59 1.3.88 2.29.88 1.04 0 2.06-.22 3.07-.65v1.3c-.51.23-1 .39-1.46.48-.46.1-1.01.15-1.66.15zm-.4-8.77c-.77 0-1.39.25-1.85.76-.46.5-.73 1.2-.81 2.1h5.03c0-.93-.2-1.63-.61-2.12-.41-.5-1-.74-1.76-.74z"/>
</svg>
