<svg width="500" height="150" xmlns="http://www.w3.org/2000/svg">
  <path fill="none" d="M-1-1h802v602H-1z"/>
  <g>
    <path stroke="null" d="M13.89 0h472.19c7.67 0 13.89 6.1 13.89 13.64v122.75c0 7.54-6.22 13.64-13.9 13.64H13.9C6.22 150.03 0 143.93 0 136.4V13.64C0 6.11 6.22 0 13.89 0z"/>
    <g fill="#fff">
      <path d="M167.54 99.86 163.2 113h-5.58l14.2-41.79h6.51L192.58 113h-5.76l-4.47-13.14h-14.81zm13.7-4.21-4.1-12.03c-.92-2.73-1.54-5.21-2.16-7.63h-.13c-.62 2.48-1.3 5.02-2.1 7.57l-4.1 12.08h12.59zM196.74 92.8c0-3.85-.12-6.95-.25-9.8h4.9l.25 5.14h.13a11.8 11.8 0 0 1 10.66-5.83c7.25 0 12.7 6.14 12.7 15.25 0 10.79-6.56 16.12-13.63 16.12a10.53 10.53 0 0 1-9.24-4.71h-.12v16.3h-5.4V92.79zm5.4 8a12.27 12.27 0 0 0 .24 2.22 8.42 8.42 0 0 0 8.19 6.39c5.76 0 9.1-4.71 9.1-11.6 0-6-3.15-11.15-8.92-11.15a8.7 8.7 0 0 0-8.24 6.75 8.85 8.85 0 0 0-.38 2.24v5.14zM229.29 92.8c0-3.85-.12-6.95-.25-9.8h4.9l.25 5.14h.13a11.8 11.8 0 0 1 10.66-5.83c7.25 0 12.7 6.14 12.7 15.25 0 10.79-6.57 16.12-13.63 16.12a10.52 10.52 0 0 1-9.24-4.71h-.12v16.3h-5.4V92.79zm5.4 8a12.27 12.27 0 0 0 .24 2.22 8.42 8.42 0 0 0 8.18 6.39c5.77 0 9.12-4.71 9.12-11.6 0-6-3.16-11.15-8.93-11.15a8.7 8.7 0 0 0-8.24 6.75 8.85 8.85 0 0 0-.38 2.24v5.14zM294.94 111.14a38.93 38.93 0 0 1-12.83 2.3c-6.32 0-11.53-1.61-15.62-5.52-3.6-3.47-5.83-9.05-5.83-15.56.06-12.46 8.62-21.58 22.63-21.58a25.84 25.84 0 0 1 10.42 1.93l-1.3 4.4a21.65 21.65 0 0 0-9.24-1.8c-10.17 0-16.8 6.32-16.8 16.8 0 10.6 6.38 16.86 16.12 16.86 3.53 0 5.95-.5 7.19-1.12V95.4h-8.5v-4.34h13.77v20.08zM318.5 113l-.43-3.78h-.19a11.18 11.18 0 0 1-9.17 4.46c-6.08 0-9.18-4.28-9.18-8.62 0-7.25 6.45-11.22 18.05-11.15v-.62c0-2.48-.69-6.95-6.82-6.95a14.96 14.96 0 0 0-7.82 2.23l-1.24-3.6a18.62 18.62 0 0 1 9.86-2.66c9.18 0 11.4 6.26 11.4 12.27v11.22a42.25 42.25 0 0 0 .5 7.2h-4.96zm-.8-15.31c-5.95-.12-12.7.93-12.7 6.76a4.83 4.83 0 0 0 5.14 5.2 7.47 7.47 0 0 0 7.25-5.02 5.7 5.7 0 0 0 .31-1.73v-5.21zM328.49 68.99h5.45V113h-5.45V68.99zM343.12 68.99h5.46V113h-5.46V68.99zM359.18 99c.12 7.37 4.83 10.4 10.29 10.4a19.7 19.7 0 0 0 8.3-1.54l.94 3.9a24.3 24.3 0 0 1-9.98 1.86c-9.24 0-14.76-6.07-14.76-15.12s5.33-16.18 14.07-16.18c9.8 0 12.4 8.61 12.4 14.13a20.84 20.84 0 0 1-.18 2.54h-21.08zm16-3.91c.06-3.48-1.43-8.87-7.57-8.87-5.51 0-7.93 5.08-8.37 8.87h15.94zM385.59 92.36c0-3.54-.06-6.57-.25-9.36h4.77l.19 5.89h.25c1.36-4.03 4.65-6.58 8.3-6.58a5.9 5.9 0 0 1 1.55.2v5.14a8.19 8.19 0 0 0-1.85-.19c-3.85 0-6.58 2.91-7.32 7a15.36 15.36 0 0 0-.25 2.55v16h-5.4V92.36zM411.56 83l6.58 17.73c.68 1.98 1.42 4.34 1.92 6.14h.12c.56-1.8 1.18-4.1 1.92-6.26L428.06 83h5.76l-8.18 21.39c-3.9 10.29-6.57 15.56-10.3 18.78a14.77 14.77 0 0 1-6.7 3.54l-1.36-4.6a14.43 14.43 0 0 0 4.78-2.66 16.55 16.55 0 0 0 4.59-6.07 3.92 3.92 0 0 0 .43-1.3 4.76 4.76 0 0 0-.37-1.43L405.6 83h5.96zM173.93 39c0 7.42-4.51 11.36-10.01 11.36-5.7 0-9.7-4.42-9.7-10.94 0-6.85 4.25-11.33 10.01-11.33 5.9 0 9.7 4.51 9.7 10.91zm-16.73.35c0 4.6 2.5 8.74 6.88 8.74 4.41 0 6.9-4.07 6.9-8.96 0-4.29-2.23-8.77-6.87-8.77-4.61 0-6.91 4.25-6.91 8.99zM181.39 30.8h-6.56v-2.36h15.97v2.37h-6.6V50h-2.82V30.8zM195.95 28.44V38h.86l7.4-9.56h3.35l-8.16 9.89c3.56.48 4.93 2.65 6.05 5.56a56.55 56.55 0 0 0 2.37 6.11h-3a38.18 38.18 0 0 1-1.96-5.09c-1-2.85-2.37-4.8-6.02-4.8h-.9V50h-2.74V28.44h2.75zM210.54 28.7a32.37 32.37 0 0 1 5.34-.42c2.75 0 4.77.64 6.05 1.79a5.8 5.8 0 0 1 1.89 4.51 6.35 6.35 0 0 1-1.67 4.6 8.93 8.93 0 0 1-6.59 2.38 9.56 9.56 0 0 1-2.24-.2V50h-2.78V28.7zm2.78 10.4a9.33 9.33 0 0 0 2.3.22c3.36 0 5.41-1.63 5.41-4.61 0-2.85-2.01-4.22-5.09-4.22a11.67 11.67 0 0 0-2.62.22v8.38zM245.74 39c0 7.42-4.51 11.36-10.02 11.36-5.7 0-9.7-4.42-9.7-10.94 0-6.85 4.26-11.33 10.02-11.33 5.9 0 9.7 4.51 9.7 10.91zm-16.74.35c0 4.6 2.5 8.73 6.88 8.73 4.41 0 6.91-4.06 6.91-8.96 0-4.28-2.24-8.76-6.88-8.76-4.6 0-6.91 4.25-6.91 8.99zM251.98 28.44v9.08c0 3.43-.06 6.24-.26 9.12l.07.04a85.36 85.36 0 0 1 4-7.14l6.97-11.1h2.79V50h-2.63v-9.18c0-3.49.03-6.05.26-8.77l-.1-.03a65.89 65.89 0 0 1-4 7.26L252.33 50h-2.98V28.44h2.63zm3.52-4.51c.13.99.45 1.98 1.95 1.98 1.47 0 1.83-.93 1.95-1.98h2.15c-.16 2.1-1.44 3.42-4.16 3.42-2.63 0-3.87-1.31-4.03-3.42h2.14zM274.5 30.8h-6.55v-2.36h15.96v2.37h-6.59V50h-2.81V30.8zM297.48 39.9h-8.38v7.77h9.34V50h-12.12V28.44h11.64v2.33h-8.86v6.82h8.38v2.3zM308.84 28.73a26.97 26.97 0 0 1 5.1-.45c2.78 0 4.57.48 5.91 1.57a4.52 4.52 0 0 1 1.8 3.8 5.12 5.12 0 0 1-3.66 4.74v.06a5.56 5.56 0 0 1 4.45 5.41 5.81 5.81 0 0 1-1.82 4.32c-1.5 1.38-3.94 2.02-7.46 2.02a32.34 32.34 0 0 1-4.32-.26V28.73zm2.79 8.83h2.52c2.95 0 4.68-1.54 4.68-3.62 0-2.53-1.92-3.52-4.74-3.52a12.02 12.02 0 0 0-2.46.2v6.94zm0 10.33a14.85 14.85 0 0 0 2.33.13c2.88 0 5.54-1.06 5.54-4.2 0-2.93-2.53-4.15-5.57-4.15h-2.3v8.22z"/>
    </g>
    <rect y="27.5" x="32.76" width="95" rx="26.73" height="95" fill="#c8102e"/>
    <path fill="#fff" d="M51.57 75h2.52v12.43h-2.52v-5.05h-5.69v5.05h-2.52V75h2.52v5h5.7v-5zm14.2 7.12c0 2.02-1 3.1-2.82 3.1s-2.84-1.11-2.84-3.19v-7.02H57.6v7.1c0 3.5 1.94 5.5 5.33 5.5 3.41 0 5.37-2.04 5.37-5.6v-7h-2.52v7.1zm29.13 1.43L92.08 75h-2.06l-2.82 8.54L84.46 75h-2.69l4.33 12.42h2.09L91 79.27l2.82 8.16h2.1L100.27 75h-2.62l-2.74 8.54zm9.88-1.47h4.58v-2.26h-4.58v-2.54h6.65v-2.26h-9.14v12.4h9.38v-2.26h-6.9v-3.08zm9.9 5.33h2.49v-12.4h-2.5v12.4zm-41.4-2.57-1.13 2.58h-2.59l5.48-12.41h2.22l5.45 12.41h-2.64l-1.12-2.59h-5.67zm.94-2.24h3.8l-1.9-4.45-1.9 4.45zM80.26 59.2a15.83 15.83 0 0 1-15.81-15.82h2.23a13.58 13.58 0 1 0 27.16 0h2.23A15.83 15.83 0 0 1 80.26 59.2z"/>
  </g>
</svg>
