<svg xmlns="http://www.w3.org/2000/svg" width="1000" height="1000" fill="none">
  <rect width="1000" height="1000" fill="#EE5A5A" rx="500"/>
  <path fill="#fff" fill-opacity=".7" fill-rule="evenodd" d="M351.881 107.108 79.017 482.673a25.821 25.821 0 0 0 0 30.355l272.864 375.566a25.823 25.823 0 0 0 28.87 9.38l441.503-143.453a25.823 25.823 0 0 0 17.843-24.558V265.739a25.822 25.822 0 0 0-17.843-24.558L380.751 97.727a25.823 25.823 0 0 0-28.87 9.381ZM60.738 469.393c-12.328 16.969-12.328 39.947 0 56.916l272.864 375.565c12.329 16.969 34.182 24.07 54.131 17.588l441.503-143.453c19.949-6.482 33.455-25.071 33.455-46.046V265.739c0-20.975-13.506-39.565-33.455-46.046L387.733 76.239c-19.949-6.481-41.802.62-54.131 17.588L60.738 469.393Z" clip-rule="evenodd" opacity=".7"/>
  <g fill="#fff" opacity=".7">
    <path fill-rule="evenodd" d="M412.983 557.296c2.231-8.772 3.346-13.158 2.288-16.614a12.914 12.914 0 0 0-5.642-7.257c-3.089-1.876-7.615-1.876-16.666-1.876H356.08c-4.309 0-6.463 0-8.258.751a9.68 9.68 0 0 0-3.994 3.106c-1.171 1.554-1.702 3.642-2.763 7.818L302.063 696.63c-1.115 4.387-1.673 6.58-1.144 8.308a6.464 6.464 0 0 0 2.821 3.628c1.545.938 3.808.938 8.333.938h50.166c4.309 0 6.463 0 8.258-.751a9.683 9.683 0 0 0 3.995-3.107c1.17-1.554 1.701-3.642 2.763-7.817l35.728-140.533Z" clip-rule="evenodd"/>
    <path d="M451.902 404.215c1.116-4.386 1.673-6.579 1.144-8.307a6.449 6.449 0 0 0-2.821-3.628c-1.544-.939-3.807-.939-8.333-.939h-50.166c-4.309 0-6.463 0-8.257.752a9.676 9.676 0 0 0-3.995 3.106c-1.171 1.554-1.702 3.642-2.763 7.818l-21.179 83.302c-1.115 4.387-1.672 6.58-1.144 8.308a6.464 6.464 0 0 0 2.821 3.628c1.545.938 3.808.938 8.333.938h50.166c4.309 0 6.464 0 8.258-.751a9.683 9.683 0 0 0 3.995-3.107c1.17-1.554 1.701-3.642 2.763-7.817l21.178-83.303Z"/>
  </g>
  <path fill="#fff" fill-rule="evenodd" d="M410.357 696.63c-1.115 4.386-1.673 6.579-1.144 8.307a6.457 6.457 0 0 0 2.821 3.628c1.545.939 3.808.939 8.333.939h50.167c4.308 0 6.463 0 8.257-.752a9.689 9.689 0 0 0 3.995-3.106c1.17-1.554 1.701-3.642 2.763-7.818l23.766-93.48.001-.003h67.023l.453-.002c46.524-.51 85.889-30.849 99.871-72.794 3.531-10.592 5.443-21.925 5.443-33.704 0-58.82-47.683-106.503-106.503-106.503 0 0-6.847-.053-11.553-.011l-76.08.007-15.124 59.461-20.525 80.746h-96.228c-4.308 0-6.462 0-8.256.751a9.683 9.683 0 0 0-3.995 3.106c-1.17 1.554-1.702 3.641-2.764 7.816l-12.276 48.252c-1.116 4.386-1.674 6.58-1.146 8.308a6.463 6.463 0 0 0 2.821 3.629c1.545.938 3.808.938 8.335.938h95.004l-23.459 92.285Zm117.839-165.082 9.666-40.272c3.819-15.915 18.051-27.135 34.417-27.135l2.145.001c21.796 0 37.86 20.375 32.774 41.569-3.597 14.984-16.886 25.597-32.249 25.834l-.247.003-.278.001-46.228-.001Z" clip-rule="evenodd" opacity=".7"/>
  <path fill="#fff" d="m692.849 352.895 15.058-58.644c1.049-4.084-2.036-8.061-6.252-8.061H527.154c-4.292 0-6.438 0-8.228.747a9.682 9.682 0 0 0-3.989 3.089c-1.171 1.546-1.708 3.624-2.783 7.779l-24.184 93.533-16.466 64.745c-1.04 4.086 2.047 8.057 6.262 8.059l97.101-.004c21.795 0 37.859 20.375 32.773 41.569-3.631 15.127-17.141 25.801-32.691 25.838H356.093c-4.308 0-6.462 0-8.256.752a9.672 9.672 0 0 0-3.995 3.105c-1.17 1.554-1.702 3.641-2.764 7.816l-12.276 48.252c-1.116 4.387-1.674 6.58-1.146 8.308a6.463 6.463 0 0 0 2.821 3.629c1.545.938 3.808.938 8.335.938h237.233l.747-.002c46.524-.509 85.889-30.849 99.871-72.794 3.531-10.592 5.443-21.924 5.443-33.703 0-58.821-47.683-106.504-106.503-106.504 0 0-6.847-.053-11.553-.011l8.294-31.161H683.47a9.683 9.683 0 0 0 9.379-7.275Z"/>
</svg>
