<svg width="36" height="36" viewBox="0 0 36 36" fill="none" xmlns="http://www.w3.org/2000/svg">
<path d="M28.2418 23.4328H7.92051C7.86782 23.4328 7.81388 23.424 7.76369 23.4077C5.56195 22.6826 4.08663 20.7832 4.00383 18.5689C3.90472 15.8867 5.73385 13.4704 8.9154 12.0553C8.98816 10.2563 9.6468 8.65418 10.8336 7.40339C11.9552 6.22035 13.5146 5.36976 15.345 4.94196C15.4842 4.90934 15.6323 4.93819 15.749 5.021C15.8656 5.1038 15.9421 5.23302 15.9572 5.37604C16.0751 6.46123 16.9872 7.27919 18.0787 7.27919C19.1701 7.27919 20.0634 6.47503 20.1951 5.40992C20.2127 5.2669 20.2904 5.13893 20.4096 5.05738C20.5288 4.97584 20.6768 4.9495 20.8161 4.98462C24.6111 5.93934 26.9233 8.56762 27.0638 12.0503C30.3695 13.4717 32.2739 15.913 32.1761 18.6291C32.0971 20.8246 30.6129 22.7014 28.3948 23.409C28.3459 23.424 28.2945 23.4328 28.2418 23.4328ZM8.00333 22.4292H28.1627C29.958 21.8282 31.1097 20.3642 31.1737 18.594C31.259 16.2355 29.4675 14.0902 26.3838 12.8544C26.1931 12.7779 26.0689 12.5935 26.0689 12.389C26.0689 9.38435 24.2122 7.06342 21.0708 6.09741C20.6643 7.3758 19.4662 8.28283 18.0824 8.28283C16.6986 8.28283 15.4667 7.35447 15.0765 6.04848C11.8335 6.97936 9.9153 9.31911 9.9153 12.3877C9.9153 12.591 9.79233 12.7741 9.6054 12.8519C6.64089 14.0789 4.92213 16.2016 5.0087 18.5313C5.07519 20.3253 6.22064 21.8119 8.00462 22.4292H8.00333Z" fill="#79B72A"/>
<path d="M16.4289 34.1165C16.4289 34.1165 16.4277 34.1165 16.4264 34.1165H13.1206C12.8609 34.1165 12.6439 33.9183 12.6213 33.6586L11.6717 22.9748C11.6591 22.8343 11.7068 22.695 11.8008 22.5922C11.8962 22.488 12.0305 22.4291 12.171 22.4291H16.247C16.5205 22.4291 16.7438 22.6486 16.7488 22.9221L16.9257 33.5557C16.9282 33.5745 16.9294 33.5946 16.9294 33.6147C16.9294 33.8919 16.7049 34.1165 16.4276 34.1165H16.4289ZM13.5798 33.1129H15.9158L15.7539 23.4327H12.7192L13.5785 33.1129H13.5798Z" fill="#79B72A"/>
<path d="M13.1239 34.1166C13.1239 34.1166 13.1226 34.1166 13.1214 34.1166H9.72403C9.4794 34.1166 9.26989 33.9397 9.22975 33.6988L7.4232 23.0151C7.39811 22.8696 7.43953 22.7203 7.53487 22.6074C7.63022 22.4944 7.77068 22.4292 7.91871 22.4292H12.1729C12.4326 22.4292 12.6497 22.6274 12.6722 22.8871L13.6169 33.5207C13.6232 33.5521 13.6257 33.5834 13.6257 33.6161C13.6257 33.8933 13.4011 34.1179 13.1239 34.1179V34.1166ZM10.1493 33.113H12.5731L11.7137 23.4328H8.51212L10.1493 33.113Z" fill="#79B72A"/>
<path d="M19.9565 34.1165H16.4263C16.1528 34.1165 15.9295 33.897 15.9244 33.6235L15.7463 22.9397C15.7438 22.8055 15.7952 22.675 15.8906 22.5796C15.9847 22.483 16.1139 22.4291 16.2481 22.4291H20.136C20.2702 22.4291 20.3994 22.483 20.4935 22.5796C20.5876 22.675 20.6403 22.8055 20.6378 22.9397L20.4596 33.6235C20.4546 33.897 20.2313 34.1165 19.9578 34.1165H19.9565ZM16.9193 33.1129H19.4635L19.6254 23.4327H16.7587L16.9205 33.1129H16.9193Z" fill="#79B72A"/>
<path d="M23.397 34.1166H19.957C19.8227 34.1166 19.6936 34.0627 19.5995 33.9661C19.5054 33.8707 19.4527 33.7403 19.4552 33.606L19.6334 22.9222C19.6384 22.6488 19.8617 22.4292 20.1352 22.4292H23.9942C24.1322 22.4292 24.2639 22.4857 24.3593 22.586C24.4546 22.6864 24.5035 22.8206 24.496 22.9586L23.8976 33.6424C23.8825 33.9084 23.663 34.1166 23.397 34.1166ZM20.4676 33.113H22.9228L23.4648 23.4328H20.6295L20.4676 33.113Z" fill="#79B72A"/>
<path d="M26.526 34.1166H23.3971C23.2591 34.1166 23.1274 34.0602 23.032 33.9598C22.9367 33.8594 22.8878 33.7252 22.8953 33.5872L23.4937 22.9034C23.5088 22.6375 23.7283 22.4292 23.9942 22.4292H28.2421C28.3889 22.4292 28.5282 22.4932 28.6235 22.6061C28.7189 22.7178 28.7603 22.8658 28.7365 23.0113L27.019 33.6951C26.9801 33.9385 26.7693 34.1179 26.5234 34.1179L26.526 34.1166ZM23.9278 33.113H26.0981L27.6538 23.4328H24.4697L23.9278 33.113Z" fill="#79B72A"/>
<path d="M10.6625 19.8019C10.5421 19.8019 10.4216 19.7593 10.3263 19.6727L8.00283 17.5701C7.79708 17.3844 7.78205 17.067 7.96772 16.8612C8.1534 16.6555 8.47079 16.6404 8.67654 16.8261L11 18.9287C11.2057 19.1144 11.2207 19.4318 11.0351 19.6376C10.936 19.7467 10.7992 19.8032 10.6625 19.8032V19.8019Z" fill="#79B72A"/>
<path d="M13.656 13.6736C13.5569 13.6736 13.4553 13.6435 13.3675 13.582C13.1404 13.4227 13.0864 13.1091 13.2458 12.8832L15.1677 10.1546C15.3271 9.9275 15.6395 9.87356 15.8665 10.0329C16.0936 10.1922 16.1475 10.5058 15.9882 10.7317L14.0663 13.4603C13.9684 13.5996 13.8128 13.6736 13.656 13.6736Z" fill="#79B72A"/>
<path d="M24.2003 14.4776C24.1213 14.4776 24.0423 14.4587 23.967 14.4199L21.3312 13.0336C21.0853 12.9043 20.9912 12.6008 21.1204 12.3561C21.2497 12.1102 21.5532 12.0161 21.7979 12.1453L24.4337 13.5316C24.6796 13.6609 24.7737 13.9644 24.6445 14.2091C24.5541 14.3797 24.3797 14.4776 24.2003 14.4776Z" fill="#79B72A"/>
<path d="M17.0063 19.8019C16.8658 19.8019 16.7265 19.7442 16.6274 19.63C16.4455 19.4205 16.4668 19.1043 16.6763 18.9224L19.0888 16.8198C19.2984 16.6379 19.6145 16.6592 19.7964 16.8687C19.9783 17.0782 19.957 17.3944 19.7475 17.5763L17.335 19.6789C17.2396 19.7617 17.123 19.8019 17.0051 19.8019H17.0063Z" fill="#79B72A"/>
<path d="M25.185 20.0252C25.0383 20.0252 24.8927 19.9613 24.7936 19.8371C24.6205 19.6213 24.6556 19.3051 24.8714 19.132L26.8824 17.5211C27.0995 17.348 27.4144 17.3831 27.5875 17.5989C27.7606 17.8147 27.7255 18.1309 27.5097 18.304L25.4987 19.9148C25.4058 19.9889 25.2954 20.0252 25.185 20.0252Z" fill="#79B72A"/>
<path d="M18.0803 8.2828C16.4757 8.2828 15.1334 7.07969 14.9603 5.4839C14.9477 5.37475 14.9414 5.25808 14.9414 5.14141C14.9414 3.40887 16.349 2 18.0803 2C19.8116 2 21.218 3.40887 21.218 5.14141C21.218 5.27941 21.2092 5.41364 21.1916 5.53909C20.9984 7.09975 19.661 8.2828 18.0803 8.2828ZM18.0803 3.00364C16.9035 3.00364 15.945 3.96213 15.945 5.14141C15.945 5.22044 15.9488 5.29822 15.9576 5.37224C16.0755 6.45994 16.9876 7.27916 18.0791 7.27916C19.1705 7.27916 20.0638 6.475 20.1955 5.40988C20.2081 5.32206 20.213 5.23424 20.213 5.14141C20.213 3.96213 19.2558 3.00364 18.0791 3.00364H18.0803Z" fill="#79B72A"/>
</svg>
