<svg width="36" height="36" viewBox="0 0 36 36" fill="none" xmlns="http://www.w3.org/2000/svg">
<path d="M1.56092 19.484C-2.06122 23.1089 12.9054 38.0909 16.5262 34.466C19.9287 31.0593 4.96205 16.0787 1.56092 19.484ZM10.9568 29.2496C10.594 29.6138 9.36254 28.9703 8.20613 27.8138C7.04971 26.6574 6.40758 25.4245 6.77174 25.059C7.13451 24.6948 8.36596 25.337 9.52238 26.4948C10.6788 27.6526 11.3209 28.8841 10.9568 29.2496Z" stroke="#79B72A" stroke-width="1.31416" stroke-linecap="round" stroke-linejoin="round"/>
<path d="M16.5288 35.022C16.3856 35.022 16.2425 34.9678 16.134 34.858C15.9186 34.6412 15.9186 34.2895 16.134 34.0727C16.7359 33.4709 16.4232 32.2853 16.0548 31.3971C15.143 29.1983 12.8385 26.2502 10.0379 23.7011C7.2177 21.1339 4.4879 19.5397 2.91451 19.5397C2.49614 19.5397 2.18201 19.6495 1.95546 19.8761C1.74419 20.0874 1.40505 20.0943 1.18544 19.8927C0.965837 19.6912 0.944983 19.3521 1.13679 19.1241C6.65895 12.5873 13.6683 8.52734 19.4268 8.52734C20.6624 8.52734 21.8008 8.71781 22.8071 9.09309C23.7814 9.45724 24.6265 9.99093 25.3172 10.6817C26.0122 11.3795 26.5404 12.2176 26.8851 13.1767C28.7962 18.5056 24.8836 27.0175 16.9152 34.8608C16.8068 34.9678 16.6664 35.0207 16.5246 35.0207L16.5288 35.022ZM3.22863 18.4417C5.88755 18.664 9.37486 21.5926 10.7884 22.8797C13.7017 25.5317 16.1132 28.6312 17.0834 30.9718C17.3474 31.6098 17.492 32.1574 17.5504 32.63C24.2595 25.5205 27.4953 18.165 25.8426 13.5547C25.5535 12.7513 25.1129 12.0494 24.5347 11.4698C23.9579 10.893 23.2463 10.4441 22.422 10.1369C21.5394 9.80747 20.5331 9.64071 19.4295 9.64071C15.4419 9.64071 9.21641 11.9855 3.22863 18.4417Z" fill="#79B72A"/>
<path d="M26.364 13.9228C26.3237 13.9228 26.2834 13.9186 26.2431 13.9089C26.0568 13.8672 25.9053 13.7337 25.8414 13.5544C25.5523 12.7511 25.1117 12.0492 24.5334 11.4682C23.9566 10.8914 23.245 10.4425 22.4208 10.1353C22.3457 10.1075 22.279 10.0644 22.222 10.0074L22.1803 9.96569C21.9635 9.74887 21.9635 9.39719 22.1803 9.17898L26.7254 4.62841C25.9651 2.88823 26.2403 1.79992 26.6239 1.18279C27.0909 0.430843 27.9429 0 28.9604 0C30.1557 0 31.2773 0.604559 31.818 1.53998C32.1961 2.19324 32.2781 2.96467 32.071 3.78611C32.3351 3.72912 32.5936 3.69992 32.848 3.69992C34.748 3.69992 35.8835 5.27749 35.8835 6.80362C35.8835 8.16436 34.9606 9.53623 32.8994 9.53623C32.3907 9.53623 31.8305 9.45001 31.2315 9.28044L26.7573 13.7588C26.6517 13.8644 26.5099 13.9214 26.364 13.9214V13.9228ZM23.5271 9.40559C24.204 9.74056 24.8045 10.1686 25.3201 10.6843C25.8191 11.1846 26.2305 11.7573 26.5516 12.3939L30.6811 8.2589C30.8298 8.11018 31.048 8.05872 31.2482 8.12405C31.8611 8.3242 32.4171 8.42565 32.9008 8.42565C34.6368 8.42565 34.773 7.1845 34.773 6.80505C34.773 5.82654 34.053 4.81328 32.8494 4.81328C32.3837 4.81328 31.875 4.95642 31.3343 5.23996C31.1147 5.35533 30.8465 5.31085 30.6755 5.13294C30.5046 4.95503 30.4712 4.68541 30.5949 4.47137C31.1286 3.5429 31.219 2.7228 30.8576 2.09873C30.5171 1.5094 29.7554 1.11465 28.9618 1.11465C28.3363 1.11465 27.829 1.35517 27.5704 1.77215C27.2021 2.36704 27.3161 3.3358 27.8943 4.50333C27.9999 4.71738 27.9582 4.97453 27.79 5.14271L23.5299 9.40694L23.5271 9.40559Z" fill="#79B72A"/>
<path d="M10.6634 29.9069C9.81551 29.9069 8.63408 29.0285 7.81263 28.2071C6.66595 27.059 5.60265 25.4425 6.37823 24.6669C6.49915 24.546 6.71598 24.4028 7.06485 24.4028C7.9141 24.4028 9.09414 25.2813 9.91558 26.1027C11.0623 27.2508 12.1256 28.8658 11.35 29.6428C11.2291 29.7637 11.0122 29.9069 10.6634 29.9069ZM7.26639 25.5551C7.39009 25.9179 7.80013 26.6198 8.59933 27.4203C9.36935 28.1904 10.0796 28.6226 10.4632 28.7519C10.3395 28.3891 9.92948 27.6872 9.13028 26.8866C8.36026 26.1166 7.65 25.6843 7.26639 25.5537V25.5551Z" fill="#79B72A"/>
<path d="M17.8234 26.2621C17.6525 26.2621 17.4843 26.1829 17.3745 26.0355C15.2826 23.1848 12.7502 20.651 9.84667 18.5035C9.59927 18.3215 9.54783 17.9726 9.72991 17.7265C9.91199 17.4791 10.2609 17.4277 10.5069 17.6098C13.4994 19.8239 16.111 22.437 18.2696 25.3767C18.4517 25.6241 18.3975 25.9716 18.1501 26.1537C18.0514 26.226 17.936 26.2621 17.822 26.2621H17.8234Z" fill="#79B72A"/>
<path d="M23.0167 27.1909C22.8262 27.1909 22.64 27.0922 22.5357 26.9157C21.264 24.7432 19.767 22.6917 18.088 20.8195C17.8823 20.5915 17.9018 20.2399 18.1311 20.0342C18.359 19.8285 18.7107 19.8479 18.9164 20.0773C20.6455 22.0065 22.1869 24.1178 23.4962 26.3542C23.6519 26.6196 23.5629 26.9601 23.2974 27.1144C23.2085 27.1658 23.1126 27.1909 23.0167 27.1909Z" fill="#79B72A"/>
<path d="M13.3152 16.1719C13.1956 16.1719 13.0747 16.133 12.9733 16.0538C11.6709 15.0364 10.2657 14.0648 8.79932 13.1683C8.53802 13.0084 8.45463 12.6665 8.61447 12.4038C8.77431 12.1425 9.11762 12.0591 9.37893 12.219C10.8814 13.1377 12.3214 14.1329 13.6571 15.1767C13.899 15.3658 13.942 15.7146 13.753 15.9578C13.6432 16.0982 13.4792 16.1719 13.3138 16.1719H13.3152Z" fill="#79B72A"/>
<path d="M23.222 20.7571C23.0552 20.7571 22.8912 20.682 22.7814 20.5402C20.0752 17.0307 16.6519 13.8644 12.6058 11.1277C12.3514 10.9553 12.2847 10.6106 12.4571 10.3563C12.6294 10.1019 12.9755 10.0352 13.2285 10.2076C17.3732 13.011 20.8828 16.2593 23.6626 19.862C23.8503 20.1052 23.8044 20.454 23.5625 20.6417C23.4611 20.7195 23.3415 20.7571 23.2234 20.7571H23.222Z" fill="#79B72A"/>
<path d="M26.5746 19.0345C26.3939 19.0345 26.2174 18.9469 26.1104 18.7857C24.7872 16.7925 23.1762 14.9037 21.3207 13.1704C21.0969 12.9605 21.0844 12.6089 21.2943 12.3851C21.5042 12.1614 21.8558 12.1489 22.0796 12.3587C23.9991 14.1503 25.667 16.1074 27.0374 18.1728C27.207 18.4285 27.1375 18.7732 26.8818 18.9427C26.7872 19.0053 26.6802 19.0359 26.5746 19.0359V19.0345Z" fill="#79B72A"/>
<path d="M27.4466 10.4826C27.3048 10.4826 27.1617 10.4284 27.0532 10.32C26.8364 10.1031 26.8364 9.75148 27.0532 9.53326L28.5558 8.02932C28.7726 7.81249 29.1242 7.81249 29.3425 8.02932C29.5593 8.24615 29.5593 8.59782 29.3425 8.81604L27.8399 10.32C27.7315 10.4284 27.5884 10.4826 27.4466 10.4826Z" fill="#79B72A"/>
</svg>
