<svg width="36" height="36" viewBox="0 0 36 36" fill="none" xmlns="http://www.w3.org/2000/svg">
<circle cx="18" cy="18" r="18" fill="#F5F4F2"/>
<path d="M14.5 31L28.5 22L30.5 19L30 17L29 15.5L31 14L28.5 12L26.5 14L26 13L24.5 12L24 10L23.5 9L21.5 7.5L19.5 7L17 7.5L15.5 9.5L15 8.5L12 7H10L8 8.5L7 11.5L7.5 14.5L9.5 17.5L12.5 20.5L15 23L14.5 24L11.5 29.5L12.5 30.5L14.5 31Z" fill="#FFE581"/>
<path d="M26.9388 16.3008C26.6639 15.8895 26.5545 15.3108 26.5187 14.7776C26.4277 13.4073 25.2865 12.3011 23.9139 12.3437C22.7833 12.3786 21.675 12.9428 21.0004 13.9918L11.8939 28.1467C11.4254 28.8745 11.4854 29.848 12.0923 30.4644C12.102 30.4741 12.1117 30.4838 12.1213 30.4935C12.737 31.0964 13.7039 31.1583 14.4289 30.6928C16.7201 29.2209 24.0552 24.511 28.6007 21.5923C30.5299 20.3536 30.8202 17.6507 29.1989 16.0298L28.7411 15.5169L31.0642 13.9685C29.1283 13.1944 28.7411 11.646 28.7411 11.646L27.9667 12.8073" stroke="#FFCD05" stroke-width="1.3" stroke-linecap="round" stroke-linejoin="round"/>
<path d="M15.1777 26.4263L16.1583 27.4056" stroke="#FFCD05" stroke-width="1.3" stroke-linecap="round" stroke-linejoin="round"/>
<path d="M18.7715 21.5264L20.4044 23.1599" stroke="#FFCD05" stroke-width="1.3" stroke-linecap="round" stroke-linejoin="round"/>
<path d="M22.0391 16.3008L24.6525 18.9136" stroke="#FFCD05" stroke-width="1.3" stroke-linecap="round" stroke-linejoin="round"/>
<path d="M23.6719 22.1797L25.2167 23.7658" stroke="#FFCD05" stroke-width="1.3" stroke-linecap="round" stroke-linejoin="round"/>
<path d="M19.0977 25.7734L20.2234 26.9725" stroke="#FFCD05" stroke-width="1.3" stroke-linecap="round" stroke-linejoin="round"/>
<path d="M23.8584 10.0958C23.1992 8.28417 21.5469 7 19.612 7C17.8851 7 16.439 7.88064 15.6114 9.34965C14.7838 7.8816 13.3377 7 11.6109 7C9.0971 7 7.05859 9.16965 7.05859 11.8454C7.05859 15.3999 10.7204 19.1431 13.2516 21.3059" stroke="#FFCD05" stroke-width="1.3" stroke-linecap="round" stroke-linejoin="round"/>
</svg>
