<svg width="24" height="24" viewBox="0 0 24 24" fill="none" xmlns="http://www.w3.org/2000/svg">
<g opacity="0.5">
<path d="M7.41071 13.8281L8.51475 14.8804C8.82449 15.1756 9.00012 15.5872 9.00012 16.018C9.00012 16.6651 9.51812 17.1896 10.1571 17.1896H13.8431C14.4821 17.1896 15.0001 16.6651 15.0001 16.018C15.0001 15.5872 15.1757 15.1756 15.4855 14.8804L16.5895 13.8281C18.1307 12.3478 18.9914 10.4032 19 8.38146L19.0001 8.29653C19.0001 4.84218 15.8661 1.99976 12.0001 1.99976C8.13413 1.99976 5.00012 4.84218 5.00012 8.29653L5.00019 8.38146C5.00887 10.4032 5.86951 12.3478 7.41071 13.8281Z" fill="#FFCD05"/>
</g>
<path fill-rule="evenodd" clip-rule="evenodd" d="M9.24988 18.7085C9.24988 18.289 9.58566 17.949 9.99988 17.949H13.9999C14.4141 17.949 14.7499 18.289 14.7499 18.7085C14.7499 19.1279 14.4141 19.468 13.9999 19.468H9.99988C9.58566 19.468 9.24988 19.1279 9.24988 18.7085ZM9.91654 21.2401C9.91654 20.8207 10.2523 20.4806 10.6665 20.4806H13.3332C13.7474 20.4806 14.0832 20.8207 14.0832 21.2401C14.0832 21.6596 13.7474 21.9996 13.3332 21.9996H10.6665C10.2523 21.9996 9.91654 21.6596 9.91654 21.2401Z" fill="#FFCD05"/>
</svg>
