<svg width="36" height="36" viewBox="0 0 36 36" fill="none" xmlns="http://www.w3.org/2000/svg">
<circle cx="18" cy="18" r="18" fill="#F5F4F2"/>
<path d="M9.5 13V28.5H26.5V13.5L23 8V5H13V8L9.5 13Z" fill="#FFE581"/>
<path d="M26.9944 13.0625C26.9944 12.9444 26.9606 12.8262 26.8875 12.725L23.625 8.37687V5.1875C23.625 4.87812 23.3719 4.625 23.0625 4.625H12.9375C12.6281 4.625 12.375 4.87812 12.375 5.1875V8.37687L9.11251 12.725C8.98313 12.8937 8.96624 13.1244 9.06187 13.3156C9.15749 13.5069 9.35438 13.625 9.5625 13.625H19.125V26.5625C19.125 26.8719 19.3781 27.125 19.6875 27.125C19.9969 27.125 20.25 26.8719 20.25 26.5625V13.625H25.875V28.25H10.125V15.3125H9V28.8125C9 29.1219 9.25312 29.375 9.5625 29.375H26.4375C26.7469 29.375 27 29.1219 27 28.8125V13.0625H26.9944ZM13.3875 8.9C13.4606 8.80438 13.5 8.68625 13.5 8.5625V5.75H22.5V8H15.1875C14.8781 8 14.625 8.25312 14.625 8.5625C14.625 8.87187 14.8781 9.125 15.1875 9.125H21.9375L19.4062 12.5H10.6875L13.3875 8.9ZM20.8125 12.5L23.0625 9.50187L25.3125 12.5H20.8125Z" fill="#FFCD05"/>
<path d="M11.8125 19.25H17.4375C17.7469 19.25 18 18.9969 18 18.6875C18 18.3781 17.7469 18.125 17.4375 18.125H11.8125C11.5031 18.125 11.25 18.3781 11.25 18.6875C11.25 18.9969 11.5031 19.25 11.8125 19.25Z" fill="#FFCD05"/>
<path d="M11.8125 22.0625H17.4375C17.7469 22.0625 18 21.8094 18 21.5C18 21.1906 17.7469 20.9375 17.4375 20.9375H11.8125C11.5031 20.9375 11.25 21.1906 11.25 21.5C11.25 21.8094 11.5031 22.0625 11.8125 22.0625Z" fill="#FFCD05"/>
</svg>
