<svg width="36" height="36" viewBox="0 0 36 36" fill="none" xmlns="http://www.w3.org/2000/svg">
<path d="M19.8575 10.5716C20.1979 10.5716 20.4765 10.293 20.4765 9.95254C20.4765 9.61207 20.1979 9.3335 19.8575 9.3335C19.517 9.3335 19.2384 9.61207 19.2384 9.95254C19.2384 10.293 19.517 10.5716 19.8575 10.5716Z" fill="#79B72A"/>
<path d="M12.4278 10.5716C12.7682 10.5716 13.0468 10.293 13.0468 9.95254C13.0468 9.61207 12.7682 9.3335 12.4278 9.3335C12.0873 9.3335 11.8087 9.61207 11.8087 9.95254C11.8087 10.293 12.0873 10.5716 12.4278 10.5716Z" fill="#79B72A"/>
<path d="M18 13.0477C18.3405 13.0477 18.6191 12.7691 18.6191 12.4286C18.6191 12.0881 18.3405 11.8096 18 11.8096C17.6596 11.8096 17.381 12.0881 17.381 12.4286C17.381 12.7691 17.6596 13.0477 18 13.0477Z" fill="#79B72A"/>
<path d="M21.7149 13.0477C22.0553 13.0477 22.3339 12.7691 22.3339 12.4286C22.3339 12.0881 22.0553 11.8096 21.7149 11.8096C21.3744 11.8096 21.0958 12.0881 21.0958 12.4286C21.0958 12.7691 21.3744 13.0477 21.7149 13.0477Z" fill="#79B72A"/>
<path d="M23.5723 10.5716C23.9128 10.5716 24.1913 10.293 24.1913 9.95254C24.1913 9.61207 23.9128 9.3335 23.5723 9.3335C23.2318 9.3335 22.9532 9.61207 22.9532 9.95254C22.9532 10.293 23.2318 10.5716 23.5723 10.5716Z" fill="#79B72A"/>
<path d="M25.4278 13.0477C25.7682 13.0477 26.0468 12.7691 26.0468 12.4286C26.0468 12.0881 25.7682 11.8096 25.4278 11.8096C25.0873 11.8096 24.8087 12.0881 24.8087 12.4286C24.8087 12.7691 25.0873 13.0477 25.4278 13.0477Z" fill="#79B72A"/>
<path d="M10.5723 13.0477C10.9128 13.0477 11.1913 12.7691 11.1913 12.4286C11.1913 12.0881 10.9128 11.8096 10.5723 11.8096C10.2318 11.8096 9.95325 12.0881 9.95325 12.4286C9.95325 12.7691 10.2318 13.0477 10.5723 13.0477Z" fill="#79B72A"/>
<path d="M16.1426 10.5716C16.4831 10.5716 16.7617 10.293 16.7617 9.95254C16.7617 9.61207 16.4831 9.3335 16.1426 9.3335C15.8021 9.3335 15.5236 9.61207 15.5236 9.95254C15.5236 10.293 15.8021 10.5716 16.1426 10.5716Z" fill="#79B72A"/>
<path d="M14.2852 13.0477C14.6257 13.0477 14.9042 12.7691 14.9042 12.4286C14.9042 12.0881 14.6257 11.8096 14.2852 11.8096C13.9447 11.8096 13.6661 12.0881 13.6661 12.4286C13.6661 12.7691 13.9447 13.0477 14.2852 13.0477Z" fill="#79B72A"/>
<path d="M7.47616 16.1429H28.5238C29.5452 16.1429 30.3809 15.3071 30.3809 14.2857V13.0476C30.3809 8.46048 25.0571 5 18 5C10.9428 5 5.61902 8.46048 5.61902 13.0476V14.2857C5.61902 15.3071 6.45473 16.1429 7.47616 16.1429ZM6.85711 13.0476C6.85711 9.2281 11.7538 6.2381 18 6.2381C24.2462 6.2381 29.1428 9.2281 29.1428 13.0476V14.2857C29.1428 14.6262 28.8643 14.9048 28.5238 14.9048H7.47616C7.13569 14.9048 6.85711 14.6262 6.85711 14.2857V13.0476Z" fill="#79B72A"/>
<path d="M6.23807 18.6191H18.8295C19.3185 18.6191 19.7952 18.8172 20.1419 19.1638L21.38 20.4019C21.9866 21.0024 22.779 21.3057 23.5714 21.3057C24.3638 21.3057 25.1562 21.0024 25.7628 20.4019L27.0009 19.1638C27.3476 18.8172 27.8243 18.6191 28.3133 18.6191H29.7619C30.1024 18.6191 30.3809 18.3405 30.3809 18C30.3809 17.6596 30.1024 17.381 29.7619 17.381H28.3133C27.49 17.381 26.71 17.7029 26.1219 18.2848L24.8838 19.5229C24.1595 20.2472 22.9833 20.2472 22.259 19.5229L21.0209 18.2848C20.439 17.7029 19.659 17.381 18.8295 17.381H6.23807C5.89759 17.381 5.61902 17.6596 5.61902 18C5.61902 18.3405 5.89759 18.6191 6.23807 18.6191Z" fill="#79B72A"/>
<path d="M28.5238 24.8096H7.47616C6.45473 24.8096 5.61902 25.6453 5.61902 26.6667V27.9048C5.61902 29.6134 7.00569 31 8.71426 31H27.2857C28.9943 31 30.3809 29.6134 30.3809 27.9048V26.6667C30.3809 25.6453 29.5452 24.8096 28.5238 24.8096ZM29.1428 27.9048C29.1428 28.9262 28.3071 29.762 27.2857 29.762H8.71426C7.69283 29.762 6.85711 28.9262 6.85711 27.9048V26.6667C6.85711 26.3262 7.13569 26.0477 7.47616 26.0477H28.5238C28.8643 26.0477 29.1428 26.3262 29.1428 26.6667V27.9048Z" fill="#79B72A"/>
<path d="M29.7619 19.8572H28.5238C28.1834 19.8572 27.9048 20.1357 27.9048 20.4762C27.9048 20.8167 28.1834 21.0953 28.5238 21.0953H29.7619C30.1024 21.0953 30.381 21.3738 30.381 21.7143C30.381 22.0548 30.1024 22.3334 29.7619 22.3334H6.23812C5.89765 22.3334 5.61908 22.0548 5.61908 21.7143C5.61908 21.3738 5.89765 21.0953 6.23812 21.0953H18.6191C18.9596 21.0953 19.2381 20.8167 19.2381 20.4762C19.2381 20.1357 18.9596 19.8572 18.6191 19.8572H6.23812C5.2167 19.8572 4.38098 20.6929 4.38098 21.7143C4.38098 22.7357 5.2167 23.5715 6.23812 23.5715H29.7619C30.7834 23.5715 31.6191 22.7357 31.6191 21.7143C31.6191 20.6929 30.7834 19.8572 29.7619 19.8572Z" fill="#79B72A"/>
</svg>
