<svg width="36" height="36" viewBox="0 0 36 36" fill="none" xmlns="http://www.w3.org/2000/svg">
<path d="M27.1942 14.8067C26.8739 14.3274 26.7464 13.653 26.7047 13.0316C26.5986 11.4348 25.2687 10.1458 23.6693 10.1954C22.3518 10.236 21.0602 10.8935 20.274 12.1159L9.6619 28.6112C9.11595 29.4593 9.18589 30.5937 9.89314 31.3121C9.90442 31.3234 9.9157 31.3347 9.92698 31.3459C10.6444 32.0485 11.7712 32.1207 12.6161 31.5782C15.286 29.863 23.8339 24.3743 29.131 20.9731C31.3791 19.5296 31.7175 16.3799 29.8281 14.4909L29.2945 13.8932L32.0017 12.0889C29.7457 11.1867 29.2945 9.38232 29.2945 9.38232L28.3921 10.7356" stroke="#79B72A" stroke-width="1.3" stroke-linecap="round" stroke-linejoin="round"/>
<path d="M13.4883 26.606L14.6309 27.7472" stroke="#79B72A" stroke-width="1.3" stroke-linecap="round" stroke-linejoin="round"/>
<path d="M17.6777 20.8965L19.5806 22.8001" stroke="#79B72A" stroke-width="1.3" stroke-linecap="round" stroke-linejoin="round"/>
<path d="M21.4844 14.8066L24.5299 17.8515" stroke="#79B72A" stroke-width="1.3" stroke-linecap="round" stroke-linejoin="round"/>
<path d="M23.3867 21.6577L25.187 23.5061" stroke="#79B72A" stroke-width="1.3" stroke-linecap="round" stroke-linejoin="round"/>
<path d="M18.0586 25.8452L19.3704 27.2425" stroke="#79B72A" stroke-width="1.3" stroke-linecap="round" stroke-linejoin="round"/>
<path d="M23.6047 7.57586C22.8365 5.46475 20.9111 3.96826 18.6562 3.96826C16.6439 3.96826 14.9587 4.9945 13.9942 6.70639C13.0298 4.99562 11.3446 3.96826 9.33227 3.96826C6.40289 3.96826 4.02734 6.49663 4.02734 9.61479C4.02734 13.7569 8.29452 18.119 11.2442 20.6395" stroke="#79B72A" stroke-width="1.3" stroke-linecap="round" stroke-linejoin="round"/>
</svg>
