<svg width="36" height="36" viewBox="0 0 36 36" fill="none" xmlns="http://www.w3.org/2000/svg">
<circle cx="18" cy="18" r="18" fill="#F5F4F2"/>
<path d="M10.5 27H27L28.5 24.5L28 23H9L8.5 23.5V25L9 26L10.5 27Z" fill="#FFE581"/>
<path d="M10.4995 21.0002C10.4995 21.0002 26.2231 20.7352 28.9995 20.5002C31.7758 20.2651 30.9063 16.0591 28.4995 16.5002C26.0926 16.9412 25.4995 17.0002 25.4995 17.0002L24.4995 18.5002H22.9995L21.4995 18.0002L19.4995 16.5002H8.49947C6.89794 16.9897 7.49951 18 7.99947 18.5002C8.49942 19.0003 7.49947 20.5002 7.49947 20.5002L10.4995 21.0002Z" fill="#FFE581"/>
<path d="M9.5 14.5H27.5L28.5 13.5V12L27.5 9.5L24 7L20 6H15.5L12.5 7L10 9L8.5 11V13L9.5 14.5Z" fill="#FFE581"/>
<path d="M20.0676 10.2503C20.3551 10.2503 20.5904 10.0151 20.5904 9.72756C20.5904 9.44006 20.3551 9.20483 20.0676 9.20483C19.7801 9.20483 19.5449 9.44006 19.5449 9.72756C19.5449 10.0151 19.7801 10.2503 20.0676 10.2503Z" fill="#FFCD05"/>
<path d="M13.7962 10.2503C14.0837 10.2503 14.3189 10.0151 14.3189 9.72756C14.3189 9.44006 14.0837 9.20483 13.7962 9.20483C13.5087 9.20483 13.2734 9.44006 13.2734 9.72756C13.2734 10.0151 13.5087 10.2503 13.7962 10.2503Z" fill="#FFCD05"/>
<path d="M18.4993 12.3411C18.7868 12.3411 19.022 12.1059 19.022 11.8184C19.022 11.5309 18.7868 11.2957 18.4993 11.2957C18.2118 11.2957 17.9766 11.5309 17.9766 11.8184C17.9766 12.1059 18.2118 12.3411 18.4993 12.3411Z" fill="#FFCD05"/>
<path d="M21.636 12.3411C21.9235 12.3411 22.1587 12.1059 22.1587 11.8184C22.1587 11.5309 21.9235 11.2957 21.636 11.2957C21.3485 11.2957 21.1133 11.5309 21.1133 11.8184C21.1133 12.1059 21.3485 12.3411 21.636 12.3411Z" fill="#FFCD05"/>
<path d="M23.2044 10.2503C23.4919 10.2503 23.7271 10.0151 23.7271 9.72756C23.7271 9.44006 23.4919 9.20483 23.2044 9.20483C22.9169 9.20483 22.6816 9.44006 22.6816 9.72756C22.6816 10.0151 22.9169 10.2503 23.2044 10.2503Z" fill="#FFCD05"/>
<path d="M24.7727 12.341C25.0602 12.341 25.2955 12.1058 25.2955 11.8183C25.2955 11.5308 25.0602 11.2955 24.7727 11.2955C24.4852 11.2955 24.25 11.5308 24.25 11.8183C24.25 12.1058 24.4852 12.341 24.7727 12.341Z" fill="#FFCD05"/>
<path d="M12.2278 12.3411C12.5153 12.3411 12.7505 12.1059 12.7505 11.8184C12.7505 11.5309 12.5153 11.2957 12.2278 11.2957C11.9403 11.2957 11.7051 11.5309 11.7051 11.8184C11.7051 12.1059 11.9403 12.3411 12.2278 12.3411Z" fill="#FFCD05"/>
<path d="M16.9309 10.2503C17.2184 10.2503 17.4537 10.0151 17.4537 9.72756C17.4537 9.44006 17.2184 9.20483 16.9309 9.20483C16.6434 9.20483 16.4082 9.44006 16.4082 9.72756C16.4082 10.0151 16.6434 10.2503 16.9309 10.2503Z" fill="#FFCD05"/>
<path d="M15.3645 12.3411C15.652 12.3411 15.8872 12.1059 15.8872 11.8184C15.8872 11.5309 15.652 11.2957 15.3645 11.2957C15.077 11.2957 14.8418 11.5309 14.8418 11.8184C14.8418 12.1059 15.077 12.3411 15.3645 12.3411Z" fill="#FFCD05"/>
<path d="M9.6131 14.9547H27.3858C28.2483 14.9547 28.954 14.249 28.954 13.3865V12.3411C28.954 8.46769 24.4585 5.54565 18.4994 5.54565C12.5404 5.54565 8.04492 8.46769 8.04492 12.3411V13.3865C8.04492 14.249 8.7506 14.9547 9.6131 14.9547ZM9.09037 12.3411C9.09037 9.11587 13.2251 6.59111 18.4994 6.59111C23.7737 6.59111 27.9085 9.11587 27.9085 12.3411V13.3865C27.9085 13.674 27.6733 13.9093 27.3858 13.9093H9.6131C9.3256 13.9093 9.09037 13.674 9.09037 13.3865V12.3411Z" fill="#FFCD05"/>
<path d="M8.56765 17.0457H19.1999C19.6128 17.0457 20.0154 17.213 20.3081 17.5057L21.3535 18.5511C21.8658 19.0582 22.5349 19.3143 23.204 19.3143C23.8731 19.3143 24.5422 19.0582 25.0544 18.5511L26.0999 17.5057C26.3926 17.213 26.7951 17.0457 27.2081 17.0457H28.4312C28.7187 17.0457 28.954 16.8105 28.954 16.523C28.954 16.2355 28.7187 16.0002 28.4312 16.0002H27.2081C26.5128 16.0002 25.8542 16.2721 25.3576 16.7634L24.3122 17.8089C23.7006 18.4205 22.7074 18.4205 22.0958 17.8089L21.0503 16.7634C20.559 16.2721 19.9003 16.0002 19.1999 16.0002H8.56765C8.28015 16.0002 8.04492 16.2355 8.04492 16.523C8.04492 16.8105 8.28015 17.0457 8.56765 17.0457Z" fill="#FFCD05"/>
<path d="M27.3858 22.2727H9.6131C8.7506 22.2727 8.04492 22.9784 8.04492 23.8409V24.8863C8.04492 26.3291 9.21583 27.5 10.6586 27.5H26.3403C27.7831 27.5 28.954 26.3291 28.954 24.8863V23.8409C28.954 22.9784 28.2483 22.2727 27.3858 22.2727ZM27.9085 24.8863C27.9085 25.7488 27.2028 26.4545 26.3403 26.4545H10.6586C9.79605 26.4545 9.09037 25.7488 9.09037 24.8863V23.8409C9.09037 23.5534 9.3256 23.3182 9.6131 23.3182H27.3858C27.6733 23.3182 27.9085 23.5534 27.9085 23.8409V24.8863Z" fill="#FFCD05"/>
<path d="M28.4318 18.0909H27.3863C27.0988 18.0909 26.8636 18.3262 26.8636 18.6137C26.8636 18.9012 27.0988 19.1364 27.3863 19.1364H28.4318C28.7193 19.1364 28.9545 19.3716 28.9545 19.6591C28.9545 19.9466 28.7193 20.1818 28.4318 20.1818H8.56818C8.28068 20.1818 8.04545 19.9466 8.04545 19.6591C8.04545 19.3716 8.28068 19.1364 8.56818 19.1364H19.0227C19.3102 19.1364 19.5454 18.9012 19.5454 18.6137C19.5454 18.3262 19.3102 18.0909 19.0227 18.0909H8.56818C7.70568 18.0909 7 18.7966 7 19.6591C7 20.5216 7.70568 21.2273 8.56818 21.2273H28.4318C29.2943 21.2273 29.9999 20.5216 29.9999 19.6591C29.9999 18.7966 29.2943 18.0909 28.4318 18.0909Z" fill="#FFCD05"/>
</svg>
