<svg width="138" height="72" viewBox="0 0 138 72" fill="none" xmlns="http://www.w3.org/2000/svg">
<path d="M54.344 28.3347H15.5486C13.9364 28.3347 12.6294 29.6339 12.6294 31.2365C12.6294 32.8392 13.9364 34.1383 15.5486 34.1383H54.344C55.9563 34.1383 57.2632 32.8392 57.2632 31.2365C57.2632 29.6339 55.9563 28.3347 54.344 28.3347Z" fill="#E9571C"/>
<path d="M47.8163 45.0502H22.0743C20.4621 45.0502 19.1551 46.3494 19.1551 47.952C19.1551 49.5546 20.4621 50.8538 22.0743 50.8538H47.8163C49.4285 50.8538 50.7355 49.5546 50.7355 47.952C50.7355 46.3494 49.4285 45.0502 47.8163 45.0502Z" fill="#E9571C"/>
<path d="M51.0295 36.6884H18.8612C17.2489 36.6884 15.9419 37.9875 15.9419 39.5902C15.9419 41.1928 17.2489 42.492 18.8612 42.492H51.0295C52.6417 42.492 53.9487 41.1928 53.9487 39.5902C53.9487 37.9875 52.6417 36.6884 51.0295 36.6884Z" fill="#79B72A"/>
<path d="M26.7045 18.2558L33.4003 24.9139C34.5403 26.0476 36.3884 26.0479 37.528 24.9147C38.6677 23.7814 38.6673 21.9438 37.5273 20.8102L30.8315 14.152C29.6915 13.0184 27.8435 13.0181 26.7038 14.1513C25.5642 15.2846 25.5645 17.1222 26.7045 18.2558Z" fill="#79B72A"/>
<path d="M69.4997 37.8757H65.7392C65.6114 37.8757 65.5121 37.777 65.5121 37.6641V28.5101C65.5121 28.3972 65.6114 28.2985 65.7392 28.2985H68.6523C69.4571 28.2985 70.2924 28.3972 70.9999 28.9032C71.5513 29.3104 71.9324 29.9152 71.9324 30.7316C71.9324 31.7012 71.5087 32.4189 70.7302 32.7716V32.8281C72.1027 33.1506 72.725 34.0235 72.725 35.2894C72.725 37.0755 71.1134 37.8778 69.5017 37.8778L69.4997 37.8757ZM69.4429 30.1692C69.2159 30.0139 68.9341 29.9434 68.6361 29.9434H67.5475V32.1931H68.5084C68.7618 32.1931 69.074 32.179 69.3436 32.052C69.6538 31.8967 69.8808 31.5883 69.8808 31.0823C69.8808 30.6469 69.7105 30.3506 69.4429 30.1692ZM69.9802 33.9932C69.6963 33.8521 69.3294 33.8239 68.778 33.8239H67.5475V36.2288H69.0598C69.3842 36.2288 69.7105 36.2006 69.9639 36.0877C70.3593 35.9184 70.6431 35.6099 70.6431 35.0193C70.6431 34.5839 70.4444 34.2029 69.9781 33.9932H69.9802Z" fill="#79B72A"/>
<path d="M82.7923 28.2985C83.0194 28.2985 83.0457 28.4678 82.9342 28.621L79.3845 32.951L83.0478 37.5069C83.1897 37.6903 83.1613 37.8717 82.9484 37.8717H81.0388C80.8543 37.8717 80.7408 37.8153 80.6293 37.6601L77.7161 33.961H77.0086V37.6601C77.0086 37.7729 76.9235 37.8717 76.7957 37.8717H75.1983C75.0706 37.8717 74.9712 37.7729 74.9712 37.6601V28.5061C74.9712 28.3932 75.0706 28.2944 75.1983 28.2944H76.7957C76.9235 28.2944 77.0086 28.3932 77.0086 28.5061V32.1628H77.7019L80.5725 28.5061C80.686 28.365 80.7996 28.2944 80.982 28.2944H82.7923V28.2985Z" fill="#79B72A"/>
<path d="M85.5778 36.1461C86.0724 36.1461 86.4414 36.0755 86.7657 35.9062C87.0475 35.751 87.2746 35.5272 87.5158 35.2309L84.0513 28.5947C83.9803 28.4818 83.9945 28.3004 84.2074 28.3004H86.0035C86.2022 28.3004 86.3015 28.4133 86.3704 28.5403L88.5477 33.1667L90.4999 28.5403C90.5567 28.3992 90.6702 28.3004 90.8527 28.3004H92.5495C92.7765 28.3004 92.7907 28.4839 92.7198 28.5947L89.8208 35.0212C89.4681 35.8236 89.0423 36.4404 88.5193 36.9061C87.7408 37.6096 86.7941 37.8757 85.8048 37.8757H85.0689C84.9554 37.8757 84.8561 37.7769 84.8561 37.664V36.3557C84.8561 36.2287 84.9554 36.1441 85.0689 36.1441H85.5778V36.1461Z" fill="#79B72A"/>
<path d="M94.0476 33.08C94.0476 30.282 96.3242 28.1735 99.209 28.1735C100.567 28.1735 101.457 28.496 102.122 28.8347C102.264 28.9193 102.278 29.0181 102.221 29.129L101.571 30.4796C101.514 30.6066 101.4 30.6207 101.289 30.5643C100.695 30.2699 100.044 30.0018 99.1684 30.0018C97.5426 30.0018 96.1843 31.3242 96.1843 33.082C96.1843 34.8399 97.4858 36.1764 99.1826 36.1764C100.058 36.1764 100.766 35.9365 101.374 35.614C101.502 35.5575 101.573 35.5575 101.63 35.6845L102.28 37.0633C102.337 37.1903 102.309 37.275 102.181 37.3315C101.431 37.7104 100.512 38.0209 99.1684 38.0209C96.0566 38.0209 94.0496 36.1078 94.0496 33.0861L94.0476 33.08Z" fill="#79B72A"/>
<path d="M112.627 28.2985C112.741 28.2985 112.84 28.3972 112.84 28.5101V37.6641C112.84 37.777 112.741 37.8757 112.627 37.8757H111.016C110.902 37.8757 110.803 37.777 110.803 37.6641V33.9529H106.42V37.6641C106.42 37.777 106.335 37.8757 106.207 37.8757H104.61C104.482 37.8757 104.383 37.777 104.383 37.6641V28.5101C104.383 28.3972 104.482 28.2985 104.61 28.2985H106.207C106.335 28.2985 106.42 28.3972 106.42 28.5101V32.1669H110.803V28.5101C110.803 28.3972 110.902 28.2985 111.016 28.2985H112.627Z" fill="#79B72A"/>
<path d="M120.236 38.0169C117.351 38.0169 115.074 36.0756 115.074 33.1103C115.074 30.145 117.351 28.1755 120.236 28.1755C123.12 28.1755 125.383 30.1571 125.383 33.1103C125.383 36.0635 123.12 38.0169 120.236 38.0169ZM120.236 30.0724C118.51 30.0724 117.237 31.3948 117.237 33.1103C117.237 34.8258 118.51 36.1341 120.236 36.1341C121.961 36.1341 123.22 34.8258 123.22 33.1103C123.22 31.3948 121.961 30.0724 120.236 30.0724Z" fill="#79B72A"/>
<path d="M75.2692 50.6421C75.2692 50.7126 75.2125 50.7691 75.1415 50.7691H74.3063C74.2353 50.7691 74.1786 50.7126 74.1786 50.6421V43.1471L70.9958 48.3359C70.9249 48.4488 70.8681 48.477 70.7688 48.477H70.1464C70.0329 48.477 69.9903 48.4488 69.9193 48.3359L66.7102 43.1471V50.6421C66.7102 50.7126 66.6534 50.7691 66.5825 50.7691H65.7473C65.6763 50.7691 65.6196 50.7126 65.6196 50.6421V41.3329C65.6196 41.2623 65.6763 41.1918 65.7473 41.1918H66.6393C66.7528 41.1918 66.8095 41.2059 66.8805 41.3329L70.4302 47.1829L73.9941 41.3329C74.0792 41.2059 74.136 41.1918 74.2475 41.1918H75.1395C75.2104 41.1918 75.2672 41.2623 75.2672 41.3329V50.6421H75.2692Z" fill="#E9571C"/>
<path d="M78.6345 50.628C78.6061 50.7268 78.5351 50.7692 78.4216 50.7692H77.5722C77.487 50.7692 77.4587 50.7268 77.4587 50.6704C77.4587 50.6422 77.4587 50.5998 77.487 50.5434L81.1503 41.3048C81.1928 41.1919 81.2496 41.1495 81.3631 41.1495H82.2673C82.3808 41.1495 82.4376 41.1919 82.4801 41.3048L86.1292 50.5434C86.1434 50.5716 86.1718 50.6422 86.1718 50.6704C86.1718 50.7268 86.1292 50.7692 86.0299 50.7692H85.1683C85.0548 50.7692 84.9838 50.7268 84.9554 50.628L84.0796 48.4066H79.5123L78.6365 50.628H78.6345ZM81.801 42.5143L79.8062 47.4914H83.7938L81.799 42.5143H81.801Z" fill="#E9571C"/>
<path d="M92.2798 41.1918C93.1151 41.1918 93.8347 41.347 94.4997 41.8671C95.2072 42.4154 95.6309 43.26 95.6309 44.3425C95.6309 45.4251 95.1646 46.3402 94.4004 46.8886C93.7354 47.3804 92.9448 47.4933 92.1379 47.4933H89.4944V50.6421C89.4944 50.7126 89.4235 50.7691 89.3525 50.7691H88.4909C88.42 50.7691 88.3632 50.7126 88.3632 50.6421V41.3329C88.3632 41.2623 88.42 41.1918 88.4909 41.1918H92.2798ZM93.6665 42.6109C93.2286 42.2884 92.7198 42.1755 92.1116 42.1755H89.4964V46.5055H91.9575C92.5515 46.5055 93.1455 46.435 93.6117 46.1266C94.149 45.7617 94.4875 45.1287 94.4875 44.3405C94.4875 43.5523 94.1773 42.9617 93.6665 42.6109Z" fill="#E9571C"/>
<path d="M105.317 41.1918C105.473 41.1918 105.502 41.3047 105.402 41.4034L101.386 45.9028L105.487 50.5433C105.587 50.6562 105.558 50.7691 105.431 50.7691H104.413C104.285 50.7691 104.228 50.7408 104.16 50.6421L100.454 46.4652H99.4076V50.6421C99.4076 50.7126 99.3367 50.7691 99.2657 50.7691H98.4042C98.3332 50.7691 98.2764 50.7126 98.2764 50.6421V41.3329C98.2764 41.2623 98.3332 41.1918 98.4042 41.1918H99.2657C99.3367 41.1918 99.4076 41.2623 99.4076 41.3329V45.4815H100.44L104.103 41.3329C104.16 41.2341 104.23 41.1918 104.356 41.1918H105.317Z" fill="#E9571C"/>
<path d="M114.736 41.1918C114.807 41.1918 114.863 41.2623 114.863 41.3329V42.0505C114.863 42.1352 114.807 42.1916 114.736 42.1916H109.108V45.4815H114C114.071 45.4815 114.127 45.5379 114.127 45.6085V46.3402C114.127 46.4108 114.071 46.4672 114 46.4672H109.108V49.7712H114.736C114.807 49.7712 114.863 49.8418 114.863 49.9123V50.6441C114.863 50.7146 114.807 50.7711 114.736 50.7711H108.102C108.032 50.7711 107.975 50.7146 107.975 50.6441V41.3349C107.975 41.2643 108.032 41.1938 108.102 41.1938H114.736V41.1918Z" fill="#E9571C"/>
<path d="M124.223 41.1918C124.294 41.1918 124.351 41.2623 124.351 41.3329V42.0505C124.351 42.1352 124.294 42.1916 124.223 42.1916H120.986V50.6421C120.986 50.7126 120.929 50.7691 120.844 50.7691H119.994C119.909 50.7691 119.852 50.7126 119.852 50.6421V42.1916H116.615C116.544 42.1916 116.487 42.1352 116.487 42.0505V41.3329C116.487 41.2623 116.544 41.1918 116.615 41.1918H124.223Z" fill="#E9571C"/>
</svg>
