<svg width="173" height="78" viewBox="0 0 173 78" fill="none" xmlns="http://www.w3.org/2000/svg">
<path d="M64.0774 25.4116H4.72352C2.25691 25.4116 0.257324 27.4145 0.257324 29.8852C0.257324 32.356 2.25691 34.3589 4.72352 34.3589H64.0774C66.5441 34.3589 68.5436 32.356 68.5436 29.8852C68.5436 27.4145 66.5441 25.4116 64.0774 25.4116Z" fill="#E9571C"/>
<path d="M54.0906 51.1813H14.7074C12.2408 51.1813 10.2412 53.1842 10.2412 55.6549C10.2412 58.1256 12.2408 60.1285 14.7074 60.1285H54.0906C56.5572 60.1285 58.5568 58.1256 58.5568 55.6549C58.5568 53.1842 56.5572 51.1813 54.0906 51.1813Z" fill="#E9571C"/>
<path d="M59.0064 38.2903H9.7914C7.32478 38.2903 5.3252 40.2932 5.3252 42.7639C5.3252 45.2346 7.32478 47.2375 9.7914 47.2375H59.0064C61.473 47.2375 63.4726 45.2346 63.4726 42.7639C63.4726 40.2932 61.473 38.2903 59.0064 38.2903Z" fill="#79B72A"/>
<path d="M21.7937 9.87393L32.0377 20.1385C33.7819 21.8862 36.6092 21.8867 38.3528 20.1396C40.0963 18.3926 40.0958 15.5596 38.3517 13.8119L28.1077 3.54726C26.3635 1.7996 23.5362 1.79911 21.7926 3.54617C20.049 5.29323 20.0495 8.12626 21.7937 9.87393Z" fill="#79B72A"/>
<path d="M37.7179 67.7953C37.7582 67.7953 37.7892 67.8264 37.7892 67.8668V68.1682C37.7892 68.1993 37.7582 68.2397 37.7179 68.2397H33.4005V71.0678H35.7856C36.285 71.0678 36.8029 71.1392 37.2185 71.3475C37.7985 71.6178 38.1831 72.1182 38.1831 72.948C38.1831 73.7777 37.8109 74.2781 37.2402 74.5702C36.837 74.7784 36.3377 74.8717 35.8197 74.8717H32.9756C32.9353 74.8717 32.9043 74.8406 32.9043 74.8002V67.8668C32.9043 67.8264 32.9353 67.7953 32.9756 67.7953H37.7179ZM36.9487 71.7266C36.6261 71.5712 36.2322 71.4873 35.767 71.4873H33.4005V74.4614H35.7856C36.2322 74.4614 36.6261 74.39 36.9363 74.2221C37.4046 73.9828 37.6837 73.5571 37.6837 72.9542C37.6837 72.3513 37.4139 71.9659 36.9456 71.7266H36.9487Z" fill="#0B0B0B"/>
<path d="M39.8947 70.8503C40.3289 70.4027 40.9523 70.123 41.6688 70.123C42.3852 70.123 43.0179 70.4027 43.4521 70.8503C43.8677 71.276 44.1159 71.8789 44.1159 72.5564C44.1159 73.2339 43.8677 73.8244 43.4521 74.2502C43.0148 74.707 42.3945 74.9774 41.6688 74.9774C40.943 74.9774 40.3289 74.707 39.8947 74.2502C39.4791 73.8244 39.231 73.2215 39.231 72.5564C39.231 71.8914 39.4791 71.2791 39.8947 70.8503ZM40.1955 73.958C40.5584 74.3527 41.0764 74.6013 41.6688 74.6013C42.2612 74.6013 42.7884 74.3527 43.1513 73.958C43.4738 73.5944 43.6599 73.1065 43.6599 72.5533C43.6599 72.0001 43.4738 71.5029 43.1513 71.1393C42.7884 70.7446 42.2705 70.5053 41.6688 70.5053C41.0671 70.5053 40.5584 70.7446 40.1955 71.1393C39.873 71.5029 39.6776 72.0032 39.6776 72.5533C39.6776 73.1034 39.8761 73.5944 40.1955 73.958Z" fill="#0B0B0B"/>
<path d="M45.9024 73.4701C45.769 73.9891 45.5922 74.4583 45.3224 74.8002C45.2697 74.8624 45.2386 74.8717 45.1673 74.8717H44.9068C44.8354 74.8717 44.823 74.8188 44.8665 74.7567C45.158 74.3713 45.3441 73.8927 45.4775 73.3831C45.6946 72.5315 45.7473 71.5433 45.7473 70.6793V70.3064C45.7473 70.2535 45.7876 70.2131 45.8403 70.2131H49.0876C49.128 70.2131 49.159 70.2442 49.159 70.2846V74.7971C49.159 74.8375 49.128 74.8686 49.0876 74.8686H48.7868C48.7465 74.8686 48.7155 74.8375 48.7155 74.7971V70.6078H46.1939C46.1722 71.4718 46.1319 72.5626 45.9024 73.467V73.4701Z" fill="#0B0B0B"/>
<path d="M51.2033 72.3482H52.9061C53.4457 72.3482 53.9451 72.4632 54.2459 72.7522C54.4444 72.9387 54.5778 73.2308 54.5778 73.6038C54.5778 74.0202 54.4227 74.3092 54.1839 74.5175C53.8923 74.7661 53.4364 74.8717 52.9278 74.8717H50.8218C50.7815 74.8717 50.7505 74.8407 50.7505 74.8003V70.2878C50.7505 70.2474 50.7815 70.2163 50.8218 70.2163H51.132C51.163 70.2163 51.2033 70.2474 51.2033 70.2878V72.3451V72.3482ZM53.8799 72.9822C53.6411 72.774 53.2782 72.6901 52.8223 72.6901H51.2033V74.5299H52.8533C53.2596 74.5299 53.6101 74.4677 53.8396 74.2813C54.0164 74.1352 54.1312 73.9176 54.1312 73.6069C54.1312 73.3365 54.0381 73.1283 53.883 72.9822H53.8799Z" fill="#0B0B0B"/>
<path d="M62.8739 74.8033C62.8739 74.8437 62.8429 74.8748 62.8026 74.8748H55.9854C55.9451 74.8748 55.9141 74.8437 55.9141 74.8033V70.2908C55.9141 70.2504 55.9451 70.2194 55.9854 70.2194H56.2956C56.3266 70.2194 56.3576 70.2504 56.3576 70.2908V74.4801H59.1707V70.2908C59.1707 70.2504 59.2017 70.2194 59.242 70.2194H59.5522C59.5832 70.2194 59.6142 70.2504 59.6142 70.2908V74.4801H62.4273V70.2908C62.4273 70.2504 62.4583 70.2194 62.4986 70.2194H62.7995C62.8398 70.2194 62.8708 70.2504 62.8708 70.2908V74.8033H62.8739Z" fill="#0B0B0B"/>
<path d="M68.1654 74.1569C68.2367 74.1165 68.2584 74.1258 68.2894 74.1662L68.3918 74.3745C68.4135 74.4149 68.3918 74.4459 68.3514 74.477C67.9669 74.7163 67.3124 74.9774 66.5867 74.9774C65.8175 74.9774 65.1755 74.6852 64.7382 74.1756C64.3753 73.7591 64.1675 73.178 64.1675 72.4912C64.1675 71.8043 64.3753 71.2543 64.7599 70.8285C65.1445 70.3934 65.7151 70.123 66.4626 70.123C67.2101 70.123 67.728 70.4152 68.0909 70.8409C68.4445 71.2449 68.6399 71.8385 68.6213 72.5471C68.6213 72.6093 68.581 72.6403 68.5158 72.6403H64.6358C64.6668 73.1718 64.8126 73.5851 65.0824 73.9176C65.4236 74.3558 65.9633 74.6138 66.6084 74.6138C67.2535 74.6138 67.7901 74.3962 68.1654 74.1569ZM68.1747 72.286C68.1654 71.7546 67.9886 71.3289 67.728 71.0398C67.4489 70.7291 67.0023 70.4898 66.4626 70.4898C65.8392 70.4898 65.374 70.7291 65.0731 71.102C64.8126 71.4034 64.6699 71.8416 64.6389 72.286H68.1778H68.1747Z" fill="#0B0B0B"/>
<path d="M69.8031 75.6456C69.7504 75.6673 69.7193 75.6549 69.6883 75.6145L69.648 75.543C69.617 75.5026 69.6387 75.4715 69.6697 75.4405C69.7721 75.3472 69.8682 75.2633 69.8682 75.139C69.8682 74.9308 69.6294 74.9308 69.6294 74.6697C69.6294 74.4926 69.7535 74.3683 69.9395 74.3683C70.1877 74.3683 70.3117 74.5765 70.3117 74.8376C70.3117 75.1608 70.0946 75.5026 69.8031 75.6487V75.6456Z" fill="#0B0B0B"/>
<path d="M77.6777 74.8034C77.6777 74.8438 77.6373 74.8749 77.6063 74.8749H77.2962C77.2558 74.8749 77.2248 74.8438 77.2248 74.8034V72.9729C76.8309 73.1283 76.282 73.265 75.7113 73.265C75.1406 73.265 74.7374 73.15 74.4645 72.8703C74.2164 72.6217 74.0923 72.2457 74.0923 71.7174V70.294C74.0923 70.2536 74.1233 70.2225 74.1636 70.2225H74.4738C74.5141 70.2225 74.5451 70.2536 74.5451 70.294V71.7174C74.5451 72.1121 74.6289 72.4042 74.8149 72.5906C75.0134 72.7989 75.3236 72.8921 75.7485 72.8921C76.3099 72.8921 76.8588 72.7367 77.2217 72.5906V70.294C77.2217 70.2536 77.2527 70.2225 77.2931 70.2225H77.6032C77.6342 70.2225 77.6746 70.2536 77.6746 70.294V74.8065L77.6777 74.8034Z" fill="#0B0B0B"/>
<path d="M82.9689 74.1569C83.0402 74.1165 83.0619 74.1258 83.0929 74.1662L83.1953 74.3745C83.217 74.4149 83.1953 74.4459 83.155 74.477C82.7704 74.7163 82.116 74.9774 81.3902 74.9774C80.6241 74.9774 79.979 74.6852 79.5448 74.1756C79.1819 73.7591 78.9741 73.178 78.9741 72.4912C78.9741 71.8043 79.1819 71.2543 79.5665 70.8285C79.9511 70.3934 80.5218 70.123 81.2692 70.123C82.0167 70.123 82.5347 70.4152 82.8975 70.8409C83.2511 71.2449 83.4465 71.8385 83.4279 72.5471C83.4279 72.6093 83.3876 72.6403 83.3225 72.6403H79.4424C79.4735 73.1718 79.6192 73.5851 79.8891 73.9176C80.2302 74.3558 80.7699 74.6138 81.415 74.6138C82.0601 74.6138 82.5998 74.3962 82.972 74.1569H82.9689ZM82.9782 72.286C82.9689 71.7546 82.7921 71.3289 82.5316 71.0398C82.2524 70.7291 81.8058 70.4898 81.2661 70.4898C80.6427 70.4898 80.1775 70.7291 79.8767 71.102C79.6161 71.4034 79.4735 71.8416 79.4424 72.286H82.9813H82.9782Z" fill="#0B0B0B"/>
<path d="M87.0472 73.9705C86.9945 73.9705 86.9635 73.9487 86.9232 73.8866L85.1491 70.9746V74.8003C85.1491 74.8407 85.1181 74.8717 85.0778 74.8717H84.7769C84.7366 74.8717 84.7056 74.8407 84.7056 74.8003V70.2878C84.7056 70.2474 84.7366 70.2163 84.7769 70.2163H85.0871C85.1491 70.2163 85.1801 70.2163 85.2235 70.2878L87.1434 73.4484L89.0508 70.2878C89.0911 70.2163 89.1221 70.2163 89.1873 70.2163H89.5098C89.5408 70.2163 89.5719 70.2474 89.5719 70.2878V74.8003C89.5719 74.8407 89.5408 74.8717 89.5098 74.8717H89.1997C89.1687 74.8717 89.1377 74.8407 89.1377 74.8003V70.9746L87.3636 73.8866C87.3233 73.9487 87.2922 73.9705 87.2395 73.9705H87.0534H87.0472Z" fill="#0B0B0B"/>
<path d="M96.1039 73.9705C96.0511 73.9705 96.0201 73.9487 95.9798 73.8866L94.2057 70.9746V74.8003C94.2057 74.8407 94.1747 74.8717 94.1344 74.8717H93.8335C93.7932 74.8717 93.7622 74.8407 93.7622 74.8003V70.2878C93.7622 70.2474 93.7932 70.2163 93.8335 70.2163H94.1437C94.2057 70.2163 94.2367 70.2163 94.2802 70.2878L96.2 73.4484L98.1074 70.2878C98.1478 70.2163 98.1788 70.2163 98.2439 70.2163H98.5665C98.5975 70.2163 98.6285 70.2474 98.6285 70.2878V74.8003C98.6285 74.8407 98.5975 74.8717 98.5665 74.8717H98.2563C98.2253 74.8717 98.1943 74.8407 98.1943 74.8003V70.9746L96.4202 73.8866C96.3799 73.9487 96.3489 73.9705 96.2961 73.9705H96.1101H96.1039Z" fill="#0B0B0B"/>
<path d="M100.356 70.9248C100.294 70.9559 100.263 70.9559 100.241 70.903L100.136 70.7041C100.114 70.6513 100.136 70.6202 100.176 70.5891C100.707 70.2659 101.296 70.1199 101.888 70.1199C102.322 70.1199 102.853 70.2038 103.194 70.6078C103.424 70.8875 103.579 71.2822 103.579 71.8975V74.7971C103.579 74.8375 103.538 74.8685 103.507 74.8685H103.237C103.197 74.8685 103.166 74.8375 103.166 74.7971V74.5982H103.126C102.626 74.8779 102.202 74.9711 101.643 74.9711C101.24 74.9711 100.793 74.8779 100.462 74.6603C100.13 74.4521 99.9126 74.1196 99.9126 73.6317C99.9126 72.9759 100.316 72.6123 100.908 72.3948C101.594 72.1555 102.474 72.1026 103.129 72.0715V71.8944C103.129 71.3847 103.036 71.0833 102.837 70.8533C102.589 70.5519 102.205 70.4804 101.851 70.4804C101.24 70.4804 100.772 70.6793 100.356 70.9155V70.9248ZM103.126 74.2532V72.4227C102.626 72.4227 101.839 72.4631 101.259 72.6403C100.728 72.7957 100.334 73.0754 100.334 73.6068C100.334 73.9797 100.52 74.2314 100.803 74.3868C101.063 74.5547 101.414 74.6168 101.758 74.6168C102.267 74.6168 102.713 74.5018 103.129 74.2532H103.126Z" fill="#0B0B0B"/>
<path d="M106.426 70.123C107.195 70.123 107.89 70.3406 108.367 70.7664C108.836 71.1704 109.115 71.7764 109.115 72.5347C109.115 73.293 108.876 73.8865 108.523 74.2719C108.045 74.7723 107.372 74.9774 106.82 74.9774C106.268 74.9774 105.939 74.9059 105.545 74.707V77.1932C105.545 77.2336 105.505 77.2647 105.474 77.2647H105.164C105.123 77.2647 105.092 77.2336 105.092 77.1932V70.353C105.092 70.2909 105.114 70.2598 105.176 70.238C105.53 70.1666 105.986 70.123 106.432 70.123H106.426ZM105.545 74.3247C105.93 74.5236 106.24 74.6044 106.78 74.6044C107.217 74.6044 107.753 74.4491 108.15 74.0419C108.461 73.7094 108.668 73.2091 108.668 72.5347C108.668 71.9007 108.451 71.4128 108.076 71.0585C107.691 70.6949 107.111 70.496 106.457 70.496C106.156 70.496 105.815 70.5177 105.545 70.5675V74.3216V74.3247Z" fill="#0B0B0B"/>
<path d="M114.009 70.2163C114.08 70.2163 114.111 70.2691 114.04 70.3406L112.036 72.5129L114.102 74.7599C114.155 74.822 114.133 74.8748 114.071 74.8748H113.699C113.637 74.8748 113.606 74.8531 113.562 74.8034L111.652 72.7336H110.855V74.8034C110.855 74.8438 110.824 74.8748 110.793 74.8748H110.482C110.442 74.8748 110.411 74.8438 110.411 74.8034V70.2909C110.411 70.2505 110.442 70.2194 110.482 70.2194H110.793C110.824 70.2194 110.855 70.2505 110.855 70.2909V72.3389H111.633L113.513 70.2909C113.553 70.2381 113.584 70.2194 113.658 70.2194H114.012L114.009 70.2163Z" fill="#0B0B0B"/>
<path d="M118.875 74.1569C118.947 74.1165 118.969 74.1258 119 74.1662L119.105 74.3745C119.127 74.4149 119.105 74.4459 119.065 74.477C118.68 74.7163 118.026 74.9774 117.3 74.9774C116.531 74.9774 115.889 74.6852 115.454 74.1756C115.092 73.7591 114.884 73.178 114.884 72.4912C114.884 71.8043 115.092 71.2543 115.476 70.8285C115.861 70.3934 116.431 70.123 117.179 70.123C117.926 70.123 118.444 70.4152 118.807 70.8409C119.161 71.2449 119.356 71.8385 119.338 72.5471C119.338 72.6093 119.297 72.6403 119.232 72.6403H115.352C115.383 73.1718 115.529 73.5851 115.799 73.9176C116.14 74.3558 116.68 74.6138 117.325 74.6138C117.97 74.6138 118.506 74.3962 118.882 74.1569H118.875ZM118.885 72.286C118.875 71.7546 118.699 71.3289 118.438 71.0398C118.159 70.7291 117.712 70.4898 117.173 70.4898C116.549 70.4898 116.084 70.7291 115.783 71.102C115.523 71.4034 115.377 71.8416 115.346 72.286H118.885Z" fill="#0B0B0B"/>
<path d="M124.216 70.2163C124.247 70.2163 124.278 70.2474 124.278 70.2878V70.5364C124.278 70.5768 124.247 70.6079 124.216 70.6079H122.318V74.7971C122.318 74.8376 122.287 74.8686 122.246 74.8686H121.936C121.905 74.8686 121.874 74.8376 121.874 74.7971V70.6079H119.976C119.936 70.6079 119.905 70.5768 119.905 70.5364V70.2878C119.905 70.2474 119.936 70.2163 119.976 70.2163H124.219H124.216Z" fill="#0B0B0B"/>
<path d="M128.98 70.2163C129.02 70.2163 129.051 70.2474 129.051 70.2878V74.8003C129.051 74.8407 129.02 74.8717 128.98 74.8717H128.679C128.639 74.8717 128.608 74.8407 128.608 74.8003V70.611H125.609V74.8003C125.609 74.8407 125.578 74.8717 125.547 74.8717H125.236C125.196 74.8717 125.165 74.8407 125.165 74.8003V70.2878C125.165 70.2474 125.196 70.2163 125.236 70.2163H128.983H128.98Z" fill="#0B0B0B"/>
<path d="M131.126 73.4701C130.99 73.9891 130.816 74.4583 130.547 74.8002C130.494 74.8624 130.463 74.8717 130.391 74.8717H130.131C130.06 74.8717 130.047 74.8188 130.091 74.7567C130.382 74.3713 130.568 73.8927 130.702 73.3831C130.919 72.5315 130.971 71.5433 130.971 70.6793V70.3064C130.971 70.2535 131.012 70.2131 131.064 70.2131H134.312C134.352 70.2131 134.383 70.2442 134.383 70.2846V74.7971C134.383 74.8375 134.352 74.8686 134.312 74.8686H134.011C133.971 74.8686 133.94 74.8375 133.94 74.7971V70.6078H131.418C131.396 71.4718 131.356 72.5626 131.126 73.467V73.4701Z" fill="#0B0B0B"/>
<path d="M139.674 74.1569C139.746 74.1165 139.767 74.1258 139.798 74.1662L139.904 74.3745C139.926 74.4149 139.904 74.4459 139.863 74.477C139.479 74.7163 138.824 74.9774 138.099 74.9774C137.33 74.9774 136.688 74.6852 136.253 74.1756C135.89 73.7591 135.683 73.178 135.683 72.4912C135.683 71.8043 135.89 71.2543 136.275 70.8285C136.66 70.3934 137.23 70.123 137.978 70.123C138.725 70.123 139.243 70.4152 139.606 70.8409C139.96 71.2449 140.155 71.8385 140.136 72.5471C140.136 72.6093 140.096 72.6403 140.031 72.6403H136.151C136.182 73.1718 136.328 73.5851 136.598 73.9176C136.939 74.3558 137.478 74.6138 138.124 74.6138C138.769 74.6138 139.305 74.3962 139.68 74.1569H139.674ZM139.684 72.286C139.674 71.7546 139.497 71.3289 139.237 71.0398C138.958 70.7291 138.511 70.4898 137.972 70.4898C137.348 70.4898 136.883 70.7291 136.582 71.102C136.322 71.4034 136.176 71.8416 136.145 72.286H139.684Z" fill="#0B0B0B"/>
<path d="M145.744 74.8034C145.744 74.8438 145.703 74.8748 145.672 74.8748H145.362C145.322 74.8748 145.291 74.8438 145.291 74.8034V71.1113L141.867 74.4801V74.8034C141.867 74.8438 141.827 74.8748 141.796 74.8748H141.485C141.445 74.8748 141.414 74.8438 141.414 74.8034V70.2909C141.414 70.2505 141.445 70.2194 141.485 70.2194H141.796C141.827 70.2194 141.867 70.2505 141.867 70.2909V73.9922L145.291 70.6234V70.2909C145.291 70.2505 145.322 70.2194 145.362 70.2194H145.672C145.703 70.2194 145.744 70.2505 145.744 70.2909V74.8034ZM144.466 67.5374C144.466 67.4846 144.497 67.4535 144.55 67.4535H144.705C144.767 67.4535 144.798 67.4939 144.798 67.5374C144.798 68.1931 144.329 68.7121 143.563 68.7121C142.797 68.7121 142.329 68.1931 142.329 67.5374C142.329 67.497 142.36 67.4535 142.422 67.4535H142.577C142.617 67.4535 142.648 67.4846 142.661 67.5374C142.692 68.0253 142.993 68.3579 143.563 68.3579C144.134 68.3579 144.435 68.0253 144.466 67.5374Z" fill="#0B0B0B"/>
<path d="M150.712 74.2936C150.774 74.2626 150.805 74.2719 150.827 74.303L150.942 74.5329C150.973 74.5733 150.951 74.5951 150.911 74.6262C150.526 74.8748 150.008 74.9804 149.5 74.9804C148.752 74.9804 148.129 74.7411 147.694 74.3061C147.291 73.8803 147.04 73.2867 147.04 72.5502C147.04 71.9255 147.248 71.3848 147.58 70.9901C148.048 70.44 148.752 70.1385 149.5 70.1385C150.008 70.1385 150.508 70.2753 150.889 70.5239C150.929 70.5457 150.951 70.5767 150.92 70.6265L150.796 70.844C150.787 70.8844 150.743 70.8968 150.691 70.8658C150.306 70.6265 149.912 70.5239 149.496 70.5239C148.895 70.5239 148.333 70.7725 147.952 71.2294C147.673 71.5619 147.496 72.0187 147.496 72.5502C147.496 73.1748 147.704 73.6845 148.045 74.0357C148.399 74.3993 148.907 74.6075 149.509 74.6075C149.924 74.6075 150.328 74.536 150.712 74.2967V74.2936Z" fill="#0B0B0B"/>
<path d="M87.2648 40.1207H81.5114C81.316 40.1207 81.1641 39.9684 81.1641 39.7944V25.682C81.1641 25.508 81.316 25.3557 81.5114 25.3557H85.9683C87.1996 25.3557 88.4775 25.508 89.5599 26.288C90.4035 26.9158 90.9866 27.8481 90.9866 29.1068C90.9866 30.6016 90.3384 31.708 89.1474 32.2518V32.3389C91.2471 32.8361 92.1993 34.1818 92.1993 36.1334C92.1993 38.8869 89.7336 40.1238 87.2679 40.1238L87.2648 40.1207ZM87.1779 28.2397C86.8305 28.0004 86.3994 27.8916 85.9435 27.8916H84.278V31.3599H85.7481C86.1358 31.3599 86.6134 31.3382 87.0259 31.1424C87.5005 30.9031 87.8478 30.4276 87.8478 29.6475C87.8478 28.9763 87.5873 28.5194 87.1779 28.2397ZM87.9998 34.1351C87.5656 33.9176 87.0042 33.8741 86.1606 33.8741H84.278V37.5817H86.5917C87.088 37.5817 87.5873 37.5381 87.975 37.3641C88.5798 37.1031 89.014 36.6276 89.014 35.717C89.014 35.0457 88.7101 34.4584 87.9967 34.1351H87.9998Z" fill="#79B72A"/>
<path d="M107.601 25.3589C107.949 25.3589 107.989 25.6199 107.819 25.8561L102.388 32.5316L107.992 39.5551C108.209 39.8379 108.166 40.1176 107.84 40.1176H104.919C104.636 40.1176 104.463 40.0306 104.292 39.7913L99.8352 34.0886H98.7528V39.7913C98.7528 39.9654 98.6225 40.1176 98.4271 40.1176H95.9831C95.7877 40.1176 95.6357 39.9654 95.6357 39.7913V25.679C95.6357 25.5049 95.7877 25.3527 95.9831 25.3527H98.4271C98.6225 25.3527 98.7528 25.5049 98.7528 25.679V31.3165H99.8135L104.205 25.679C104.379 25.4614 104.553 25.3527 104.832 25.3527H107.601V25.3589Z" fill="#79B72A"/>
<path d="M111.863 37.4542C112.62 37.4542 113.184 37.3454 113.68 37.0844C114.112 36.8451 114.459 36.5001 114.828 36.0433L109.527 25.8125C109.419 25.6385 109.441 25.3588 109.766 25.3588H112.514C112.818 25.3588 112.97 25.5328 113.076 25.7286L116.407 32.8609L119.393 25.7286C119.48 25.511 119.654 25.3588 119.933 25.3588H122.529C122.876 25.3588 122.898 25.6416 122.79 25.8125L118.354 35.72C117.815 36.9569 117.163 37.9079 116.363 38.6258C115.172 39.7104 113.724 40.1206 112.21 40.1206H111.084C110.911 40.1206 110.759 39.9684 110.759 39.7943V37.7774C110.759 37.5816 110.911 37.4511 111.084 37.4511H111.863V37.4542Z" fill="#79B72A"/>
<path d="M124.821 32.7274C124.821 28.4138 128.304 25.1631 132.717 25.1631C134.795 25.1631 136.157 25.6603 137.174 26.1824C137.391 26.313 137.413 26.4652 137.326 26.6362L136.331 28.7184C136.244 28.9142 136.07 28.9359 135.899 28.8489C134.991 28.3952 133.995 27.9818 132.655 27.9818C130.168 27.9818 128.09 30.0205 128.09 32.7305C128.09 35.4405 130.081 37.5009 132.677 37.5009C134.017 37.5009 135.099 37.1311 136.03 36.6338C136.225 36.5468 136.334 36.5468 136.421 36.7426L137.416 38.8683C137.503 39.0641 137.46 39.1946 137.264 39.2817C136.117 39.8659 134.712 40.3445 132.655 40.3445C127.894 40.3445 124.824 37.3952 124.824 32.7367L124.821 32.7274Z" fill="#79B72A"/>
<path d="M153.247 25.3588C153.42 25.3588 153.572 25.511 153.572 25.6851V39.7974C153.572 39.9715 153.42 40.1237 153.247 40.1237H150.781C150.607 40.1237 150.455 39.9715 150.455 39.7974V34.076H143.75V39.7974C143.75 39.9715 143.62 40.1237 143.424 40.1237H140.98C140.785 40.1237 140.633 39.9715 140.633 39.7974V25.6851C140.633 25.511 140.785 25.3588 140.98 25.3588H143.424C143.62 25.3588 143.75 25.511 143.75 25.6851V31.3226H150.455V25.6851C150.455 25.511 150.607 25.3588 150.781 25.3588H153.247Z" fill="#79B72A"/>
<path d="M164.887 40.3382C160.473 40.3382 156.99 37.3455 156.99 32.7739C156.99 28.2024 160.473 25.1661 164.887 25.1661C169.3 25.1661 172.762 28.2211 172.762 32.7739C172.762 37.3268 169.3 40.3382 164.887 40.3382ZM164.887 28.0905C162.247 28.0905 160.3 30.1292 160.3 32.7739C160.3 35.4187 162.247 37.4356 164.887 37.4356C167.526 37.4356 169.452 35.4187 169.452 32.7739C169.452 30.1292 167.526 28.0905 164.887 28.0905Z" fill="#79B72A"/>
<path d="M96.0914 59.8021C96.0914 59.9109 96.0046 59.9979 95.896 59.9979H94.6182C94.5096 59.9979 94.4228 59.9109 94.4228 59.8021V48.2474L89.5534 56.2468C89.4448 56.4209 89.358 56.4644 89.206 56.4644H88.2538C88.0801 56.4644 88.015 56.4209 87.9065 56.2468L82.9967 48.2474V59.8021C82.9967 59.9109 82.9099 59.9979 82.8014 59.9979H81.5235C81.415 59.9979 81.3281 59.9109 81.3281 59.8021V45.4505C81.3281 45.3417 81.415 45.2329 81.5235 45.2329H82.8882C83.0619 45.2329 83.1487 45.2547 83.2573 45.4505L88.688 54.4692L94.1405 45.4505C94.2708 45.2547 94.3576 45.2329 94.5282 45.2329H95.8929C96.0015 45.2329 96.0883 45.3417 96.0883 45.4505V59.8021H96.0914Z" fill="#E9571C"/>
<path d="M101.24 59.7804C101.196 59.9327 101.088 59.998 100.914 59.998H99.6146C99.4843 59.998 99.4409 59.9327 99.4409 59.8457C99.4409 59.8022 99.4409 59.7369 99.4843 59.6499L105.089 45.407C105.154 45.233 105.241 45.1677 105.414 45.1677H106.798C106.971 45.1677 107.058 45.233 107.123 45.407L112.706 59.6499C112.728 59.6934 112.771 59.8022 112.771 59.8457C112.771 59.9327 112.706 59.998 112.554 59.998H111.236C111.062 59.998 110.954 59.9327 110.91 59.7804L109.571 56.3557H102.583L101.243 59.7804H101.24ZM106.084 47.2717L103.032 54.9448H109.133L106.081 47.2717H106.084Z" fill="#E9571C"/>
<path d="M122.116 45.2361C123.394 45.2361 124.495 45.4754 125.512 46.2772C126.595 47.1225 127.243 48.4247 127.243 50.0935C127.243 51.7624 126.53 53.1733 125.36 54.0186C124.343 54.7769 123.133 54.951 121.899 54.951H117.855V59.8053C117.855 59.9141 117.746 60.0011 117.638 60.0011H116.319C116.211 60.0011 116.124 59.9141 116.124 59.8053V45.4536C116.124 45.3449 116.211 45.2361 116.319 45.2361H122.116ZM124.238 47.424C123.568 46.9267 122.789 46.7527 121.859 46.7527H117.858V53.4281H121.623C122.532 53.4281 123.441 53.3194 124.154 52.8439C124.976 52.2814 125.494 51.3055 125.494 50.0904C125.494 48.8753 125.019 47.9647 124.238 47.424Z" fill="#E9571C"/>
<path d="M142.063 45.2361C142.301 45.2361 142.345 45.4101 142.193 45.5624L136.049 52.4989L142.323 59.653C142.475 59.827 142.432 60.0011 142.236 60.0011H140.679C140.484 60.0011 140.397 59.9576 140.292 59.8053L134.622 53.366H133.022V59.8053C133.022 59.9141 132.913 60.0011 132.805 60.0011H131.486C131.378 60.0011 131.291 59.9141 131.291 59.8053V45.4536C131.291 45.3449 131.378 45.2361 131.486 45.2361H132.805C132.913 45.2361 133.022 45.3449 133.022 45.4536V51.8494H134.6L140.205 45.4536C140.292 45.3014 140.4 45.2361 140.592 45.2361H142.063Z" fill="#E9571C"/>
<path d="M156.472 45.2361C156.58 45.2361 156.667 45.3449 156.667 45.4536V46.56C156.667 46.6905 156.58 46.7775 156.472 46.7775H147.862V51.8494H155.346C155.454 51.8494 155.541 51.9364 155.541 52.0452V53.1733C155.541 53.2821 155.454 53.3691 155.346 53.3691H147.862V58.4627H156.472C156.58 58.4627 156.667 58.5715 156.667 58.6803V59.8084C156.667 59.9172 156.58 60.0042 156.472 60.0042H146.323C146.215 60.0042 146.128 59.9172 146.128 59.8084V45.4567C146.128 45.348 146.215 45.2392 146.323 45.2392H156.472V45.2361Z" fill="#E9571C"/>
<path d="M170.987 45.2361C171.095 45.2361 171.182 45.3449 171.182 45.4536V46.56C171.182 46.6905 171.095 46.7775 170.987 46.7775H166.034V59.8053C166.034 59.9141 165.947 60.0011 165.817 60.0011H164.517C164.387 60.0011 164.3 59.9141 164.3 59.8053V46.7775H159.347C159.238 46.7775 159.151 46.6905 159.151 46.56V45.4536C159.151 45.3449 159.238 45.2361 159.347 45.2361H170.987Z" fill="#E9571C"/>
</svg>
