<svg width="52" height="52" viewBox="0 0 52 52" fill="none" xmlns="http://www.w3.org/2000/svg">
<path fill-rule="evenodd" clip-rule="evenodd" d="M26.0002 9.2251C23.6296 7.36184 20.7827 6.2031 17.7847 5.88133C14.7866 5.55954 11.7585 6.08776 9.04644 7.40559C6.33438 8.72342 4.04782 10.7777 2.44808 13.3336C0.848352 15.8896 0 18.844 0 21.8593C0 24.8746 0.848352 27.829 2.44808 30.385C4.04782 32.9409 6.33438 34.9952 9.04644 36.313C11.7585 37.6309 14.7866 38.1591 17.7847 37.8373C20.7827 37.5155 23.6297 36.3568 26.0003 34.4935C28.3708 36.3567 31.2177 37.5154 34.2155 37.8372C37.2136 38.159 40.2416 37.6307 42.9536 36.3129C45.6656 34.9951 47.9521 32.9408 49.5517 30.3848C51.1514 27.8289 51.9996 24.8745 51.9995 21.8592C51.9996 18.844 51.1514 15.8896 49.5517 13.3337C47.9521 10.7777 45.6656 8.72345 42.9536 7.40561C40.2416 6.08777 37.2136 5.55955 34.2155 5.88133C31.2176 6.2031 28.3707 7.36183 26.0002 9.2251ZM21.4753 14.8348C20.4119 17.0237 19.8605 19.4258 19.8627 21.8593C19.8605 24.2928 20.4119 26.6949 21.4753 28.8838C22.5386 31.0726 24.086 32.9907 26.0001 34.4931C27.9127 32.9892 29.4589 31.0707 30.522 28.8822C31.5852 26.6937 32.1376 24.2924 32.1376 21.8592C32.1376 19.4261 31.5852 17.0248 30.522 14.8363C29.4589 12.6479 27.9127 10.7293 26.0002 9.22542C24.086 10.7278 22.5386 12.646 21.4753 14.8348ZM28.6292 34.3228C30.3868 35.3524 32.349 36.0025 34.389 36.2215C37.0838 36.5107 39.8057 36.0359 42.2434 34.8513C44.6811 33.6667 46.7364 31.8202 48.1743 29.5227C49.6122 27.2253 50.3746 24.5696 50.3745 21.8593C50.3746 19.149 49.6122 16.4932 48.1743 14.1958C46.7364 11.8983 44.6811 10.0518 42.2434 8.86718C39.8057 7.68261 37.0838 7.2078 34.389 7.49704C32.349 7.716 30.3868 8.3661 28.6292 9.39571C29.9964 10.7739 31.1311 12.3712 31.9837 14.1262C33.1544 16.536 33.7626 19.1801 33.7626 21.8592C33.7626 24.5384 33.1544 27.1825 31.9837 29.5923C31.1311 31.3473 29.9964 32.9446 28.6292 34.3228Z" fill="#79B72A"/>
<path d="M15.7208 43.3348V46.0093H14.7847V43.6379C14.7847 42.9159 14.4816 42.5148 13.8487 42.5148C13.7022 42.508 13.5559 42.5334 13.4202 42.5892C13.2846 42.645 13.1627 42.7298 13.0633 42.8377C12.9639 42.9456 12.8894 43.074 12.8448 43.2137C12.8003 43.3535 12.787 43.5014 12.8057 43.6469V46.0093H11.8696V43.6379C11.8696 42.9159 11.5576 42.5148 10.9425 42.5148C10.7955 42.5065 10.6486 42.5309 10.5122 42.5862C10.3758 42.6415 10.2533 42.7263 10.1536 42.8345C10.0539 42.9428 9.97938 43.0717 9.93543 43.2122C9.89149 43.3526 9.8792 43.5011 9.89944 43.6469V46.0093H8.96339V41.748H9.89056V42.274C10.0255 42.0689 10.2116 41.9027 10.4305 41.7916C10.6494 41.6806 10.8935 41.6287 11.1386 41.641C11.4198 41.629 11.6991 41.693 11.947 41.8264C12.1949 41.9597 12.4022 42.1575 12.5472 42.3988C12.7062 42.1501 12.9291 41.9486 13.1925 41.8153C13.4559 41.682 13.7502 41.6218 14.0448 41.641C14.2699 41.6277 14.4952 41.6626 14.7058 41.7432C14.9164 41.8239 15.1073 41.9485 15.2659 42.1088C15.4245 42.2691 15.5471 42.4614 15.6255 42.6728C15.704 42.8842 15.7364 43.1099 15.7208 43.3348Z" fill="#79B72A"/>
<path fill-rule="evenodd" clip-rule="evenodd" d="M20.9449 41.748V46.0093H20.0177V45.4922C19.8594 45.6962 19.6546 45.8593 19.4204 45.9678C19.1862 46.0764 18.9294 46.1273 18.6715 46.1163C18.097 46.0881 17.5554 45.8401 17.1588 45.4235C16.7622 45.007 16.541 44.4538 16.541 43.8787C16.541 43.3035 16.7622 42.7503 17.1588 42.3338C17.5554 41.9172 18.097 41.6692 18.6715 41.641C18.9294 41.63 19.1862 41.6809 19.4204 41.7895C19.6546 41.898 19.8594 42.0611 20.0177 42.2651V41.748H20.9449ZM17.747 43.1832C17.5969 43.3854 17.5092 43.6271 17.4949 43.8786C17.483 44.0547 17.5078 44.2314 17.5676 44.3975C17.6274 44.5636 17.721 44.7155 17.8424 44.8437C17.9638 44.9718 18.1105 45.0734 18.2732 45.1421C18.4358 45.2107 18.6109 45.2449 18.7874 45.2426C19.0393 45.2417 19.2854 45.1671 19.4954 45.0281C19.7054 44.889 19.8701 44.6915 19.9692 44.46C20.0683 44.2285 20.0974 43.973 20.0531 43.725C20.0087 43.4771 19.8928 43.2476 19.7195 43.0648C19.5463 42.882 19.3233 42.7539 19.0781 42.6963C18.833 42.6387 18.5763 42.6541 18.3397 42.7406C18.1032 42.8271 17.8972 42.981 17.747 43.1832Z" fill="#79B72A"/>
<path fill-rule="evenodd" clip-rule="evenodd" d="M41.6977 41.8074C41.407 41.6912 41.0963 41.633 40.7833 41.636C40.4702 41.633 40.1596 41.6912 39.8688 41.8074C39.5983 41.9152 39.3518 42.0755 39.1435 42.279C38.9388 42.4817 38.7762 42.7229 38.6652 42.9887C38.4339 43.5594 38.4339 44.1978 38.6652 44.7685C38.7761 45.0344 38.9387 45.2757 39.1435 45.4783C39.3518 45.6819 39.5983 45.8421 39.8688 45.9499C40.4571 46.1784 41.1095 46.1784 41.6977 45.9499C41.9687 45.8418 42.2159 45.6816 42.4251 45.4783C42.6312 45.2762 42.7946 45.0349 42.9057 44.7685C43.1372 44.1978 43.1372 43.5594 42.9057 42.9887C42.7946 42.7224 42.6311 42.4811 42.4251 42.279C42.2158 42.0758 41.9687 41.9155 41.6977 41.8074ZM40.2539 42.6128C40.4221 42.545 40.6019 42.511 40.7833 42.5127C40.9646 42.511 41.1445 42.545 41.3127 42.6128C41.4717 42.6768 41.6162 42.7721 41.7377 42.893C41.8599 43.0165 41.956 43.1633 42.0203 43.3247C42.1568 43.6814 42.1568 44.076 42.0203 44.4327C41.9561 44.5941 41.8599 44.7409 41.7377 44.8643C41.6163 44.9853 41.4717 45.0806 41.3127 45.1446C40.9724 45.2781 40.5942 45.2781 40.2539 45.1446C40.0953 45.081 39.9514 44.9856 39.8311 44.8643C39.71 44.7404 39.6146 44.5937 39.5508 44.4327C39.4143 44.076 39.4143 43.6814 39.5508 43.3247C39.6147 43.1637 39.71 43.0169 39.8311 42.893C39.9515 42.7718 40.0953 42.6764 40.2539 42.6128Z" fill="#79B72A"/>
<path fill-rule="evenodd" clip-rule="evenodd" d="M23.9661 41.641C25.1607 41.641 25.9809 42.5503 25.9898 43.8786C25.9898 44.0035 25.9809 44.1193 25.972 44.2352H22.8072C22.8426 44.5406 22.9954 44.8202 23.2334 45.0149C23.4713 45.2096 23.7757 45.304 24.082 45.2782C24.5331 45.2714 24.9691 45.1146 25.3212 44.8325L25.7758 45.519C25.2866 45.926 24.6646 46.1386 24.0285 46.1163C23.4497 46.1021 22.8988 45.8642 22.4916 45.4526C22.0843 45.041 21.8523 44.4876 21.8442 43.9087C21.8361 43.3297 22.0526 42.7701 22.4483 42.3473C22.8439 41.9245 23.3879 41.6713 23.9661 41.641ZM23.1716 42.7565C22.96 42.9498 22.8324 43.2181 22.8161 43.5042H25.027C25.0206 43.2242 24.9035 42.9581 24.7013 42.7643C24.4991 42.5705 24.2283 42.4647 23.9483 42.4701C23.6619 42.4605 23.3831 42.5633 23.1716 42.7565Z" fill="#79B72A"/>
<path d="M28.566 42.4701C29.0326 42.4771 29.4897 42.603 29.8942 42.8357L30.2954 42.0868C29.7707 41.7747 29.1672 41.62 28.557 41.641C27.4783 41.641 26.783 42.1581 26.783 43.005C26.783 43.7004 27.3001 44.1283 28.2539 44.262L28.6908 44.3244C29.1989 44.3957 29.4396 44.5294 29.4396 44.7701C29.4396 45.1 29.1008 45.2872 28.4679 45.2872C27.9588 45.3018 27.4595 45.1448 27.0504 44.8414L26.6136 45.5635C27.1536 45.9407 27.8005 46.1345 28.459 46.1163C29.6892 46.1163 30.4023 45.5368 30.4023 44.7255C30.4023 43.9767 29.8408 43.5844 28.9136 43.4507L28.4768 43.3883C28.0756 43.3348 27.7547 43.2547 27.7547 42.9694C27.7547 42.6573 28.0578 42.4701 28.566 42.4701Z" fill="#79B72A"/>
<path d="M32.8337 42.5949H34.3492V41.748H32.8337L32.8334 40.4554H31.8974L31.8977 41.748H31.0329V42.5949H31.8977V44.5383C31.8977 45.5279 32.281 46.1163 33.3775 46.1163C33.7871 46.1175 34.1888 46.0032 34.5364 45.7865L34.269 44.993C34.0203 45.1413 33.7382 45.2241 33.4488 45.2337C32.9852 45.2337 32.8337 44.9484 32.8337 44.5206V42.5949Z" fill="#79B72A"/>
<path d="M38.2175 41.757C38.0058 41.6811 37.7827 41.6419 37.5578 41.641C37.3317 41.6343 37.1081 41.6888 36.9104 41.7986C36.7127 41.9085 36.5483 42.0696 36.4346 42.2651V41.748H35.5163V46.0093H36.4434V43.6201C36.4434 42.9159 36.7465 42.5236 37.3528 42.5236C37.5511 42.5209 37.748 42.5572 37.9322 42.6306L38.2175 41.757Z" fill="#79B72A"/>
<path fill-rule="evenodd" clip-rule="evenodd" d="M44.1183 45.6484C44.0845 45.6237 44.0431 45.6118 44.0013 45.6145H43.8195V46.0085H43.9037V45.8608H43.9421L44.0617 46.0085H44.1625L44.0336 45.8598C44.0681 45.8575 44.1008 45.8438 44.1266 45.8208C44.1374 45.8104 44.1459 45.7979 44.1515 45.784C44.1572 45.7702 44.1598 45.7553 44.1593 45.7403C44.1601 45.7229 44.1568 45.7055 44.1497 45.6895C44.1425 45.6735 44.1318 45.6595 44.1183 45.6484ZM43.9037 45.7934V45.6883H44.0003C44.0189 45.6874 44.0373 45.6919 44.0534 45.7013C44.0566 45.7033 44.0594 45.7058 44.062 45.7086C44.0645 45.7115 44.0667 45.7147 44.0684 45.7182C44.0719 45.725 44.0735 45.7327 44.0731 45.7403C44.0736 45.7481 44.072 45.7559 44.0686 45.7629C44.0651 45.7699 44.0599 45.7759 44.0534 45.7803C44.0374 45.7897 44.0189 45.7943 44.0003 45.7934H43.9037Z" fill="#79B72A"/>
<path fill-rule="evenodd" clip-rule="evenodd" d="M44.1443 45.4223C44.0911 45.3999 44.034 45.3886 43.9764 45.389C43.9177 45.3885 43.8596 45.3998 43.8054 45.4223C43.754 45.4433 43.7072 45.4742 43.6677 45.5132C43.6287 45.5519 43.5974 45.5978 43.5757 45.6484C43.5534 45.7003 43.5419 45.7563 43.5419 45.8128C43.5419 45.8694 43.5534 45.9254 43.5757 45.9773C43.6096 46.0552 43.6656 46.1214 43.7369 46.1676C43.8081 46.2139 43.8914 46.238 43.9764 46.2372C44.0341 46.2376 44.0912 46.2261 44.1443 46.2034C44.1953 46.1817 44.2419 46.1507 44.2815 46.1119C44.3206 46.0734 44.352 46.0277 44.374 45.9773C44.3963 45.9254 44.4078 45.8694 44.4078 45.8128C44.4078 45.7563 44.3963 45.7003 44.374 45.6484C44.3521 45.5978 44.3208 45.5519 44.2815 45.5132C44.242 45.4745 44.1954 45.4436 44.1443 45.4223ZM44.1043 46.1176C44.0639 46.1351 44.0204 46.144 43.9764 46.1436C43.9326 46.1438 43.8893 46.1354 43.8488 46.1188C43.8083 46.1022 43.7715 46.0778 43.7405 46.047C43.6788 45.9847 43.6442 45.9007 43.6442 45.8131C43.6442 45.7254 43.6788 45.6414 43.7405 45.5791C43.7707 45.5491 43.8065 45.5253 43.8459 45.5091C43.8873 45.4919 43.9316 45.4832 43.9764 45.4836C44.0203 45.4832 44.0639 45.4919 44.1043 45.5091C44.1541 45.5303 44.1979 45.5634 44.2319 45.6054C44.2659 45.6475 44.289 45.6973 44.2993 45.7504C44.3095 45.8035 44.3066 45.8583 44.2907 45.9101C44.2748 45.9618 44.2465 46.0088 44.2082 46.047C44.1783 46.0768 44.143 46.1008 44.1043 46.1176Z" fill="#79B72A"/>
<path d="M50.4669 31.8171V31.2998H50.6755V31.1944H50.1442V31.2998H50.3529V31.8171H50.4669Z" fill="#79B72A"/>
<path d="M51.4982 31.8171V31.1934H51.3354L51.1481 31.6224L50.9608 31.1934H50.7978V31.8171H50.9128V31.3466L51.0885 31.7522H51.2077L51.3833 31.3456V31.8171H51.4982Z" fill="#79B72A"/>
</svg>
