<svg width="25" height="25" viewBox="0 0 25 25" fill="none" xmlns="http://www.w3.org/2000/svg">
<path opacity="0.5" d="M2.5 12.5C2.5 7.78595 2.5 5.42893 3.96447 3.96447C5.42893 2.5 7.78595 2.5 12.5 2.5C17.214 2.5 19.5711 2.5 21.0355 3.96447C22.5 5.42893 22.5 7.78595 22.5 12.5C22.5 17.214 22.5 19.5711 21.0355 21.0355C19.5711 22.5 17.214 22.5 12.5 22.5C7.78595 22.5 5.42893 22.5 3.96447 21.0355C2.5 19.5711 2.5 17.214 2.5 12.5Z" fill="#79B72A"/>
<path d="M3.96451 21.0355C5.42902 22.5 7.78611 22.5 12.5003 22.5C17.2145 22.5 19.5716 22.5 21.0361 21.0355C22.3931 19.6785 22.4927 17.5551 22.5 13.5H19.3402C18.435 13.5 17.9824 13.5 17.5846 13.683C17.1868 13.8659 16.8922 14.2096 16.3031 14.8968L15.6977 15.6032L15.6977 15.6032C15.1086 16.2904 14.814 16.6341 14.4162 16.817C14.0184 17 13.5658 17 12.6606 17H12.34C11.4348 17 10.9822 17 10.5844 16.817C10.1866 16.6341 9.892 16.2904 9.30291 15.6032L8.69747 14.8968C8.10837 14.2096 7.81382 13.8659 7.41599 13.683C7.01815 13.5 6.56555 13.5 5.66035 13.5H2.5C2.5073 17.5551 2.60744 19.6785 3.96451 21.0355Z" fill="#79B72A"/>
<path d="M8.5 6.75C8.08579 6.75 7.75 7.08579 7.75 7.5C7.75 7.91421 8.08579 8.25 8.5 8.25H16.5C16.9142 8.25 17.25 7.91421 17.25 7.5C17.25 7.08579 16.9142 6.75 16.5 6.75H8.5Z" fill="#79B72A"/>
<path d="M10.5 10.25C10.0858 10.25 9.75 10.5858 9.75 11C9.75 11.4142 10.0858 11.75 10.5 11.75H14.5C14.9142 11.75 15.25 11.4142 15.25 11C15.25 10.5858 14.9142 10.25 14.5 10.25H10.5Z" fill="#79B72A"/>
</svg>
