<svg width="16" height="16" viewBox="0 0 16 16" fill="none" xmlns="http://www.w3.org/2000/svg">
<path fill-rule="evenodd" clip-rule="evenodd" d="M7.12442 4.31936L6.69175 3.54407C6.10214 2.48758 4.62052 2.36281 3.69189 3.29145C3.13389 3.84945 2.6997 4.53303 2.67105 5.28868C2.63393 6.26806 2.81621 7.77392 3.89098 9.404L6.74316 6.55183C7.35814 5.93684 7.51489 5.01902 7.12442 4.31936ZM9.44815 9.25682L6.59598 12.109C8.22606 13.1838 9.73192 13.3661 10.7113 13.3289C11.467 13.3003 12.1505 12.8661 12.7085 12.3081C13.6372 11.3795 13.5124 9.89784 12.4559 9.30823L11.6806 8.87556C10.981 8.48509 10.0631 8.64184 9.44815 9.25682Z" fill="#A6A6A6"/>
<path opacity="0.5" d="M7.34964 8.65058C5.99715 7.29809 6.74311 6.55212 6.74311 6.55212L3.89093 9.4043C4.21216 9.8915 4.61312 10.3898 5.11177 10.8885C5.61042 11.3871 6.10872 11.7881 6.59592 12.1093L9.4481 9.25712C9.4481 9.25712 8.70212 10.003 7.34964 8.65058Z" fill="#A6A6A6"/>
</svg>
