<svg width="40" height="40" viewBox="0 0 40 40" fill="none" xmlns="http://www.w3.org/2000/svg">
<path fill-rule="evenodd" clip-rule="evenodd" d="M20 0.000488281C8.95431 0.000488281 0 8.95479 0 20.0005C0 31.0462 8.95431 40.0005 20 40.0005C31.0457 40.0005 40 31.0462 40 20.0005C40 8.95479 31.0457 0.000488281 20 0.000488281ZM31.839 12.7065C32.7213 12.7065 32.9068 13.1608 32.7213 13.7789V13.7791C32.3504 15.4791 28.7962 20.4861 28.7962 20.4861C28.487 20.9804 28.3634 21.2275 28.7962 21.7839C28.9485 21.9971 29.2735 22.3155 29.6454 22.6799C30.028 23.0547 30.4603 23.4781 30.805 23.8856C32.0583 25.2955 33.0026 26.4846 33.2656 27.3043C33.5061 28.1268 33.0893 28.5436 32.2558 28.5436H29.3385C28.5571 28.5436 28.1637 28.1059 27.314 27.1606C26.9535 26.7595 26.511 26.2672 25.9218 25.6781C24.1908 24.0092 23.4492 23.7929 23.0162 23.7929C22.4291 23.7929 22.2535 23.9592 22.2535 24.7927V27.4089C22.2535 28.1268 22.0243 28.5436 20.1697 28.5436C17.0789 28.5436 13.6827 26.6669 11.2717 23.2057C7.65569 18.137 6.6665 14.3044 6.6665 13.5317C6.6665 13.0989 6.83321 12.7065 7.66674 12.7065H10.5841C11.3297 12.7065 11.6102 13.0329 11.8898 13.8408C13.3168 17.9969 15.7224 21.6295 16.7113 21.6295C17.0823 21.6295 17.2523 21.4586 17.2523 20.5167V16.2205C17.1853 14.9977 16.7582 14.4689 16.4418 14.0772C16.2464 13.8353 16.0933 13.6456 16.0933 13.3771C16.0933 13.0508 16.3721 12.7065 16.8355 12.7065H21.4199C22.0382 12.7065 22.2535 13.037 22.2535 13.7789V19.5586C22.2535 20.1766 22.5219 20.3927 22.7073 20.3927C23.0782 20.3927 23.3873 20.1766 24.0672 19.4967C26.169 17.1478 27.6527 13.5317 27.6527 13.5317C27.8381 13.0989 28.1799 12.7065 28.9217 12.7065H31.839Z" fill="#79B72A"/>
</svg>
