<svg width="24" height="25" viewBox="0 0 24 25" fill="none" xmlns="http://www.w3.org/2000/svg">
<path opacity="0.5" d="M10.0234 2.5C9.05694 2.5 8.27344 3.2835 8.27344 4.25C8.27344 5.2165 9.05694 6 10.0234 6H14.0234C14.9899 6 15.7734 5.2165 15.7734 4.25C15.7734 3.2835 14.9899 2.5 14.0234 2.5H10.0234Z" fill="#79B72A"/>
<path opacity="0.5" d="M3.88671 16.7052C3.02876 13.2734 2.59979 11.5575 3.50062 10.4038C4.40145 9.25 6.17016 9.25 9.70756 9.25H14.3382C17.8757 9.25 19.6444 9.25 20.5452 10.4038C21.446 11.5575 21.0171 13.2734 20.1591 16.7052C19.6134 18.8879 19.3406 19.9792 18.5268 20.6146C17.713 21.25 16.5881 21.25 14.3382 21.25H9.70756C7.45771 21.25 6.33278 21.25 5.519 20.6146C4.70521 19.9792 4.43238 18.8879 3.88671 16.7052Z" fill="#79B72A"/>
<path d="M15.6039 5.0024C15.7126 4.7745 15.7734 4.5194 15.7734 4.25009C15.7734 3.98204 15.7132 3.72806 15.6055 3.50098C16.289 3.50595 16.8217 3.53732 17.2973 3.72318C17.8655 3.94525 18.3597 4.32275 18.7234 4.81251C19.0903 5.30659 19.2626 5.93988 19.4996 6.81153L19.546 6.9819L20.0587 9.94488C19.6501 9.66295 19.1231 9.49542 18.4414 9.39587L18.0801 7.30786C17.7964 6.26815 17.6934 5.94141 17.5191 5.70683C17.3233 5.44312 17.0572 5.23985 16.7512 5.12027C16.5314 5.03436 16.2658 5.00909 15.6039 5.0024Z" fill="#79B72A"/>
<path d="M8.44142 3.50098C8.3337 3.72807 8.27344 3.98204 8.27344 4.25009C8.27344 4.5194 8.33427 4.7745 8.44294 5.0024C7.78109 5.00909 7.51551 5.03436 7.29571 5.12027C6.98976 5.23985 6.72365 5.44312 6.5278 5.70683C6.35359 5.94141 6.25059 6.26815 5.96681 7.30786L5.60551 9.39578C4.92397 9.49527 4.39697 9.66269 3.98828 9.94442L4.50092 6.9819L4.54731 6.81154C4.78439 5.93989 4.95663 5.30659 5.32356 4.81251C5.68728 4.32275 6.18149 3.94525 6.74968 3.72318C7.22521 3.53733 7.75793 3.50595 8.44142 3.50098Z" fill="#79B72A"/>
</svg>
