<svg width="36" height="36" viewBox="0 0 36 36" fill="none" xmlns="http://www.w3.org/2000/svg">
<circle cx="18" cy="18" r="18" fill="#F5F4F2"/>
<path d="M13 28.5L15.5 29L16.5 29.5L18 28L20.5 25L22 22.5L23.5 20L24 16.5L23.5 15L24 14.5L27 12H28L29 11.5L29.5 10L28.5 9H26.5L27 8L26 6.5H25L24 7V8.5V9.5L21 12H20L15.5 12.5L11.5 14.5L8 17.5L6.5 20L8 23L9.5 25L13 28.5Z" fill="#FFE581"/>
<path d="M7.04045 18.9893C4.62569 21.406 14.6035 31.3939 17.0173 28.9773C19.2857 26.7062 9.30787 16.7191 7.04045 18.9893ZM13.3044 25.4998C13.0625 25.7425 12.2415 25.3135 11.4706 24.5426C10.6996 23.7716 10.2716 22.9497 10.5143 22.706C10.7562 22.4632 11.5771 22.8913 12.3481 23.6632C13.119 24.4351 13.5471 25.2561 13.3044 25.4998Z" stroke="#FFCD05" stroke-width="0.876107" stroke-linecap="round" stroke-linejoin="round"/>
<path d="M17.0191 29.3481C16.9237 29.3481 16.8282 29.3119 16.7559 29.2387C16.6123 29.0942 16.6123 28.8597 16.7559 28.7152C17.1572 28.314 16.9487 27.5236 16.7031 26.9314C16.0953 25.4655 14.5589 23.5002 12.6918 21.8008C10.8117 20.0893 8.99185 19.0265 7.94292 19.0265C7.66401 19.0265 7.4546 19.0997 7.30356 19.2508C7.16271 19.3916 6.93662 19.3962 6.79021 19.2619C6.64381 19.1275 6.62991 18.9014 6.75778 18.7495C10.4392 14.3916 15.1121 11.6849 18.9511 11.6849C19.7749 11.6849 20.5338 11.8119 21.2046 12.0621C21.8542 12.3049 22.4176 12.6607 22.8781 13.1212C23.3414 13.5863 23.6935 14.1451 23.9233 14.7845C25.1974 18.3371 22.589 24.0117 17.2767 29.2406C17.2044 29.3119 17.1108 29.3472 17.0163 29.3472L17.0191 29.3481ZM8.15234 18.2945C9.92495 18.4427 12.2498 20.3951 13.1922 21.2532C15.1344 23.0212 16.742 25.0875 17.3888 26.6479C17.5649 27.0732 17.6612 27.4383 17.7002 27.7534C22.1729 23.0137 24.3301 18.1101 23.2283 15.0365C23.0356 14.5009 22.7419 14.033 22.3564 13.6466C21.9719 13.262 21.4974 12.9627 20.948 12.758C20.3596 12.5384 19.6887 12.4272 18.9529 12.4272C16.2945 12.4272 12.1442 13.9904 8.15234 18.2945Z" fill="#FFCD05"/>
<path d="M23.5757 15.2819C23.5489 15.2819 23.522 15.2791 23.4951 15.2726C23.371 15.2448 23.27 15.1558 23.2273 15.0363C23.0346 14.5007 22.7409 14.0328 22.3554 13.6455C21.9708 13.2609 21.4964 12.9616 20.9469 12.7569C20.8969 12.7383 20.8524 12.7096 20.8144 12.6716L20.7866 12.6438C20.6421 12.4992 20.6421 12.2648 20.7866 12.1193L23.8167 9.08561C23.3098 7.92549 23.4933 7.19994 23.749 6.78853C24.0604 6.28723 24.6284 6 25.3067 6C26.1036 6 26.8513 6.40304 27.2118 7.02665C27.4638 7.46216 27.5185 7.97644 27.3804 8.52407C27.5565 8.48608 27.7288 8.46661 27.8984 8.46661C29.1651 8.46661 29.9221 9.51833 29.9221 10.5357C29.9221 11.4429 29.3069 12.3575 27.9327 12.3575C27.5935 12.3575 27.2201 12.3 26.8207 12.187L23.838 15.1725C23.7675 15.243 23.673 15.2809 23.5757 15.2809V15.2819ZM21.6845 12.2704C22.1358 12.4937 22.5361 12.7791 22.8799 13.1228C23.2125 13.4564 23.4868 13.8382 23.7008 14.2626L26.4538 11.5059C26.553 11.4068 26.6984 11.3725 26.8319 11.416C27.2405 11.5495 27.6111 11.6171 27.9336 11.6171C29.091 11.6171 29.1818 10.7897 29.1818 10.5367C29.1818 9.88436 28.7018 9.20885 27.8993 9.20885C27.5889 9.20885 27.2498 9.30428 26.8893 9.49331C26.7429 9.57022 26.5641 9.54056 26.4501 9.42196C26.3361 9.30335 26.3139 9.12361 26.3964 8.98091C26.7522 8.36193 26.8124 7.8152 26.5715 7.39915C26.3445 7.00627 25.8367 6.7431 25.3076 6.7431C24.8906 6.7431 24.5524 6.90345 24.38 7.18143C24.1345 7.57802 24.2105 8.22387 24.5959 9.00222C24.6664 9.14492 24.6386 9.31635 24.5264 9.42847L21.6864 12.2713L21.6845 12.2704Z" fill="#FFCD05"/>
<path d="M13.1091 25.938C12.5438 25.938 11.7562 25.3523 11.2086 24.8047C10.4441 24.0393 9.73526 22.9617 10.2523 22.4446C10.3329 22.364 10.4775 22.2686 10.7101 22.2686C11.2762 22.2686 12.0629 22.8542 12.6106 23.4018C13.375 24.1672 14.0839 25.2439 13.5668 25.7619C13.4862 25.8425 13.3417 25.938 13.1091 25.938ZM10.8444 23.0367C10.9269 23.2786 11.2002 23.7465 11.7331 24.2802C12.2464 24.7936 12.7199 25.0818 12.9756 25.1679C12.8932 24.9261 12.6198 24.4582 12.087 23.9244C11.5737 23.4111 11.1002 23.1229 10.8444 23.0358V23.0367Z" fill="#FFCD05"/>
<path d="M17.8823 23.5081C17.7683 23.5081 17.6562 23.4553 17.583 23.3571C16.1884 21.4566 14.5001 19.7674 12.5644 18.3357C12.3995 18.2144 12.3652 17.9817 12.4866 17.8177C12.608 17.6528 12.8406 17.6185 13.0046 17.7399C14.9996 19.216 16.7407 20.958 18.1797 22.9178C18.3011 23.0828 18.265 23.3144 18.1 23.4358C18.0343 23.484 17.9573 23.5081 17.8814 23.5081H17.8823Z" fill="#FFCD05"/>
<path d="M21.3441 24.1272C21.2172 24.1272 21.093 24.0614 21.0235 23.9438C20.1757 22.4955 19.1777 21.1277 18.0583 19.8796C17.9212 19.7276 17.9342 19.4932 18.0871 19.3561C18.239 19.2189 18.4735 19.2319 18.6106 19.3848C19.7633 20.6709 20.7909 22.0785 21.6638 23.5694C21.7676 23.7464 21.7083 23.9734 21.5313 24.0762C21.472 24.1105 21.4081 24.1272 21.3441 24.1272Z" fill="#FFCD05"/>
<path d="M14.8769 16.7813C14.7973 16.7813 14.7166 16.7553 14.649 16.7025C13.7808 16.0242 12.844 15.3765 11.8664 14.7789C11.6922 14.6723 11.6366 14.4443 11.7431 14.2692C11.8497 14.095 12.0786 14.0394 12.2528 14.146C13.2544 14.7585 14.2144 15.4219 15.1049 16.1178C15.2661 16.2439 15.2949 16.4764 15.1688 16.6386C15.0956 16.7321 14.9863 16.7813 14.876 16.7813H14.8769Z" fill="#FFCD05"/>
<path d="M21.4812 19.838C21.37 19.838 21.2606 19.788 21.1874 19.6935C19.3833 17.3538 17.1011 15.2429 14.4037 13.4184C14.2341 13.3035 14.1897 13.0738 14.3046 12.9042C14.4195 12.7346 14.6502 12.6901 14.8188 12.805C17.582 14.674 19.9217 16.8395 21.7749 19.2413C21.9 19.4035 21.8694 19.636 21.7082 19.7611C21.6406 19.813 21.5609 19.838 21.4821 19.838H21.4812Z" fill="#FFCD05"/>
<path d="M23.7162 18.6896C23.5958 18.6896 23.4781 18.6312 23.4067 18.5238C22.5246 17.195 21.4507 15.9357 20.2136 14.7802C20.0644 14.6403 20.0561 14.4059 20.196 14.2567C20.3359 14.1075 20.5704 14.0992 20.7196 14.2391C21.9992 15.4335 23.1111 16.7382 24.0248 18.1151C24.1378 18.2856 24.0915 18.5154 23.921 18.6285C23.858 18.6701 23.7867 18.6906 23.7162 18.6906V18.6896Z" fill="#FFCD05"/>
<path d="M24.2979 12.9884C24.2034 12.9884 24.1079 12.9523 24.0357 12.88C23.8911 12.7355 23.8911 12.501 24.0357 12.3555L25.0373 11.3529C25.1819 11.2084 25.4163 11.2084 25.5618 11.3529C25.7064 11.4975 25.7064 11.7319 25.5618 11.8774L24.5601 12.88C24.4879 12.9523 24.3924 12.9884 24.2979 12.9884Z" fill="#FFCD05"/>
</svg>
