<svg width="36" height="36" viewBox="0 0 36 36" fill="none" xmlns="http://www.w3.org/2000/svg">
<circle cx="18" cy="18" r="18" fill="#F5F4F2"/>
<circle cx="17.5" cy="18.5" r="2.5" fill="#FFE581"/>
<ellipse cx="17.5" cy="18" rx="7.5" ry="7" fill="#FFE581"/>
<path fill-rule="evenodd" clip-rule="evenodd" d="M17.545 20.2816C16.359 20.2816 15.3941 19.3176 15.3941 18.1328C15.3941 16.9479 16.359 15.984 17.545 15.984C18.731 15.984 19.696 16.9479 19.696 18.1328C19.696 19.3176 18.731 20.2816 17.545 20.2816ZM27.8553 23.6161L25.0479 21.9735L27.7194 21.2113C27.9713 21.1394 28.1172 20.877 28.0452 20.6254C27.9733 20.3737 27.7104 20.228 27.4588 20.2998L23.9154 21.3108L20.4273 19.27C20.5671 18.9176 20.6448 18.5342 20.6448 18.1328C20.6448 17.7313 20.5671 17.3479 20.4273 16.9956L23.9154 14.9547L27.4588 15.9657C27.5024 15.9781 27.5462 15.9841 27.5893 15.9841C27.7957 15.9841 27.9858 15.8483 28.0452 15.6402C28.1172 15.3885 27.9713 15.1262 27.7194 15.0543L25.048 14.2921L27.8553 12.6495C28.0814 12.5172 28.1573 12.2268 28.0249 12.001C27.8925 11.7752 27.6019 11.6992 27.3758 11.8315L24.5685 13.4741L25.2098 10.7736C25.2703 10.5189 25.1127 10.2635 24.8577 10.203C24.6027 10.1426 24.3471 10.3001 24.2866 10.5548L23.4359 14.1368L19.9471 16.1781C19.473 15.5977 18.7931 15.1916 18.0194 15.0723V11.0351L20.6835 8.49148C20.8728 8.31063 20.8797 8.01062 20.6987 7.82142C20.5176 7.63212 20.2172 7.62539 20.0279 7.8062L18.0194 9.72389V6.4737C18.0194 6.21194 17.807 5.99976 17.545 5.99976C17.283 5.99976 17.0706 6.21194 17.0706 6.4737V9.72389L15.0622 7.80625C14.8727 7.62535 14.5725 7.63212 14.3914 7.82142C14.2104 8.01062 14.2172 8.31063 14.4066 8.49148L17.0706 11.0351V15.0723C16.2969 15.1916 15.617 15.5977 15.1429 16.1781L11.6541 14.1368L10.8034 10.5548C10.743 10.3001 10.4872 10.1426 10.2323 10.203C9.97742 10.2635 9.81977 10.5189 9.88026 10.7736L10.5216 13.4741L7.71422 11.8315C7.48825 11.6993 7.19749 11.7751 7.06512 12.001C6.93271 12.2268 7.00862 12.5172 7.23473 12.6495L10.0421 14.2921L7.37069 15.0543C7.11873 15.1262 6.97285 15.3885 7.04482 15.6402C7.10436 15.8484 7.29427 15.9841 7.50073 15.9841C7.54386 15.9841 7.58774 15.9781 7.63124 15.9657L11.1746 14.9547L14.6627 16.9956C14.5229 17.3479 14.4452 17.7313 14.4452 18.1328C14.4452 18.5342 14.5229 18.9176 14.6627 19.27L11.1747 21.3108L7.63124 20.2998C7.37947 20.2281 7.11674 20.3737 7.04482 20.6254C6.97285 20.877 7.11873 21.1394 7.37069 21.2113L10.0421 21.9735L7.23473 23.6161C7.00862 23.7484 6.93271 24.0387 7.06512 24.2646C7.15341 24.4151 7.31201 24.499 7.47492 24.499C7.55633 24.499 7.63888 24.4781 7.71422 24.434L10.5216 22.7914L9.88026 25.492C9.81977 25.7467 9.97742 26.0021 10.2323 26.0625C10.2692 26.0712 10.306 26.0754 10.3423 26.0754C10.5571 26.0754 10.7518 25.9286 10.8034 25.7108L11.6541 22.1288L15.1429 20.0874C15.617 20.6678 16.2969 21.074 17.0706 21.1932V25.2305L14.4066 27.7741C14.2172 27.9549 14.2104 28.2549 14.3914 28.4442C14.5725 28.6334 14.8729 28.6401 15.0622 28.4593L17.0706 26.5417V29.7919C17.0706 30.0536 17.283 30.2658 17.545 30.2658C17.807 30.2658 18.0194 30.0536 18.0194 29.7919V26.5417L20.0279 28.4593C20.1198 28.5471 20.2378 28.5906 20.3556 28.5906C20.4806 28.5906 20.6055 28.5416 20.6987 28.4442C20.8797 28.2549 20.8728 27.9549 20.6835 27.7741L18.0194 25.2305V21.1932C18.7931 21.074 19.473 20.6678 19.9471 20.0874L23.436 22.1288L24.2866 25.7108C24.3384 25.9286 24.533 26.0754 24.7478 26.0754C24.7841 26.0754 24.8209 26.0712 24.8577 26.0625C25.1127 26.0021 25.2703 25.7467 25.2098 25.492L24.5685 22.7915L27.3758 24.434C27.4512 24.4781 27.5337 24.499 27.6151 24.499C27.7781 24.499 27.9367 24.4151 28.0249 24.2646C28.1573 24.0387 28.0814 23.7484 27.8553 23.6161Z" fill="#FFCD05"/>
</svg>
