<svg width="36" height="36" viewBox="0 0 36 36" fill="none" xmlns="http://www.w3.org/2000/svg">
<path fill-rule="evenodd" clip-rule="evenodd" d="M18.4547 20.6565C16.9884 20.6565 15.7955 19.4648 15.7955 18C15.7955 16.5352 16.9884 15.3434 18.4547 15.3434C19.921 15.3434 21.1139 16.5352 21.1139 18C21.1139 19.4648 19.921 20.6565 18.4547 20.6565ZM31.2013 24.7789L27.7305 22.7482L31.0332 21.8059C31.3446 21.717 31.525 21.3927 31.4361 21.0816C31.3471 20.7704 31.0221 20.5903 30.7111 20.679L26.3304 21.929L22.0181 19.4059C22.1909 18.9703 22.2869 18.4963 22.2869 18C22.2869 17.5037 22.1909 17.0297 22.0181 16.5941L26.3304 14.0709L30.7111 15.3209C30.7649 15.3362 30.8191 15.3435 30.8724 15.3435C31.1276 15.3435 31.3625 15.1757 31.4361 14.9184C31.525 14.6072 31.3446 14.2829 31.0332 14.194L27.7306 13.2517L31.2013 11.221C31.4808 11.0575 31.5747 10.6985 31.411 10.4193C31.2472 10.1401 30.888 10.0462 30.6085 10.2098L27.1378 12.2405L27.9306 8.90191C28.0054 8.58703 27.8106 8.27121 27.4954 8.1965C27.1801 8.1218 26.8641 8.31645 26.7893 8.63139L25.7376 13.0598L21.4244 15.5834C20.8382 14.8659 19.9977 14.3638 19.0412 14.2164V9.22512L22.3347 6.08051C22.5689 5.85691 22.5773 5.48602 22.3536 5.25211C22.1297 5.01809 21.7584 5.00977 21.5243 5.2333L19.0412 7.60412V3.58594C19.0412 3.26232 18.7786 3 18.4547 3C18.1308 3 17.8682 3.26232 17.8682 3.58594V7.60412L15.3852 5.23336C15.151 5.00971 14.7798 5.01809 14.5559 5.25211C14.3321 5.48602 14.3405 5.85691 14.5747 6.08051L17.8682 9.22512V14.2164C16.9117 14.3638 16.0711 14.8659 15.485 15.5834L11.1718 13.0598L10.1201 8.63139C10.0454 8.31645 9.72914 8.1218 9.41407 8.1965C9.09893 8.27121 8.90403 8.58703 8.97881 8.90191L9.77172 12.2405L6.30095 10.2098C6.02159 10.0463 5.66212 10.1401 5.49848 10.4193C5.33478 10.6985 5.42863 11.0575 5.70816 11.221L9.17887 13.2517L5.87626 14.194C5.56476 14.2829 5.3844 14.6072 5.47338 14.9184C5.54699 15.1758 5.78177 15.3435 6.03702 15.3435C6.09033 15.3435 6.14459 15.3362 6.19837 15.3209L10.579 14.0709L14.8913 16.594C14.7185 17.0297 14.6225 17.5037 14.6225 18C14.6225 18.4963 14.7185 18.9703 14.8913 19.4059L10.5791 21.929L6.19837 20.679C5.88711 20.5904 5.56229 20.7704 5.47338 21.0816C5.3844 21.3927 5.56476 21.717 5.87626 21.8059L9.17893 22.7482L5.70816 24.7789C5.42863 24.9425 5.33478 25.3014 5.49848 25.5807C5.60763 25.7668 5.8037 25.8705 6.00511 25.8705C6.10576 25.8705 6.20781 25.8446 6.30095 25.7902L9.77167 23.7594L8.97881 27.0981C8.90403 27.413 9.09893 27.7287 9.41407 27.8034C9.45964 27.8142 9.50515 27.8194 9.55002 27.8194C9.81554 27.8194 10.0562 27.638 10.1201 27.3686L11.1718 22.9402L15.485 20.4165C16.0711 21.134 16.9117 21.6362 17.8682 21.7835V26.7748L14.5747 29.9194C14.3405 30.143 14.3321 30.5139 14.5559 30.7479C14.7798 30.9819 15.1511 30.9902 15.3852 30.7666L17.8682 28.3958V32.4141C17.8682 32.7377 18.1308 33 18.4547 33C18.7786 33 19.0412 32.7377 19.0412 32.4141V28.3958L21.5243 30.7666C21.6379 30.8751 21.7838 30.9289 21.9295 30.9289C22.084 30.9289 22.2383 30.8683 22.3536 30.7479C22.5773 30.5139 22.5689 30.143 22.3347 29.9194L19.0412 26.7748V21.7835C19.9977 21.6362 20.8382 21.134 21.4243 20.4165L25.7376 22.9403L26.7893 27.3686C26.8533 27.638 27.0939 27.8194 27.3594 27.8194C27.4043 27.8194 27.4498 27.8142 27.4954 27.8034C27.8106 27.7287 28.0054 27.413 27.9306 27.0981L27.1378 23.7595L30.6085 25.7902C30.7017 25.8446 30.8036 25.8705 30.9043 25.8705C31.1057 25.8705 31.3019 25.7668 31.411 25.5807C31.5747 25.3014 31.4808 24.9425 31.2013 24.7789Z" fill="#79B72A"/>
</svg>
