<svg width="36" height="36" viewBox="0 0 36 36" fill="none" xmlns="http://www.w3.org/2000/svg">
<circle cx="18" cy="18" r="18" fill="#F5F4F2"/>
<path d="M11.5 29H24.5L26 21L27 20.5L28.5 19V17L28 15L26 13.5L24.5 12.5L24 10L21.5 8L20 7V6L19 5H17.5L16.5 6L16 6.5L15.5 7.5L14 8L12.5 9.5L11.5 11.5L11 13L9.5 14L8 15.5L7.5 17.5L8 19L9 20L10.5 21L11.5 29Z" fill="#FFE581"/>
<path d="M25.9508 21.22H10.2154C10.1746 21.22 10.1329 21.2132 10.094 21.2006C8.38915 20.6391 7.24677 19.1683 7.18265 17.4537C7.10591 15.3768 8.52225 13.5058 10.9858 12.4101C11.0422 11.017 11.5522 9.77649 12.4711 8.80796C13.3396 7.8919 14.5471 7.23327 15.9644 6.90201C16.0723 6.87675 16.1869 6.89909 16.2772 6.96321C16.3676 7.02732 16.4268 7.12739 16.4385 7.23813C16.5298 8.07842 17.236 8.71179 18.0812 8.71179C18.9263 8.71179 19.618 8.08911 19.72 7.26436C19.7336 7.15362 19.7938 7.05453 19.8861 6.99138C19.9784 6.92824 20.093 6.90785 20.2008 6.93505C23.1394 7.67431 24.9298 9.70946 25.0386 12.4062C27.5983 13.5068 29.073 15.3972 28.9972 17.5004C28.936 19.2004 27.7868 20.6537 26.0693 21.2015C26.0314 21.2132 25.9916 21.22 25.9508 21.22ZM10.2796 20.4428H25.8896C27.2797 19.9775 28.1715 18.8439 28.221 17.4732C28.2871 15.6469 26.8999 13.9857 24.5121 13.0289C24.3644 12.9696 24.2682 12.8268 24.2682 12.6685C24.2682 10.3419 22.8305 8.54471 20.3981 7.79671C20.0833 8.7866 19.1556 9.48894 18.0841 9.48894C17.0126 9.48894 16.0586 8.77009 15.7565 7.75882C13.2454 8.47963 11.7601 10.2914 11.7601 12.6675C11.7601 12.8249 11.6648 12.9667 11.5201 13.0269C9.2246 13.977 7.89372 15.6206 7.96075 17.4246C8.01224 18.8138 8.89919 19.9649 10.2806 20.4428H10.2796Z" fill="#FFCD05"/>
<path d="M16.8043 29.4928C16.8043 29.4928 16.8034 29.4928 16.8024 29.4928H14.2427C14.0416 29.4928 13.8735 29.3393 13.856 29.1382L13.1207 20.8654C13.111 20.7566 13.1479 20.6488 13.2207 20.5692C13.2945 20.4885 13.3985 20.4429 13.5073 20.4429H16.6635C16.8752 20.4429 17.0482 20.6129 17.052 20.8247L17.189 29.0585C17.191 29.0731 17.1919 29.0887 17.1919 29.1042C17.1919 29.3189 17.018 29.4928 16.8034 29.4928H16.8043ZM14.5982 28.7156H16.407L16.2817 21.22H13.9318L14.5972 28.7156H14.5982Z" fill="#FFCD05"/>
<path d="M14.244 29.4928C14.244 29.4928 14.243 29.4928 14.242 29.4928H11.6114C11.422 29.4928 11.2597 29.3558 11.2286 29.1693L9.82978 20.8965C9.81035 20.7838 9.84243 20.6682 9.91625 20.5808C9.99008 20.4934 10.0988 20.4429 10.2135 20.4429H13.5076C13.7087 20.4429 13.8768 20.5964 13.8943 20.7974L14.6258 29.0313C14.6306 29.0556 14.6326 29.0799 14.6326 29.1052C14.6326 29.3199 14.4587 29.4937 14.244 29.4937V29.4928ZM11.9407 28.7156H13.8175L13.1521 21.22H10.673L11.9407 28.7156Z" fill="#FFCD05"/>
<path d="M19.5356 29.4928H16.802C16.5902 29.4928 16.4173 29.3228 16.4134 29.111L16.2755 20.8383C16.2735 20.7343 16.3133 20.6333 16.3872 20.5595C16.46 20.4846 16.5601 20.4429 16.664 20.4429H19.6745C19.7784 20.4429 19.8785 20.4846 19.9514 20.5595C20.0242 20.6333 20.065 20.7343 20.0631 20.8383L19.9251 29.111C19.9212 29.3228 19.7483 29.4928 19.5366 29.4928H19.5356ZM17.1837 28.7156H19.1538L19.2791 21.22H17.0594L17.1847 28.7156H17.1837Z" fill="#FFCD05"/>
<path d="M22.1988 29.4928H19.5351C19.4312 29.4928 19.3312 29.451 19.2583 29.3762C19.1854 29.3024 19.1446 29.2013 19.1466 29.0974L19.2845 20.8247C19.2884 20.6129 19.4613 20.4429 19.6731 20.4429H22.6612C22.7681 20.4429 22.8701 20.4866 22.9439 20.5643C23.0178 20.642 23.0556 20.746 23.0498 20.8528L22.5864 29.1256C22.5748 29.3315 22.4048 29.4928 22.1988 29.4928ZM19.9305 28.7156H21.8316L22.2513 21.22H20.0558L19.9305 28.7156Z" fill="#FFCD05"/>
<path d="M24.6225 29.4928H22.1997C22.0928 29.4928 21.9908 29.4491 21.917 29.3713C21.8432 29.2936 21.8053 29.1897 21.8111 29.0828L22.2745 20.8101C22.2862 20.6041 22.4561 20.4429 22.6621 20.4429H25.9514C26.065 20.4429 26.1728 20.4924 26.2467 20.5798C26.3205 20.6663 26.3526 20.7809 26.3341 20.8936L25.0042 29.1664C24.9741 29.3548 24.8109 29.4937 24.6205 29.4937L24.6225 29.4928ZM22.6106 28.7156H24.2912L25.4958 21.22H23.0303L22.6106 28.7156Z" fill="#FFCD05"/>
<path d="M12.3395 18.4087C12.2463 18.4087 12.153 18.3756 12.0792 18.3086L10.2801 16.6805C10.1207 16.5367 10.1091 16.2909 10.2529 16.1316C10.3967 15.9723 10.6424 15.9607 10.8017 16.1044L12.6008 17.7326C12.7601 17.8763 12.7718 18.1221 12.628 18.2814C12.5513 18.3659 12.4454 18.4096 12.3395 18.4096V18.4087Z" fill="#FFCD05"/>
<path d="M14.6561 13.6634C14.5793 13.6634 14.5007 13.6401 14.4327 13.5925C14.2568 13.4691 14.215 13.2262 14.3384 13.0514L15.8266 10.9385C15.95 10.7627 16.1919 10.7209 16.3678 10.8443C16.5436 10.9676 16.5853 11.2105 16.462 11.3854L14.9737 13.4982C14.898 13.6061 14.7775 13.6634 14.6561 13.6634Z" fill="#FFCD05"/>
<path d="M22.8223 14.2858C22.7611 14.2858 22.6999 14.2713 22.6416 14.2411L20.6007 13.1677C20.4103 13.0676 20.3374 12.8326 20.4374 12.6431C20.5375 12.4527 20.7726 12.3799 20.962 12.4799L23.003 13.5534C23.1934 13.6534 23.2662 13.8885 23.1662 14.0779C23.0962 14.21 22.9612 14.2858 22.8223 14.2858Z" fill="#FFCD05"/>
<path d="M17.2523 18.4086C17.1435 18.4086 17.0356 18.364 16.9589 18.2756C16.818 18.1133 16.8346 17.8685 16.9968 17.7277L18.8649 16.0995C19.0271 15.9587 19.2719 15.9752 19.4128 16.1374C19.5536 16.2997 19.5371 16.5445 19.3749 16.6853L17.5068 18.3134C17.433 18.3776 17.3426 18.4086 17.2513 18.4086H17.2523Z" fill="#FFCD05"/>
<path d="M23.5836 18.5813C23.4699 18.5813 23.3572 18.5318 23.2805 18.4356C23.1464 18.2685 23.1736 18.0237 23.3407 17.8896L24.8979 16.6423C25.066 16.5083 25.3098 16.5355 25.4439 16.7025C25.5779 16.8696 25.5507 17.1144 25.3836 17.2485L23.8265 18.4958C23.7546 18.5531 23.6691 18.5813 23.5836 18.5813Z" fill="#FFCD05"/>
<path d="M18.0829 9.48897C16.8404 9.48897 15.801 8.55737 15.667 7.3217C15.6572 7.23719 15.6523 7.14685 15.6523 7.0565C15.6523 5.71495 16.7423 4.62402 18.0829 4.62402C19.4235 4.62402 20.5125 5.71495 20.5125 7.0565C20.5125 7.16336 20.5057 7.2673 20.4921 7.36444C20.3425 8.57291 19.3069 9.48897 18.0829 9.48897ZM18.0829 5.40117C17.1717 5.40117 16.4295 6.14335 16.4295 7.0565C16.4295 7.1177 16.4324 7.17793 16.4392 7.23524C16.5305 8.07748 17.2368 8.71182 18.0819 8.71182C18.9271 8.71182 19.6188 8.08914 19.7208 7.26439C19.7305 7.19639 19.7343 7.12839 19.7343 7.0565C19.7343 6.14335 18.9931 5.40117 18.0819 5.40117H18.0829Z" fill="#FFCD05"/>
</svg>
