<svg width="36" height="36" viewBox="0 0 36 36" fill="none" xmlns="http://www.w3.org/2000/svg">
<circle cx="18" cy="18" r="18" fill="#F5F4F2"/>
<path d="M15.1475 28.0338H29.4069V18.5998C29.4069 18.5998 28.5921 19.4781 27.7772 18.6633C26.9624 17.8485 27.4215 17.3894 27.7772 17.0336L29.4069 15.404V12.5521L28.5921 9.70022L26.555 7.66315L22.4809 6.44092L17.9993 8.47798L6.5918 12.5521V20.2929L8.22145 21.1078L8.62886 21.9226L8.22145 23.1448L6.5918 23.5522V28.0338H11.0733L11.4807 27.2189L13.1104 26.4041L14.3326 27.2189L15.1475 28.0338Z" fill="#FFE581"/>
<circle cx="11.8883" cy="17.441" r="1.22224" fill="#FFCD05"/>
<circle cx="20.8515" cy="17.441" r="2.03706" fill="#FFCD05"/>
<circle cx="17.5914" cy="23.1446" r="1.22224" fill="#FFCD05"/>
<ellipse cx="22.8894" cy="9.29255" rx="1.62965" ry="1.22224" fill="#FFCD05"/>
<circle cx="17.1843" cy="12.1448" r="1.62965" fill="#FFCD05"/>
<circle cx="25.7398" cy="24.7745" r="1.22224" fill="#FFCD05"/>
<path d="M20.7272 20.4545C22.2326 20.4545 23.4544 19.2327 23.4544 17.7273C23.4544 16.2219 22.2326 15.0001 20.7272 15.0001C19.2218 15.0001 18 16.2219 18 17.7273C18 19.2327 19.2218 20.4545 20.7272 20.4545ZM20.7272 16.091C21.6272 16.091 22.3635 16.8274 22.3635 17.7273C22.3635 18.6273 21.6272 19.3637 20.7272 19.3637C19.8272 19.3637 19.0909 18.6273 19.0909 17.7273C19.0909 16.8274 19.8272 16.091 20.7272 16.091Z" fill="#FFCD05"/>
<path d="M13.6359 17.7276C13.6359 16.8277 12.8996 16.0913 11.9996 16.0913C11.0996 16.0913 10.3633 16.8277 10.3633 17.7276C10.3633 18.6276 11.0996 19.364 11.9996 19.364C12.8996 19.364 13.6359 18.6276 13.6359 17.7276ZM11.4542 17.7276C11.4542 17.4276 11.6996 17.1822 11.9996 17.1822C12.2996 17.1822 12.545 17.4276 12.545 17.7276C12.545 18.0276 12.2996 18.2731 11.9996 18.2731C11.6996 18.2731 11.4542 18.0276 11.4542 17.7276Z" fill="#FFCD05"/>
<path d="M27.2726 24.818C27.2726 23.918 26.5363 23.1816 25.6363 23.1816C24.7363 23.1816 24 23.918 24 24.818C24 25.7179 24.7363 26.4543 25.6363 26.4543C26.5363 26.4543 27.2726 25.7179 27.2726 24.818ZM25.0909 24.818C25.0909 24.518 25.3363 24.2725 25.6363 24.2725C25.9363 24.2725 26.1818 24.518 26.1818 24.818C26.1818 25.118 25.9363 25.3634 25.6363 25.3634C25.3363 25.3634 25.0909 25.118 25.0909 24.818Z" fill="#FFCD05"/>
<path d="M15.8184 23.1817C15.8184 24.0817 16.5547 24.8181 17.4547 24.8181C18.3547 24.8181 19.091 24.0817 19.091 23.1817C19.091 22.2818 18.3547 21.5454 17.4547 21.5454C16.5547 21.5454 15.8184 22.2818 15.8184 23.1817ZM18.0001 23.1817C18.0001 23.4817 17.7547 23.7272 17.4547 23.7272C17.1547 23.7272 16.9092 23.4817 16.9092 23.1817C16.9092 22.8817 17.1547 22.6363 17.4547 22.6363C17.7547 22.6363 18.0001 22.8817 18.0001 23.1817Z" fill="#FFCD05"/>
<path d="M20.7266 9.5455C20.7266 10.4618 21.6865 11.1818 22.9083 11.1818C24.1301 11.1818 25.0901 10.4618 25.0901 9.5455C25.0901 8.62916 24.1301 7.90918 22.9083 7.90918C21.6865 7.90918 20.7266 8.62916 20.7266 9.5455ZM23.9992 9.5455C23.9992 9.76913 23.5738 10.0909 22.9083 10.0909C22.2429 10.0909 21.8174 9.76913 21.8174 9.5455C21.8174 9.32187 22.2429 9.00006 22.9083 9.00006C23.5738 9.00006 23.9992 9.32187 23.9992 9.5455Z" fill="#FFCD05"/>
<path d="M29.454 18.2728C29.154 18.2728 28.9085 18.5182 28.9085 18.8182V27.5453H15.2016C14.9561 26.6071 14.1053 25.909 13.0907 25.909C12.0762 25.909 11.2199 26.6071 10.9799 27.5453H7.09088V24.2727C8.29631 24.2727 9.27265 23.2963 9.27265 22.0909C9.27265 20.8855 8.29631 19.9091 7.09088 19.9091V15.0002C7.09088 14.7002 6.84543 14.4547 6.54544 14.4547C6.24545 14.4547 6 14.7002 6 15.0002V20.5527C6 20.7327 6.08727 20.8964 6.22908 21C6.37635 21.1036 6.56181 21.1255 6.72544 21.0709C6.85634 21.0218 6.97634 21 7.08543 21C7.68541 21 8.17631 21.4909 8.17631 22.0909C8.17631 22.6909 7.68541 23.1818 7.08543 23.1818C6.97088 23.1818 6.85089 23.16 6.72544 23.1109C6.55635 23.0509 6.3709 23.0781 6.22908 23.1818C6.08727 23.2854 6 23.449 6 23.629V28.0907C6 28.3907 6.24545 28.6362 6.54544 28.6362H11.4544C11.7544 28.6362 11.9999 28.3907 11.9999 28.0907C11.9999 27.4908 12.4908 26.9999 13.0907 26.9999C13.6907 26.9999 14.1816 27.4908 14.1816 28.0907C14.1816 28.3907 14.4271 28.6362 14.7271 28.6362H29.454C29.754 28.6362 29.9994 28.3907 29.9994 28.0907V18.8182C29.9994 18.5182 29.754 18.2728 29.454 18.2728Z" fill="#FFCD05"/>
<path d="M21.8191 5.72754C21.7427 5.72754 21.6718 5.7439 21.6064 5.77117L6.33399 12.3165C6.094 12.4201 5.96309 12.671 6.01218 12.9274C6.06673 13.1783 6.2849 13.3637 6.54672 13.3637H15.6938C15.9992 13.7073 16.441 13.9092 16.9101 13.9092C17.3792 13.9092 17.8155 13.7073 18.1264 13.3637H27.2735C27.5735 13.3637 27.8189 13.1183 27.8189 12.8183C27.8189 12.5183 27.5735 12.2728 27.2735 12.2728H17.8483C17.6519 12.2728 17.4719 12.3765 17.3792 12.5456C17.1883 12.8728 16.6974 12.8837 16.4792 12.5892C16.4137 12.4965 16.3647 12.3928 16.3647 12.2728C16.3647 11.9728 16.6101 11.7274 16.9101 11.7274C17.2101 11.7274 17.4555 11.4819 17.4555 11.182C17.4555 10.882 17.2101 10.6365 16.9101 10.6365C16.0101 10.6365 15.2738 11.3729 15.2738 12.2728H9.20302L21.9282 6.81842C25.7899 6.86751 28.9098 9.54017 28.9098 12.8183V15.6164C27.9717 15.8618 27.2735 16.7127 27.2735 17.7272C27.2735 18.0272 27.5189 18.2727 27.8189 18.2727C28.1189 18.2727 28.3644 18.0272 28.3644 17.7272C28.3644 17.1273 28.8553 16.6364 29.4553 16.6364C29.7552 16.6364 30.0007 16.3909 30.0007 16.0909V12.8183C30.0007 8.90746 26.3299 5.72754 21.8191 5.72754Z" fill="#FFCD05"/>
</svg>
