<svg width="36" height="36" viewBox="0 0 36 36" fill="none" xmlns="http://www.w3.org/2000/svg">
<path d="M21.347 21.1982C23.1945 21.1982 24.694 19.6988 24.694 17.8513C24.694 16.0037 23.1945 14.5043 21.347 14.5043C19.4995 14.5043 18 16.0037 18 17.8513C18 19.6988 19.4995 21.1982 21.347 21.1982ZM21.347 15.8431C22.4515 15.8431 23.3552 16.7468 23.3552 17.8513C23.3552 18.9558 22.4515 19.8595 21.347 19.8595C20.2425 19.8595 19.3388 18.9558 19.3388 17.8513C19.3388 16.7468 20.2425 15.8431 21.347 15.8431Z" fill="#79B72A"/>
<path d="M12.6452 17.8515C12.6452 16.7469 11.7415 15.8433 10.637 15.8433C9.53247 15.8433 8.62878 16.7469 8.62878 17.8515C8.62878 18.956 9.53247 19.8596 10.637 19.8596C11.7415 19.8596 12.6452 18.956 12.6452 17.8515ZM9.96758 17.8515C9.96758 17.4833 10.2688 17.1821 10.637 17.1821C11.0051 17.1821 11.3064 17.4833 11.3064 17.8515C11.3064 18.2196 11.0051 18.5209 10.637 18.5209C10.2688 18.5209 9.96758 18.2196 9.96758 17.8515Z" fill="#79B72A"/>
<path d="M29.3795 26.5536C29.3795 25.4491 28.4759 24.5454 27.3714 24.5454C26.2668 24.5454 25.3632 25.4491 25.3632 26.5536C25.3632 27.6581 26.2668 28.5618 27.3714 28.5618C28.4759 28.5618 29.3795 27.6581 29.3795 26.5536ZM26.702 26.5536C26.702 26.1854 27.0032 25.8842 27.3714 25.8842C27.7395 25.8842 28.0407 26.1854 28.0407 26.5536C28.0407 26.9218 27.7395 27.223 27.3714 27.223C27.0032 27.223 26.702 26.9218 26.702 26.5536Z" fill="#79B72A"/>
<path d="M15.3221 24.5453C15.3221 25.6498 16.2258 26.5535 17.3303 26.5535C18.4348 26.5535 19.3385 25.6498 19.3385 24.5453C19.3385 23.4408 18.4348 22.5371 17.3303 22.5371C16.2258 22.5371 15.3221 23.4408 15.3221 24.5453ZM17.9997 24.5453C17.9997 24.9135 17.6985 25.2147 17.3303 25.2147C16.9622 25.2147 16.6609 24.9135 16.6609 24.5453C16.6609 24.1771 16.9622 23.8759 17.3303 23.8759C17.6985 23.8759 17.9997 24.1771 17.9997 24.5453Z" fill="#79B72A"/>
<path d="M21.3475 7.81044C21.3475 8.93503 22.5257 9.81863 24.0251 9.81863C25.5246 9.81863 26.7027 8.93503 26.7027 7.81044C26.7027 6.68585 25.5246 5.80225 24.0251 5.80225C22.5257 5.80225 21.3475 6.68585 21.3475 7.81044ZM25.3639 7.81044C25.3639 8.08489 24.8418 8.47984 24.0251 8.47984C23.2085 8.47984 22.6863 8.08489 22.6863 7.81044C22.6863 7.53599 23.2085 7.14104 24.0251 7.14104C24.8418 7.14104 25.3639 7.53599 25.3639 7.81044Z" fill="#79B72A"/>
<path d="M32.0574 18.5206C31.6892 18.5206 31.388 18.8218 31.388 19.19V29.9004H14.5661C14.2648 28.749 13.2206 27.8922 11.9755 27.8922C10.7304 27.8922 9.67945 28.749 9.38491 29.9004H4.61211V25.884C6.09148 25.884 7.2897 24.6858 7.2897 23.2064C7.2897 21.727 6.09148 20.5288 4.61211 20.5288V14.5042C4.61211 14.1361 4.31088 13.8348 3.94271 13.8348C3.57454 13.8348 3.27332 14.1361 3.27332 14.5042V21.3187C3.27332 21.5396 3.38042 21.7404 3.55446 21.8676C3.7352 21.9948 3.9628 22.0216 4.16362 21.9546C4.32427 21.8944 4.47154 21.8676 4.60541 21.8676C5.34175 21.8676 5.94421 22.4701 5.94421 23.2064C5.94421 23.9427 5.34175 24.5452 4.60541 24.5452C4.46484 24.5452 4.31758 24.5184 4.16362 24.4582C3.9561 24.3845 3.7285 24.418 3.55446 24.5452C3.38042 24.6724 3.27332 24.8732 3.27332 25.0941V30.5698C3.27332 30.9379 3.57454 31.2392 3.94271 31.2392H9.96729C10.3355 31.2392 10.6367 30.9379 10.6367 30.5698C10.6367 29.8334 11.2391 29.231 11.9755 29.231C12.7118 29.231 13.3143 29.8334 13.3143 30.5698C13.3143 30.9379 13.6155 31.2392 13.9837 31.2392H32.0574C32.4256 31.2392 32.7268 30.9379 32.7268 30.5698V19.19C32.7268 18.8218 32.4256 18.5206 32.0574 18.5206Z" fill="#79B72A"/>
<path d="M22.687 3.12451C22.5932 3.12451 22.5062 3.14459 22.4259 3.17806L3.68277 11.2108C3.38823 11.338 3.22758 11.6459 3.28782 11.9606C3.35476 12.2685 3.62252 12.4961 3.94383 12.4961H15.1696C15.5445 12.9178 16.0867 13.1655 16.6624 13.1655C17.2381 13.1655 17.7736 12.9178 18.1551 12.4961H29.3809C29.7491 12.4961 30.0503 12.1948 30.0503 11.8267C30.0503 11.4585 29.7491 11.1573 29.3809 11.1573H17.8138C17.5728 11.1573 17.3519 11.2845 17.2381 11.492C17.0038 11.8936 16.4013 11.907 16.1336 11.5455C16.0532 11.4317 15.993 11.3045 15.993 11.1573C15.993 10.7891 16.2942 10.4879 16.6624 10.4879C17.0306 10.4879 17.3318 10.1867 17.3318 9.81849C17.3318 9.45032 17.0306 9.14909 16.6624 9.14909C15.5579 9.14909 14.6542 10.0528 14.6542 11.1573H7.2038L22.8208 4.46331C27.5602 4.52355 31.3891 7.8036 31.3891 11.8267V15.2607C30.2378 15.5619 29.3809 16.6062 29.3809 17.8513C29.3809 18.2194 29.6822 18.5207 30.0503 18.5207C30.4185 18.5207 30.7197 18.2194 30.7197 17.8513C30.7197 17.1149 31.3222 16.5125 32.0585 16.5125C32.4267 16.5125 32.7279 16.2112 32.7279 15.8431V11.8267C32.7279 7.0271 28.2229 3.12451 22.687 3.12451Z" fill="#79B72A"/>
</svg>
