<svg width="36" height="36" viewBox="0 0 36 36" fill="none" xmlns="http://www.w3.org/2000/svg">
<path d="M28.9931 13.1875C28.9931 13.0431 28.9519 12.8987 28.8625 12.775L24.875 7.46062V3.5625C24.875 3.18437 24.5656 2.875 24.1875 2.875H11.8125C11.4344 2.875 11.125 3.18437 11.125 3.5625V7.46062L7.13751 12.775C6.97938 12.9812 6.95874 13.2631 7.07561 13.4969C7.19249 13.7306 7.43312 13.875 7.6875 13.875H19.375V29.6875C19.375 30.0656 19.6844 30.375 20.0625 30.375C20.4406 30.375 20.75 30.0656 20.75 29.6875V13.875H27.625V31.75H8.375V15.9375H7V32.4375C7 32.8156 7.30937 33.125 7.6875 33.125H28.3125C28.6906 33.125 29 32.8156 29 32.4375V13.1875H28.9931ZM12.3625 8.1C12.4519 7.98313 12.5 7.83875 12.5 7.6875V4.25H23.5V7H14.5625C14.1844 7 13.875 7.30937 13.875 7.6875C13.875 8.06563 14.1844 8.375 14.5625 8.375H22.8125L19.7188 12.5H9.0625L12.3625 8.1ZM21.4375 12.5L24.1875 8.83562L26.9375 12.5H21.4375Z" fill="#79B72A"/>
<path d="M10.4375 20.75H17.3125C17.6906 20.75 18 20.4406 18 20.0625C18 19.6844 17.6906 19.375 17.3125 19.375H10.4375C10.0594 19.375 9.75 19.6844 9.75 20.0625C9.75 20.4406 10.0594 20.75 10.4375 20.75Z" fill="#79B72A"/>
<path d="M10.4375 24.1875H17.3125C17.6906 24.1875 18 23.8781 18 23.5C18 23.1219 17.6906 22.8125 17.3125 22.8125H10.4375C10.0594 22.8125 9.75 23.1219 9.75 23.5C9.75 23.8781 10.0594 24.1875 10.4375 24.1875Z" fill="#79B72A"/>
</svg>
