<svg width="304" height="64" viewBox="0 0 304 64" fill="none" xmlns="http://www.w3.org/2000/svg">
<path d="M40.7574 25.3634H6.452C5.02627 25.3634 3.87048 26.5188 3.87048 27.944C3.87048 29.3693 5.02627 30.5246 6.452 30.5246H40.7574C42.1832 30.5246 43.3389 29.3693 43.3389 27.944C43.3389 26.5188 42.1832 25.3634 40.7574 25.3634Z" fill="#E9571C"/>
<path d="M34.9867 40.2285H12.2227C10.797 40.2285 9.64124 41.3839 9.64124 42.8091C9.64124 44.2344 10.797 45.3898 12.2227 45.3898H34.9867C36.4124 45.3898 37.5682 44.2344 37.5682 42.8091C37.5682 41.3839 36.4124 40.2285 34.9867 40.2285Z" fill="#E9571C"/>
<path d="M37.828 32.7924H9.3812C7.95547 32.7924 6.79968 33.9477 6.79968 35.373C6.79968 36.7982 7.95547 37.9536 9.3812 37.9536H37.828C39.2538 37.9536 40.4095 36.7982 40.4095 35.373C40.4095 33.9477 39.2538 32.7924 37.828 32.7924Z" fill="#79B72A"/>
<path d="M16.3185 16.3993L22.2397 22.3205C23.2478 23.3286 24.882 23.3289 25.8898 22.3211C26.8976 21.3133 26.8973 19.6791 25.8892 18.6709L19.968 12.7498C18.9599 11.7416 17.3257 11.7413 16.3179 12.7491C15.3101 13.7569 15.3104 15.3912 16.3185 16.3993Z" fill="#79B72A"/>
<path d="M58.9088 45.3683H51.1051C50.8415 45.3683 50.6354 45.1621 50.6354 44.9273V25.8276C50.6354 25.5928 50.8397 25.3884 51.1051 25.3884H57.1483C58.8209 25.3884 60.5509 25.5946 62.0191 26.6505C63.1629 27.502 63.9553 28.7623 63.9553 30.4636C63.9553 32.4876 63.075 33.9845 61.4616 34.7177V34.8343C64.3084 35.5083 65.5992 37.3279 65.5992 39.9686C65.5992 43.6957 62.2558 45.3665 58.9106 45.3665L58.9088 45.3683ZM58.7904 29.2894C58.3208 28.9667 57.7345 28.8197 57.1178 28.8197H54.859V33.5148H56.8543C57.3814 33.5148 58.0267 33.4843 58.5861 33.2208C59.2315 32.8981 59.7011 32.2527 59.7011 31.1968C59.7011 30.2879 59.3498 29.6712 58.7922 29.2894H58.7904ZM59.9055 37.2706C59.3193 36.9766 58.5556 36.9192 57.4118 36.9192H54.859V41.937H57.9981C58.6721 41.937 59.348 41.8778 59.8768 41.643C60.6979 41.2916 61.2859 40.6462 61.2859 39.4129C61.2859 38.5039 60.8754 37.7116 59.9073 37.2706H59.9055Z" fill="#79B72A"/>
<path d="M86.4879 25.3866C86.9575 25.3866 87.0149 25.738 86.7801 26.0607L79.4156 35.0977L87.0149 44.6045C87.3089 44.9864 87.2498 45.3664 86.8087 45.3664H82.8486C82.4668 45.3664 82.2319 45.2481 81.9971 44.9254L75.9538 37.2096H74.4856V44.9254C74.4856 45.1603 74.3099 45.3664 74.0464 45.3664H70.7317C70.4681 45.3664 70.262 45.1603 70.262 44.9254V25.8258C70.262 25.591 70.4681 25.3866 70.7317 25.3866H74.0464C74.3099 25.3866 74.4856 25.5928 74.4856 25.8258V33.4538H75.9234L81.8788 25.8258C82.1136 25.5318 82.3485 25.3866 82.7303 25.3866H86.4861H86.4879Z" fill="#79B72A"/>
<path d="M92.2658 41.7595C93.293 41.7595 94.0567 41.6125 94.7308 41.2611C95.317 40.9384 95.7867 40.4687 96.2851 39.852L89.0963 26.0033C88.9493 25.7684 88.9797 25.3866 89.419 25.3866H93.146C93.5566 25.3866 93.7627 25.6214 93.9079 25.885L98.4256 35.537L102.475 25.885C102.594 25.591 102.827 25.3866 103.209 25.3866H106.729C107.199 25.3866 107.228 25.7684 107.081 26.0033L101.066 39.411C100.333 41.0836 99.4528 42.3744 98.3664 43.3425C96.753 44.8089 94.7882 45.3664 92.7337 45.3664H91.2081C90.9733 45.3664 90.7689 45.1603 90.7689 44.9254V42.1969C90.7689 41.9334 90.975 41.7577 91.2081 41.7577H92.264L92.2658 41.7595Z" fill="#79B72A"/>
<path d="M109.84 35.3632C109.84 29.5243 114.564 25.1232 120.548 25.1232C123.364 25.1232 125.212 25.7972 126.591 26.5018C126.885 26.6775 126.914 26.8836 126.795 27.1185L125.445 29.9348C125.329 30.1984 125.094 30.2288 124.859 30.1105C123.626 29.4938 122.278 28.9381 120.458 28.9381C117.084 28.9381 114.268 31.6953 114.268 35.3632C114.268 39.0311 116.968 41.8187 120.489 41.8187C122.308 41.8187 123.775 41.3204 125.037 40.6445C125.3 40.528 125.447 40.528 125.566 40.7915L126.915 43.667C127.032 43.9306 126.975 44.108 126.709 44.2246C125.155 45.017 123.248 45.6623 120.46 45.6623C114.004 45.6623 109.84 41.6717 109.84 35.3632Z" fill="#79B72A"/>
<path d="M148.39 25.3866C148.625 25.3866 148.83 25.5928 148.83 25.8258V44.9254C148.83 45.1603 148.625 45.3664 148.39 45.3664H145.045C144.81 45.3664 144.606 45.1603 144.606 44.9254V37.1791H135.51V44.9254C135.51 45.1603 135.334 45.3664 135.071 45.3664H131.756C131.492 45.3664 131.286 45.1603 131.286 44.9254V25.8258C131.286 25.591 131.492 25.3866 131.756 25.3866H135.071C135.334 25.3866 135.51 25.5928 135.51 25.8258V33.4538H144.606V25.8258C144.606 25.591 144.812 25.3866 145.045 25.3866H148.39Z" fill="#79B72A"/>
<path d="M164.173 45.6605C158.189 45.6605 153.466 41.6108 153.466 35.4205C153.466 29.2303 158.189 25.1232 164.173 25.1232C170.158 25.1232 174.853 29.259 174.853 35.4205C174.853 41.5821 170.159 45.6605 164.173 45.6605ZM164.173 29.0833C160.595 29.0833 157.953 31.8423 157.953 35.4205C157.953 38.9988 160.593 41.7291 164.173 41.7291C167.754 41.7291 170.364 39.0006 170.364 35.4205C170.364 31.8405 167.754 29.0833 164.173 29.0833Z" fill="#79B72A"/>
<path d="M199.497 45.1029C199.497 45.2499 199.381 45.3664 199.234 45.3664H197.502C197.355 45.3664 197.238 45.2481 197.238 45.1029V29.465L190.636 40.2912C190.489 40.5261 190.372 40.5853 190.166 40.5853H188.875C188.641 40.5853 188.553 40.5261 188.406 40.2912L181.746 29.465V45.1029C181.746 45.2499 181.629 45.3664 181.482 45.3664H179.75C179.603 45.3664 179.487 45.2481 179.487 45.1029V25.6806C179.487 25.5336 179.603 25.3866 179.75 25.3866H181.599C181.834 25.3866 181.95 25.4153 182.097 25.6806L189.462 37.8854L196.855 25.6806C197.03 25.4171 197.147 25.3866 197.382 25.3866H199.23C199.377 25.3866 199.494 25.5336 199.494 25.6806V45.1029H199.497Z" fill="#E9571C"/>
<path d="M206.48 45.0742C206.421 45.2804 206.274 45.3682 206.041 45.3682H204.28C204.104 45.3682 204.045 45.2804 204.045 45.162C204.045 45.1029 204.045 45.015 204.104 44.8985L211.704 25.6232C211.792 25.3884 211.91 25.3005 212.143 25.3005H214.022C214.257 25.3005 214.373 25.3884 214.461 25.6232L222.03 44.8985C222.059 44.9577 222.118 45.1047 222.118 45.162C222.118 45.2786 222.03 45.3682 221.824 45.3682H220.035C219.8 45.3682 219.653 45.2804 219.594 45.0742L217.774 40.4382H208.298L206.478 45.0742H206.48ZM213.052 28.1456L208.914 38.5326H217.188L213.05 28.1456H213.052Z" fill="#E9571C"/>
<path d="M234.79 25.3866C236.522 25.3866 238.017 25.7093 239.396 26.7957C240.864 27.9394 241.743 29.6999 241.743 31.9587C241.743 34.2175 240.774 36.125 239.19 37.2687C237.811 38.296 236.167 38.5308 234.495 38.5308H229.009V45.1029C229.009 45.2499 228.862 45.3664 228.715 45.3664H226.926C226.779 45.3664 226.662 45.2481 226.662 45.1029V25.6806C226.662 25.5336 226.781 25.3866 226.926 25.3866H234.789H234.79ZM237.666 28.35C236.757 27.6759 235.701 27.4411 234.439 27.4411H229.011V36.4781H234.116C235.35 36.4781 236.581 36.3311 237.549 35.6858C238.664 34.9239 239.369 33.6026 239.369 31.9587C239.369 30.3148 238.724 29.0832 237.668 28.35H237.666Z" fill="#E9571C"/>
<path d="M261.841 25.3866C262.163 25.3866 262.223 25.6214 262.016 25.8276L253.684 35.2161L262.192 44.8985C262.398 45.1334 262.339 45.3682 262.076 45.3682H259.962C259.698 45.3682 259.58 45.3091 259.435 45.1047L251.748 36.3903H249.577V45.1047C249.577 45.2517 249.43 45.3682 249.283 45.3682H247.494C247.347 45.3682 247.23 45.2499 247.23 45.1047V25.6824C247.23 25.5354 247.348 25.3884 247.494 25.3884H249.283C249.43 25.3884 249.577 25.5354 249.577 25.6824V34.3376H251.719L259.318 25.6824C259.435 25.4762 259.582 25.3884 259.845 25.3884H261.841V25.3866Z" fill="#E9571C"/>
<path d="M281.381 25.3866C281.528 25.3866 281.645 25.5336 281.645 25.6806V27.1775C281.645 27.3532 281.527 27.4715 281.381 27.4715H269.704V34.3376H279.854C280.001 34.3376 280.117 34.456 280.117 34.6012V36.1268C280.117 36.2738 280.001 36.3903 279.854 36.3903H269.704V43.2851H281.381C281.528 43.2851 281.645 43.4321 281.645 43.5791V45.1047C281.645 45.2517 281.527 45.3682 281.381 45.3682H267.62C267.473 45.3682 267.357 45.2499 267.357 45.1047V25.6824C267.357 25.5354 267.473 25.3884 267.62 25.3884H281.381V25.3866Z" fill="#E9571C"/>
<path d="M301.067 25.3866C301.214 25.3866 301.331 25.5336 301.331 25.6806V27.1775C301.331 27.3532 301.214 27.4715 301.067 27.4715H294.348V45.1047C294.348 45.2517 294.232 45.3682 294.054 45.3682H292.294C292.118 45.3682 292 45.2499 292 45.1047V27.4715H285.28C285.133 27.4715 285.017 27.3532 285.017 27.1775V25.6806C285.017 25.5336 285.133 25.3866 285.28 25.3866H301.065H301.067Z" fill="#E9571C"/>
</svg>
