<svg width="36" height="36" viewBox="0 0 36 36" fill="none" xmlns="http://www.w3.org/2000/svg">
<path opacity="0.5" d="M18 33C10.9289 33 7.39338 33 5.19668 30.8033C2.99998 28.6066 2.99998 25.0711 2.99998 18C2.99998 10.9289 2.99998 7.3934 5.19668 5.1967C7.39338 3 10.9289 3 18 3C25.0711 3 28.6066 3 30.8033 5.1967C33 7.3934 33 10.9289 33 18C33 25.0711 33 28.6066 30.8033 30.8033C28.6066 33 25.0711 33 18 33Z" fill="#79B72A"/>
<circle cx="13.0909" cy="13.0909" r="4.09091" fill="#79B72A"/>
<circle cx="22.9091" cy="13.0909" r="4.09091" fill="#79B72A"/>
<circle cx="13.0909" cy="22.9091" r="4.09091" fill="#79B72A"/>
<circle cx="22.9091" cy="22.9091" r="4.09091" fill="#79B72A"/>
</svg>
