<svg width="52" height="52" viewBox="0 0 52 52" fill="none" xmlns="http://www.w3.org/2000/svg">
<path d="M4.88227 18.8925C4.8557 18.893 4.83108 18.8934 4.80861 18.8935L0 18.8936V33.0754H4.64666V24.7116H4.95825L7.54854 33.0754H11.0446L13.6348 24.7178H13.9464V33.0754H18.5931V18.8936L14.0341 18.8936C13.9987 18.8936 13.9602 18.893 13.9189 18.8925C13.2696 18.8836 11.9305 18.8652 11.375 20.7402C11.0297 21.9055 10.3954 24.0833 9.47189 27.2737H9.1212C8.2601 24.2476 7.63258 22.0697 7.23864 20.7402C6.68211 18.8619 5.4049 18.8836 4.88227 18.8925Z" fill="#79B72A"/>
<path d="M25.2656 27.2574V18.8936H20.5219V33.0754H25.0185C25.0185 33.0754 26.3838 32.9515 26.9955 31.5891L30.0845 24.7116H30.4552V33.0754H35.1989V18.8936H30.7024C30.7024 18.8936 29.3988 19.0112 28.7871 20.3799L25.6363 27.2574H25.2656Z" fill="#79B72A"/>
<path d="M46.555 28.8509C48.8556 28.8509 50.9336 27.508 51.5953 25.6329H37.0693V33.0754H41.5803V28.8509H46.555Z" fill="#79B72A"/>
<path d="M36.8327 18.8936H46.7725C50.5971 18.8936 52.4457 22.1297 51.9087 24.7538H42.6031C39.7883 24.7538 37.0693 22.0509 36.8327 18.8936Z" fill="#79B72A"/>
</svg>
