<svg width="32" height="32" viewBox="0 0 32 32" fill="none" xmlns="http://www.w3.org/2000/svg">
<g opacity="0.5">
<path d="M9.8811 18.4371L11.3532 19.8402C11.7662 20.2338 12.0003 20.7827 12.0003 21.357C12.0003 22.2198 12.691 22.9192 13.543 22.9192H18.4577C19.3097 22.9192 20.0003 22.2198 20.0003 21.357C20.0003 20.7827 20.2345 20.2338 20.6475 19.8402L22.1195 18.4371C24.1745 16.4634 25.322 13.8706 25.3336 11.175L25.3337 11.0617C25.3337 6.45592 21.155 2.66602 16.0003 2.66602C10.8457 2.66602 6.66699 6.45592 6.66699 11.0617L6.66708 11.175C6.67866 13.8706 7.82618 16.4634 9.8811 18.4371Z" fill="#79B72A"/>
</g>
<path fill-rule="evenodd" clip-rule="evenodd" d="M12.333 24.9443C12.333 24.385 12.7807 23.9316 13.333 23.9316H18.6663C19.2186 23.9316 19.6663 24.385 19.6663 24.9443C19.6663 25.5036 19.2186 25.957 18.6663 25.957H13.333C12.7807 25.957 12.333 25.5036 12.333 24.9443ZM13.2219 28.3198C13.2219 27.7606 13.6696 27.3072 14.2219 27.3072H17.7775C18.3297 27.3072 18.7775 27.7606 18.7775 28.3198C18.7775 28.8791 18.3297 29.3325 17.7775 29.3325H14.2219C13.6696 29.3325 13.2219 28.8791 13.2219 28.3198Z" fill="#79B72A"/>
</svg>
