<svg width="40" height="40" viewBox="0 0 40 40" fill="none" xmlns="http://www.w3.org/2000/svg">
<path d="M24.2603 25.9133L23.5012 26.7125C23.5012 26.7125 21.6969 28.6121 16.7719 23.4269C11.8469 18.2418 13.6512 16.3422 13.6512 16.3422L14.1292 15.839C15.3068 14.5992 15.4178 12.6087 14.3904 11.1556L12.2888 8.18314C11.0172 6.38461 8.55997 6.14703 7.10246 7.68152L4.48646 10.4357C3.76376 11.1965 3.27946 12.1829 3.33819 13.277C3.48843 16.0762 4.68457 22.0989 11.359 29.1258C18.4369 36.5775 25.0781 36.8737 27.7938 36.6056C28.6528 36.5208 29.3999 36.0576 30.0019 35.4238L32.3695 32.9312C33.9676 31.2486 33.5171 28.3641 31.4722 27.1871L28.2881 25.3543C26.9454 24.5815 25.3097 24.8085 24.2603 25.9133Z" fill="#79B72A"/>
<path d="M28.3333 20.0005C32.9357 20.0005 36.6666 16.2696 36.6666 11.6672C36.6666 7.06482 32.9357 3.33386 28.3333 3.33386C23.7309 3.33386 20 7.06482 20 11.6672C20 13.0003 20.313 14.2602 20.8695 15.3776C21.0174 15.6745 21.0666 16.0139 20.9809 16.3344L20.4846 18.1894C20.2691 18.9947 21.0058 19.7314 21.8111 19.5159L23.6661 19.0196C23.9866 18.9339 24.326 18.9831 24.6229 19.131C25.7403 19.6875 27.0002 20.0005 28.3333 20.0005Z" fill="#79B72A"/>
</svg>
