<svg width="32" height="32" viewBox="0 0 32 32" fill="none" xmlns="http://www.w3.org/2000/svg">
<path opacity="0.5" d="M12.7898 4.26704C12.4651 4.54371 12.3028 4.68207 12.1294 4.79828C11.7319 5.06468 11.2855 5.24958 10.8161 5.34226C10.6113 5.38269 10.3987 5.39966 9.9734 5.43359L9.97339 5.43359C8.90488 5.51886 8.37063 5.56149 7.9249 5.71893C6.89397 6.08307 6.08307 6.89397 5.71893 7.9249C5.56149 8.37063 5.51886 8.90488 5.43359 9.97339L5.43359 9.9734C5.39966 10.3987 5.38269 10.6113 5.34226 10.8161C5.24958 11.2855 5.06468 11.7319 4.79828 12.1294C4.68206 12.3028 4.54371 12.4651 4.26701 12.7898L4.26699 12.7898C3.57174 13.6057 3.2241 14.0136 3.02025 14.4401C2.54875 15.4266 2.54875 16.5734 3.02025 17.5598C3.2241 17.9863 3.57173 18.3942 4.26699 19.2101L4.26706 19.2102C4.5437 19.5348 4.68208 19.6972 4.79828 19.8705C5.06468 20.268 5.24958 20.7144 5.34226 21.1838C5.38269 21.3886 5.39966 21.6012 5.43359 22.0265L5.43359 22.0265C5.51886 23.095 5.56149 23.6293 5.71893 24.075C6.08307 25.1059 6.89397 25.9169 7.9249 26.281C8.37063 26.4384 8.90488 26.4811 9.97337 26.5663H9.9734C10.3987 26.6003 10.6113 26.6172 10.8161 26.6577C11.2855 26.7503 11.7319 26.9352 12.1294 27.2016C12.3028 27.3179 12.4651 27.4562 12.7898 27.7329L12.7898 27.7329C13.6057 28.4282 14.0136 28.7758 14.4401 28.9797C15.4266 29.4512 16.5734 29.4512 17.5598 28.9797C17.9863 28.7758 18.3942 28.4282 19.2101 27.7329L19.2102 27.7328C19.5348 27.4562 19.6972 27.3178 19.8705 27.2016C20.268 26.9352 20.7144 26.7503 21.1838 26.6577C21.3886 26.6172 21.6012 26.6003 22.0265 26.5663H22.0265C23.095 26.4811 23.6293 26.4384 24.075 26.281C25.1059 25.9169 25.9169 25.1059 26.281 24.075C26.4384 23.6293 26.4811 23.095 26.5663 22.0265V22.0265C26.6003 21.6012 26.6172 21.3886 26.6577 21.1838C26.7503 20.7144 26.9352 20.268 27.2016 19.8705C27.3179 19.6972 27.4562 19.5348 27.7329 19.2101L27.7329 19.2101C28.4282 18.3942 28.7758 17.9863 28.9797 17.5598C29.4512 16.5734 29.4512 15.4266 28.9797 14.4401C28.7758 14.0136 28.4282 13.6057 27.7329 12.7898L27.7329 12.7898C27.4562 12.4651 27.3179 12.3028 27.2016 12.1294C26.9352 11.7319 26.7503 11.2855 26.6577 10.8161C26.6172 10.6113 26.6003 10.3987 26.5663 9.9734V9.97337C26.4811 8.90488 26.4384 8.37063 26.281 7.9249C25.9169 6.89397 25.1059 6.08307 24.075 5.71893C23.6293 5.56149 23.095 5.51886 22.0265 5.43359L22.0265 5.43359C21.6012 5.39966 21.3886 5.38269 21.1838 5.34226C20.7144 5.24958 20.268 5.06468 19.8705 4.79828C19.6972 4.68206 19.5348 4.5437 19.2101 4.26699C18.3942 3.57173 17.9863 3.2241 17.5598 3.02025C16.5734 2.54875 15.4266 2.54875 14.4401 3.02025C14.0136 3.2241 13.6057 3.57174 12.7898 4.26699L12.7898 4.26704Z" fill="#79B72A"/>
<path d="M21.1079 10.8934C21.5316 11.3172 21.5316 12.0042 21.1079 12.428L12.4267 21.1092C12.0029 21.533 11.3158 21.533 10.8921 21.1092C10.4683 20.6854 10.4683 19.9983 10.8921 19.5746L19.5732 10.8934C19.997 10.4696 20.6841 10.4696 21.1079 10.8934Z" fill="#79B72A"/>
<path d="M21.064 19.6185C21.064 20.4175 20.4162 21.0653 19.6171 21.0653C18.818 21.0653 18.1702 20.4175 18.1702 19.6185C18.1702 18.8194 18.818 18.1716 19.6171 18.1716C20.4162 18.1716 21.064 18.8194 21.064 19.6185Z" fill="#79B72A"/>
<path d="M12.3828 13.831C13.1819 13.831 13.8297 13.1832 13.8297 12.3841C13.8297 11.5851 13.1819 10.9373 12.3828 10.9373C11.5837 10.9373 10.9359 11.5851 10.9359 12.3841C10.9359 13.1832 11.5837 13.831 12.3828 13.831Z" fill="#79B72A"/>
</svg>
