<svg width="40" height="40" viewBox="0 0 40 40" fill="none" xmlns="http://www.w3.org/2000/svg">
<path fill-rule="evenodd" clip-rule="evenodd" d="M20 0.000488281C8.95431 0.000488281 0 8.95479 0 20.0005C0 31.0462 8.95431 40.0005 20 40.0005C31.0457 40.0005 40 31.0462 40 20.0005C40 8.95479 31.0457 0.000488281 20 0.000488281ZM20.6244 14.4429C18.6839 15.267 14.8056 16.9727 8.98947 19.5599C8.04503 19.9434 7.55029 20.3185 7.50525 20.6854C7.42913 21.3053 8.18947 21.5494 9.22486 21.8818C9.3657 21.927 9.51162 21.9739 9.66122 22.0235C10.6799 22.3616 12.0502 22.7571 12.7625 22.7728C13.4087 22.7871 14.1299 22.5151 14.9261 21.9569C20.3603 18.2116 23.1654 16.3185 23.3415 16.2777C23.4657 16.2489 23.6379 16.2127 23.7546 16.3186C23.8712 16.4244 23.8598 16.6249 23.8474 16.6787C23.7721 17.0066 20.7875 19.8396 19.243 21.3057C18.7614 21.7628 18.4199 22.087 18.3501 22.1611C18.1937 22.3269 18.0343 22.4838 17.8811 22.6346C16.9347 23.5661 16.225 24.2646 17.9204 25.4053C18.7351 25.9534 19.387 26.4067 20.0374 26.859C20.7477 27.3528 21.4561 27.8454 22.3727 28.4589C22.6063 28.6152 22.8293 28.7776 23.0465 28.9357C23.8731 29.5374 24.6158 30.0779 25.5332 29.9917C26.0664 29.9416 26.617 29.4298 26.8967 27.9033C27.5576 24.2957 28.8568 16.4792 29.157 13.2581C29.1833 12.9759 29.1502 12.6148 29.1237 12.4562C29.0971 12.2977 29.0416 12.0718 28.8397 11.9046C28.6007 11.7065 28.2317 11.6648 28.0666 11.6676C27.3162 11.6813 26.165 12.09 20.6244 14.4429Z" fill="#79B72A"/>
</svg>
