<svg width="52" height="52" viewBox="0 0 52 52" fill="none" xmlns="http://www.w3.org/2000/svg">
<path d="M25.747 17.8674L22.273 34.1092H18.0709L21.5453 17.8674H25.747ZM43.4248 28.355L45.6364 22.2558L46.9091 28.355H43.4248ZM48.1146 34.1092H52L48.6056 17.8674H45.0216C44.2139 17.8674 43.533 18.3357 43.2316 19.058L36.9268 34.1092H41.3397L42.2157 31.6836H47.6058L48.1146 34.1092ZM37.1456 28.8068C37.1639 24.5204 31.22 24.2829 31.2598 22.3676C31.2726 21.7857 31.8279 21.1658 33.0414 21.0072C33.6431 20.9298 35.3034 20.8669 37.1854 21.7342L37.9215 18.2886C36.9107 17.923 35.6099 17.5708 33.9912 17.5708C29.8373 17.5708 26.9153 19.7772 26.8919 22.9393C26.8652 25.2776 28.9792 26.5814 30.5687 27.3602C32.2074 28.1562 32.7565 28.6666 32.7485 29.3778C32.7371 30.4675 31.4418 30.9501 30.2355 30.9683C28.1219 31.0012 26.8966 30.397 25.9202 29.9418L25.1574 33.5025C26.1408 33.9525 27.9527 34.3441 29.8289 34.3642C34.2451 34.3642 37.1325 32.1837 37.1456 28.8068ZM19.7429 17.8674L12.9347 34.1092H8.4937L5.14312 21.1471C4.94001 20.35 4.76284 20.0571 4.14511 19.7203C3.13468 19.1716 1.4667 18.6583 0 18.339L0.099364 17.8674H7.2491C8.15981 17.8674 8.97919 18.4735 9.18777 19.5226L10.9577 28.9219L15.3285 17.8674H19.7429Z" fill="#79B72A"/>
</svg>
